<svg xmlns="http://www.w3.org/2000/svg" viewBox="0 0 480 300" preserveAspectRatio="xMidYMid slice">
  <rect width="480" height="300" fill="#0a0a0a"/>
  <circle cx="240" cy="150" r="92" fill="none" stroke="rgba(255,255,255,0.08)" stroke-width="1"/>
  <g transform="translate(240,150)" stroke="rgba(255,255,255,0.4)" stroke-width="1.5" stroke-linecap="round">
    <line x1="0" y1="-96" x2="0" y2="-112" transform="rotate(0)"/>
    <line x1="0" y1="-96" x2="0" y2="-107" transform="rotate(15)"/>
    <line x1="0" y1="-96" x2="0" y2="-114" transform="rotate(30)"/>
    <line x1="0" y1="-96" x2="0" y2="-118" transform="rotate(45)"/>
    <line x1="0" y1="-96" x2="0" y2="-110" transform="rotate(60)"/>
    <line x1="0" y1="-96" x2="0" y2="-105" transform="rotate(75)"/>
    <line x1="0" y1="-96" x2="0" y2="-109" transform="rotate(90)"/>
    <line x1="0" y1="-96" x2="0" y2="-115" transform="rotate(105)"/>
    <line x1="0" y1="-96" x2="0" y2="-119" transform="rotate(120)"/>
    <line x1="0" y1="-96" x2="0" y2="-113" transform="rotate(135)"/>
    <line x1="0" y1="-96" x2="0" y2="-106" transform="rotate(150)"/>
    <line x1="0" y1="-96" x2="0" y2="-104" transform="rotate(165)"/>
    <line x1="0" y1="-96" x2="0" y2="-107" transform="rotate(180)"/>
    <line x1="0" y1="-96" x2="0" y2="-112" transform="rotate(195)"/>
    <line x1="0" y1="-96" x2="0" y2="-117" transform="rotate(210)"/>
    <line x1="0" y1="-96" x2="0" y2="-114" transform="rotate(225)"/>
    <line x1="0" y1="-96" x2="0" y2="-108" transform="rotate(240)"/>
    <line x1="0" y1="-96" x2="0" y2="-111" transform="rotate(255)"/>
    <line x1="0" y1="-96" x2="0" y2="-115" transform="rotate(270)"/>
    <line x1="0" y1="-96" x2="0" y2="-118" transform="rotate(285)"/>
    <line x1="0" y1="-96" x2="0" y2="-110" transform="rotate(300)"/>
    <line x1="0" y1="-96" x2="0" y2="-106" transform="rotate(315)"/>
    <line x1="0" y1="-96" x2="0" y2="-109" transform="rotate(330)"/>
    <line x1="0" y1="-96" x2="0" y2="-113" transform="rotate(345)"/>
  </g>
  <g transform="translate(170,80) scale(3.5)" fill="#6B8AAA">
    <path d="m12.7 7.1 2.2 6.6 2.3 7.1 4.8-6.1-9.3-7.7z"/>
    <path d="m16.6 27.8 8.6-5.3-7.9-1z"/>
    <path d="m16.7 22.3-1.5 2.7-4.4 8 4.9-1.5.3-3z"/>
    <path d="m28.3 16.1-1 2.8 1.9 1.7z"/>
    <path d="m17.5 21.1 8 1-3.3-7z"/>
    <path d="m24 17.7 1.8 4.1 2.2-6.1z"/>
  </g>
</svg>
