<?xml version="1.0" encoding="UTF-8"?>
<svg width="460px" height="300px" viewBox="100 0 450 300" version="1.1" xmlns="http://www.w3.org/2000/svg" xmlns:xlink="http://www.w3.org/1999/xlink">
    <title>post-songgbird</title>
    <defs>
        <linearGradient x1="0.7529092%" y1="37.6882273%" x2="100%" y2="62.5%" id="linearGradient-1">
            <stop stop-color="#00709B" offset="0%"></stop>
            <stop stop-color="#B35161" offset="100%"></stop>
        </linearGradient>
    </defs>
    <g id="post-songgbird" stroke="none" stroke-width="1" fill="none" fill-rule="evenodd">
        <rect id="Rectangle" fill="url(#linearGradient-1)" x="0" y="0" width="600" height="300"></rect>
        <path d="M275.416507,164.736795 L267.904157,228.525281 L234.098586,238.597148 L275.416507,164.736795 Z M279.07296,159.119153 L320.324399,164.437631 L333.853275,166.199376 L273.987166,203.063072 L279.07296,159.119153 Z M313.343897,115.042273 L321.720499,133.091855 L335.714742,163.407176 L322.418549,161.711911 L280.602022,156.326953 L305.864789,124.44933 L313.343897,115.042273 Z M352.76711,119.562979 L338.041576,161.279785 L325.044547,133.191577 L352.76711,119.562979 Z M247.42802,59.5971477 L311.615392,112.416275 L299.116971,128.172264 L278.341669,154.332524 L247.42802,59.5971477 Z M355.027463,122.122496 L361.609079,153.40179 L348.246404,141.302254 L355.027463,122.122496 Z" id="Combined-Shape-Copy" fill="#FFFFFF" fill-rule="nonzero"></path>
    </g>
</svg>