<svg xmlns="http://www.w3.org/2000/svg" viewBox="0 0 480 300" preserveAspectRatio="xMidYMid slice">
  <rect width="480" height="300" fill="#0a0a0a"/>
  <circle cx="240" cy="150" r="110" fill="none" stroke="rgba(255,255,255,0.06)" stroke-width="1"/>
  <polyline points="240,40 344.6,184 175.3,239 175.3,61 344.6,116 240,260 135.4,116 304.7,61 304.7,239 135.4,184 240,40"
    fill="none" stroke="rgba(255,255,255,0.2)" stroke-width="1.2" stroke-linejoin="round"/>
  <g fill="rgba(255,255,255,0.65)">
    <circle cx="240" cy="40" r="4"/>
    <circle cx="304.7" cy="61" r="4"/>
    <circle cx="344.6" cy="116" r="4"/>
    <circle cx="344.6" cy="184" r="4"/>
    <circle cx="304.7" cy="239" r="4"/>
    <circle cx="240" cy="260" r="4"/>
    <circle cx="175.3" cy="239" r="4"/>
    <circle cx="135.4" cy="184" r="4"/>
    <circle cx="135.4" cy="116" r="4"/>
    <circle cx="175.3" cy="61" r="4"/>
  </g>
  <g transform="translate(195,105) scale(2.452)" fill="#E62058">
    <path d="M27.3,13.7H9.2c-5,0-9,3.9-9.2,8.9c0,0.1,0.1,0.2,0.2,0.2h18.1c5,0,9-3.9,9.2-8.9C27.5,13.8,27.4,13.7,27.3,13.7L27.3,13.7L27.3,13.7z"/>
    <path d="M36.4,0H9.2c-5,0-9,3.9-9.2,8.9C0,9,0.1,9.2,0.2,9.2h27.3c5,0,9-3.9,9.2-8.9C36.7,0.1,36.6,0,36.4,0L36.4,0L36.4,0z"/>
    <circle cx="4.6" cy="32" r="4.6"/>
  </g>
</svg>
