<?xml version="1.0" encoding="UTF-8"?>
<svg version="1.1" xmlns="http://www.w3.org/2000/svg" width="1350" height="1080">
<path d="M0 0 C0.71244873 0 1.42489746 0 2.15893555 0 C6.91610064 0.18153407 9.50337797 1.0928842 13.0625 4.1875 C17.82830567 8.19695767 21.93289357 8.375 27.9375 8.375 C29.15046753 8.38466797 29.15046753 8.38466797 30.38793945 8.39453125 C34.462779 8.27383252 37.35520821 7.87301518 40.82421875 5.66796875 C44.97785893 3.26671952 47.69950522 3.14457108 52.375 3.3125 C53.06464844 3.31378906 53.75429688 3.31507813 54.46484375 3.31640625 C58.47451867 3.38540639 61.64056605 3.93193874 65.25 5.6875 C65.25 6.3475 65.25 7.0075 65.25 7.6875 C66.425625 8.05875 66.425625 8.05875 67.625 8.4375 C70.25 9.6875 70.25 9.6875 71.1574707 11.70947266 C72.0549354 13.84838183 72.0549354 13.84838183 74.11010742 14.35693359 C74.85107666 14.43250488 75.5920459 14.50807617 76.35546875 14.5859375 C77.17466797 14.67230469 77.99386719 14.75867188 78.83789062 14.84765625 C79.69576172 14.91855469 80.55363281 14.98945313 81.4375 15.0625 C82.27603516 15.15660156 83.11457031 15.25070313 83.97851562 15.34765625 C89.26350686 15.85098875 93.14550969 15.35227382 98.25 13.6875 C105.68498408 12.86245661 112.11484216 13.14537671 118.25 17.6875 C124.46416235 23.1158247 124.46416235 23.1158247 126.25 26.6875 C135.11765812 31.33984846 143.26594742 32.21649417 153.14379883 31.59033203 C160.09228674 31.25551536 164.93595445 32.88527616 170.2734375 37.3984375 C172.63432881 40.30519963 174.15032141 42.37673733 175.3125 46 C175.621875 46.886875 175.93125 47.77375 176.25 48.6875 C177.89115769 49.41470263 179.5633712 50.07308522 181.25 50.6875 C182.81607748 51.55608079 184.37852787 52.43122981 185.9375 53.3125 C190.49964402 55.64081315 193.63656615 55.88680087 198.6640625 55.6171875 C204.8027682 55.78410095 210.46633985 58.24539179 215.1875 62.0625 C223.25 72.32386364 223.25 72.32386364 223.25 78.6875 C224.095625 78.89375 224.94125 79.1 225.8125 79.3125 C229.08581715 80.62182686 229.94943545 81.28741993 232.25 83.6875 C235.68409651 86.86976276 238.52089164 87.18439178 243.125 87.625 C251.74085593 88.53241461 255.96937027 92.06154082 261.625 98.3125 C263.7351425 102.69510366 264.51477881 107.08188313 265.34375 111.859375 C265.94639391 114.77744744 265.94639391 114.77744744 268.140625 115.890625 C268.83671875 116.15359375 269.5328125 116.4165625 270.25 116.6875 C271.953125 118.125 271.953125 118.125 273.5 119.6875 C274.02078125 120.203125 274.5415625 120.71875 275.078125 121.25 C276.25 122.6875 276.25 122.6875 276.25 124.6875 C277.36375 124.72875 278.4775 124.77 279.625 124.8125 C285.92682513 125.61841725 291.5805012 128.85621339 295.92578125 133.46484375 C298.67950308 137.17708822 301.22508078 141.04107874 301.26953125 145.76171875 C301.4169449 154.08388919 305.3395327 160.96457055 311.25 166.6875 C314.38579938 168.68197458 317.39368217 170.17123258 320.84375 171.5390625 C321.6378125 171.91804687 322.431875 172.29703125 323.25 172.6875 C323.58 173.6775 323.91 174.6675 324.25 175.6875 C324.91 175.6875 325.57 175.6875 326.25 175.6875 C326.25 176.3475 326.25 177.0075 326.25 177.6875 C326.91 177.6875 327.57 177.6875 328.25 177.6875 C330.771588 182.83021237 331.52349367 186.42944446 331.5 192.25 C331.78425259 200.89087405 334.05276182 207.66748944 339.25 214.6875 C341.75050902 216.67793586 344.15640644 218.11009304 347.01171875 219.53125 C351.67950157 221.94253048 353.64731288 225.8862586 355.25 230.6875 C355.48046875 233.80859375 355.48046875 233.80859375 355.4375 237.125 C355.43105469 238.21683594 355.42460938 239.30867187 355.41796875 240.43359375 C355.25 243.6875 355.25 243.6875 354.5859375 246.61328125 C354.14683937 250.63153969 355.29557781 253.7378217 356.6875 257.4375 C359.25 264.52005968 359.25 264.52005968 359.25 266.6875 C359.83523438 266.94015625 360.42046875 267.1928125 361.0234375 267.453125 C365.78774352 270.09438939 369.28119509 274.74989018 371.6875 279.5625 C372.75087132 285.47011843 373.18254591 291.05120477 370.6875 296.625 C368.5082795 301.67915459 369.49392299 306.37904354 370.25 311.6875 C370.3428125 313.54375 370.3428125 313.54375 370.4375 315.4375 C371.40869986 319.32229946 373.02954456 321.05996068 375.68359375 323.95703125 C380.81947346 329.63083352 381.93659709 334.11883305 381.72265625 341.671875 C381.23093341 344.80914802 380.39571153 346.56809973 378.75 349.25 C375.9216339 354.21984329 375.689476 358.71544548 375.625 364.3125 C375.60244141 365.11244385 375.57988281 365.9123877 375.55664062 366.73657227 C375.62415119 372.18636233 376.90682466 375.54827929 380.08056641 379.97412109 C383.69196032 385.26530324 382.86902181 392.6026473 382.25 398.6875 C380.97616129 402.01907816 379.36956787 404.82608337 377.25 407.6875 C376.59 407.6875 375.93 407.6875 375.25 407.6875 C374.7148501 410.20603031 374.19670571 412.72620748 373.6875 415.25 C373.53603516 415.95447266 373.38457031 416.65894531 373.22851562 417.38476562 C371.94906067 423.84154995 372.53252692 429.15315717 374.9375 435.3125 C376.87919994 441.65925056 376.26411504 447.41004418 374.25 453.6875 C371.94553316 457.6146721 369.23278995 461.09243383 365.671875 463.95703125 C363.43081181 466.68447904 362.77025798 469.88874234 361.9375 473.25 C361.66715942 474.32918701 361.66715942 474.32918701 361.39135742 475.43017578 C360.23683219 480.5251831 360.29267744 484.31971902 361.71484375 489.38671875 C362.9620455 494.7487759 362.15303421 500.46584744 359.6875 505.375 C356.4896661 510.34159916 351.54768013 513.83659101 347 517.5 C341.81955032 523.9755621 340.05638112 532.39645969 340.375 540.5 C340.39067265 546.89444316 339.91394049 551.70511145 335.55078125 556.58984375 C332.31566996 559.59614559 329.37218391 561.73517519 325.25 563.3125 C319.01053822 566.22260471 315.92013564 572.65712121 313.25 578.6875 C312.45956877 582.30583325 312.01727513 585.81981642 311.6640625 589.50390625 C311.07591179 594.02600839 309.73879001 596.88111528 307.25 600.6875 C305.1171875 601.890625 305.1171875 601.890625 303.25 602.6875 C303.25 603.3475 303.25 604.0075 303.25 604.6875 C299.33106961 606.78438223 295.77996251 608.55718135 291.4375 609.625 C287.48586167 610.94221278 287.16362702 612.10984949 285.25 615.6875 C284.26 616.3475 283.27 617.0075 282.25 617.6875 C278.08388314 620.90398729 278.02993577 625.54433399 277.0859375 630.453125 C275.39600303 636.99174995 270.88328984 642.06609939 265.25 645.6875 C261.40048844 647.49807535 258.01320209 648.63298557 253.75 648.9375 C249.256786 649.90033157 247.18053441 652.03627092 243.94921875 655.19140625 C242.25 656.6875 242.25 656.6875 240.25 656.6875 C240.25 657.3475 240.25 658.0075 240.25 658.6875 C239.59 658.6875 238.93 658.6875 238.25 658.6875 C238.07984375 659.33976563 237.9096875 659.99203125 237.734375 660.6640625 C235.2151866 669.74922066 231.80105878 675.45922468 223.49609375 680.2890625 C219.91480269 681.8319051 217.5585528 681.92434135 213.6875 681.875 C205.42179585 682.29618238 199.47596264 685.27082054 193.25 690.6875 C191.4986729 693.66368014 191.4986729 693.66368014 190.25 696.6875 C186.77401442 702.53085117 182.87776354 706.47824549 176.25 708.6875 C174.26457034 708.62733546 172.27910082 708.56335641 170.29492188 708.47070312 C161.28115319 708.10477548 154.93186891 709.34656555 146.875 713.375 C144.25 714.6875 144.25 714.6875 142.25 714.6875 C142.085 715.368125 141.92 716.04875 141.75 716.75 C139.04898297 722.03949169 133.80023275 726.49795864 128.25 728.6875 C122.4230574 729.65475687 116.61858779 730.35348231 110.9375 728.5 C104.22901761 726.59947309 96.62716026 729.47067762 90.25 731.6875 C89.92 732.3475 89.59 733.0075 89.25 733.6875 C88.59 733.6875 87.93 733.6875 87.25 733.6875 C86.59 735.0075 85.93 736.3275 85.25 737.6875 C84.26 737.6875 83.27 737.6875 82.25 737.6875 C81.92 738.6775 81.59 739.6675 81.25 740.6875 C75.96142039 743.33178981 70.02671613 743.39634951 64.25 742.6875 C62.13671875 741.75390625 62.13671875 741.75390625 60.125 740.625 C53.52374868 737.30054311 45.30269344 738.07637033 38.25 739.6875 C35.43755019 740.98724834 33.29024628 742.34339153 30.9140625 744.3125 C27.16341537 747.41162627 22.6153052 746.94082942 18 747 C17.26136719 747.02900391 16.52273438 747.05800781 15.76171875 747.08789062 C10.08471357 747.15297093 6.96164657 745.84617848 2.25 742.6875 C-1.59955117 740.12113255 -4.84363715 740.30524756 -9.3125 740.3125 C-10.12807373 740.31121094 -10.94364746 740.30992187 -11.78393555 740.30859375 C-17.31158646 740.40552177 -21.32803194 741.36513202 -26.32421875 743.78125 C-31.97264447 745.89145091 -38.55420384 745.65264029 -44.28515625 743.921875 C-48.23065198 742.11740145 -50.01830703 740.74802145 -51.75 736.6875 C-52.41 736.6875 -53.07 736.6875 -53.75 736.6875 C-54.08 736.0275 -54.41 735.3675 -54.75 734.6875 C-57.35635527 734.02833503 -57.35635527 734.02833503 -60.4375 733.625 C-61.47261719 733.46902344 -62.50773437 733.31304688 -63.57421875 733.15234375 C-64.62222656 732.99894531 -65.67023438 732.84554687 -66.75 732.6875 C-67.80832031 732.46191406 -68.86664062 732.23632812 -69.95703125 732.00390625 C-72.9573133 731.35999415 -72.9573133 731.35999415 -75.75 733.6875 C-83.41432638 736.01002315 -91.6788426 735.36577022 -98.75 731.6875 C-102.07400468 729.52303184 -103.82852499 727.55547867 -105.75 724.1875 C-108.86701254 719.47150051 -113.76270482 718.76045728 -118.984375 717.4140625 C-121.75 716.6875 -121.75 716.6875 -122.75 715.6875 C-124.41970696 716.00525393 -126.08576656 716.34222335 -127.75 716.6875 C-136.51085792 717.49124843 -143.48423405 716.93938517 -150.75 711.6875 C-153.8737207 708.78217503 -156.17810475 705.75669547 -158.1875 702 C-159.99132668 699.33033651 -161.99349548 698.14633567 -164.8359375 696.6796875 C-166.75 695.6875 -166.75 695.6875 -168.9921875 694.09375 C-172.50960172 692.30016768 -175.64632803 692.33017324 -179.5 692.3125 C-186.31918345 692.11399637 -191.17970251 690.88069617 -196.75 686.6875 C-196.75 686.0275 -196.75 685.3675 -196.75 684.6875 C-197.389375 684.460625 -198.02875 684.23375 -198.6875 684 C-200.75 682.6875 -200.75 682.6875 -201.5 680.0625 C-201.5825 679.27875 -201.665 678.495 -201.75 677.6875 C-202.41 677.6875 -203.07 677.6875 -203.75 677.6875 C-203.94335938 676.63175781 -204.13671875 675.57601562 -204.3359375 674.48828125 C-205.60660984 670.03868703 -208.54660547 668.16958262 -212.375 665.875 C-214.54223375 664.52390807 -216.64754389 663.14145204 -218.75 661.6875 C-218.75 661.0275 -218.75 660.3675 -218.75 659.6875 C-219.719375 659.914375 -220.68875 660.14125 -221.6875 660.375 C-227.85782674 661.23684726 -232.96068623 658.89184581 -238 655.5 C-242.43021015 650.96910325 -245.62030389 646.76704738 -246.375 640.375 C-247.66079761 633.56853009 -253.25369212 628.54297172 -258.75 624.6875 C-262.05210797 623.12253805 -265.32914985 621.93195005 -268.79296875 620.77734375 C-273.93937118 618.88058513 -277.34463907 616.20850129 -280.01953125 611.41015625 C-282.21429424 606.62510761 -283.88942872 602.30808153 -283.8125 597 C-283.80347656 596.19175781 -283.79445313 595.38351562 -283.78515625 594.55078125 C-283.77355469 593.93589844 -283.76195312 593.32101562 -283.75 592.6875 C-284.41 592.6875 -285.07 592.6875 -285.75 592.6875 C-287.5608283 590.25633757 -289.16308538 587.71835804 -290.80078125 585.16796875 C-292.92119993 582.46964037 -294.7421417 581.28801176 -297.75 579.6875 C-310.98691817 571.3167676 -310.98691817 571.3167676 -313.75 562.6875 C-314.05078125 558.92578125 -314.05078125 558.92578125 -314.0625 555 C-314.36698399 546.37128433 -316.41209554 538.74653917 -322.9375 532.640625 C-324.45462857 531.48227683 -325.99759207 530.3568544 -327.56640625 529.26953125 C-332.16679742 525.93651082 -336.44182541 521.31265075 -337.75 515.6875 C-338.05448603 510.94739321 -337.91812266 506.54212351 -337 501.875 C-336.10010148 495.94053406 -338.80457813 490.19952862 -340.75 484.6875 C-341.08 483.6975 -341.41 482.7075 -341.75 481.6875 C-343.48013599 480.01033521 -343.48013599 480.01033521 -345.5625 478.375 C-350.57205354 474.06570663 -353.71415069 470.51594152 -354.625 463.8125 C-354.98508076 458.39492128 -354.20292272 453.59334544 -351.75 448.6875 C-351.27802899 440.0346981 -351.67550263 431.77772437 -357.25 424.8125 C-358.16265625 423.79542969 -358.16265625 423.79542969 -359.09375 422.7578125 C-364.00845058 416.61443678 -363.46123427 409.18027029 -362.75 401.6875 C-361.75324156 398.45453566 -360.47288477 395.59486805 -358.75 392.6875 C-358.09 392.6875 -357.43 392.6875 -356.75 392.6875 C-356.97847897 380.03722759 -356.97847897 380.03722759 -361.875 368.75 C-365.24040879 363.03394309 -365.14772891 355.05113117 -363.75 348.6875 C-361.94434146 345.27236312 -359.83140182 342.2768446 -357.609375 339.12109375 C-355.33826366 334.92717175 -354.81443815 331.51890815 -354.5625 326.8125 C-354.52068604 326.11068604 -354.47887207 325.40887207 -354.43579102 324.68579102 C-354.33456537 319.64906631 -355.77555619 316.23485893 -357.75 311.6875 C-358.11328125 307.86328125 -358.11328125 307.86328125 -358.0625 304 C-358.05863281 302.71738281 -358.05476563 301.43476563 -358.05078125 300.11328125 C-357.77802507 297.00669464 -357.39669449 295.27891164 -355.75 292.6875 C-355.09 292.6875 -354.43 292.6875 -353.75 292.6875 C-353.46125 292.089375 -353.1725 291.49125 -352.875 290.875 C-351.75 288.6875 -351.75 288.6875 -349.75 285.6875 C-349.09 285.6875 -348.43 285.6875 -347.75 285.6875 C-347.75 285.0275 -347.75 284.3675 -347.75 283.6875 C-347.09 283.6875 -346.43 283.6875 -345.75 283.6875 C-343.10296872 273.45580555 -343.10296872 273.45580555 -343.40625 263.03125 C-344.47251155 255.76128488 -345.01920232 247.9706939 -341.15625 241.47265625 C-337.603252 236.96232268 -333.56305967 232.71257079 -327.75 231.6875 C-327.6675 231.0275 -327.585 230.3675 -327.5 229.6875 C-326.81981437 226.9667575 -326.09285427 225.53141241 -324.6875 223.1875 C-322.21621107 218.49205104 -322.62019058 214.29393713 -322.80859375 209.09765625 C-322.71636807 203.73012155 -321.29734347 198.79925969 -319.75 193.6875 C-319.09 193.6875 -318.43 193.6875 -317.75 193.6875 C-317.54375 193.130625 -317.3375 192.57375 -317.125 192 C-314.4938835 187.57494044 -311.10115189 185.12969517 -306.3125 183.5625 C-300.8206633 181.50764796 -298.51977111 175.49156628 -295.75 170.6875 C-295.42 170.3575 -295.09 170.0275 -294.75 169.6875 C-294.61577676 167.87697768 -294.51836511 166.063689 -294.4375 164.25 C-293.99110361 158.32639079 -292.87105599 152.82109898 -289.75 147.6875 C-288.76 147.3575 -287.77 147.0275 -286.75 146.6875 C-286.42 145.6975 -286.09 144.7075 -285.75 143.6875 C-284.18359375 142.625 -284.18359375 142.625 -282.1875 141.6875 C-281.46820313 141.34332031 -280.74890625 140.99914062 -280.0078125 140.64453125 C-277.88104773 139.74304791 -275.76668015 139.05804442 -273.5625 138.375 C-269.68312593 136.99330513 -268.04059635 134.98562153 -265.953125 131.50390625 C-264.75 129.6875 -264.75 129.6875 -262.6953125 127.82421875 C-260.31222536 125.20665115 -259.99291311 123.39423129 -259.375 119.9375 C-257.65481378 112.38523857 -254.48959095 107.34741526 -248.125 102.875 C-243.0382316 99.9528139 -237.42513021 98.93182485 -231.75 97.6875 C-230.76 97.3575 -229.77 97.0275 -228.75 96.6875 C-228.42 95.6975 -228.09 94.7075 -227.75 93.6875 C-222.37857143 89.6875 -222.37857143 89.6875 -219.75 89.6875 C-219.71003906 89.08164063 -219.67007813 88.47578125 -219.62890625 87.8515625 C-218.62722312 79.81336451 -214.83695804 74.90352537 -208.75 69.6875 C-204.82023208 67.36086919 -201.73311332 66.30820883 -197.1875 66.0625 C-187.95088476 65.51223356 -182.66816489 62.64935505 -175.5 56.875 C-173.78973585 54.73716981 -172.77397022 52.75583557 -171.5625 50.3125 C-168.59263021 44.98782222 -165.61854244 41.6978823 -159.75 39.6875 C-155.65214178 39.21661068 -151.53937187 39.21246006 -147.41894531 39.14282227 C-138.44063522 38.88194118 -130.36621871 36.89213278 -123.515625 30.65234375 C-121.82795338 28.72306103 -120.29534773 26.73050208 -118.75 24.6875 C-113.32518948 19.8934814 -109.93429381 18.41607283 -102.625 18.5 C-100.76488281 18.50966797 -100.76488281 18.50966797 -98.8671875 18.51953125 C-95.75 18.6875 -95.75 18.6875 -93.75 19.6875 C-85.88558928 20.33212383 -79.02575098 18.72972876 -71.75 15.6875 C-68.81026719 13.33331624 -68.81026719 13.33331624 -66.75 10.6875 C-60.06026865 5.87089343 -54.88767142 4.84678693 -46.75 5.6875 C-44.33203125 6.6171875 -44.33203125 6.6171875 -42 7.75 C-34.86987309 10.95058412 -26.55868628 10.27057601 -19.22265625 7.85546875 C-16.1963364 6.39749124 -13.69026456 4.64169429 -11.01953125 2.59375 C-7.2556639 0.39928493 -4.25346608 -0.04064954 0 0 Z M-87.64697266 42.04980469 C-90.59384895 42.94337804 -93.57944632 43.67480766 -96.5625 44.4375 C-107.31141601 47.50496711 -117.50626519 52.266015 -127.75 56.6875 C-129.43482304 57.40381707 -131.11971358 58.11997541 -132.8046875 58.8359375 C-141.04366472 62.3759275 -148.87754947 66.26503783 -156.59765625 70.828125 C-159.40666075 72.48498515 -162.24291839 74.03795163 -165.125 75.5625 C-176.9957866 82.0136344 -188.08435618 89.40801374 -198.75 97.6875 C-200.12298446 98.71104256 -201.49777504 99.7321704 -202.875 100.75 C-206.02074117 103.11926076 -209.14490969 105.51518165 -212.25 107.9375 C-213.1059375 108.60265625 -213.961875 109.2678125 -214.84375 109.953125 C-215.78734375 110.81164062 -215.78734375 110.81164062 -216.75 111.6875 C-216.75 112.3475 -216.75 113.0075 -216.75 113.6875 C-217.61625 114.0896875 -217.61625 114.0896875 -218.5 114.5 C-220.80550043 115.71679189 -222.77056192 116.99083879 -224.75 118.6875 C-224.75 119.3475 -224.75 120.0075 -224.75 120.6875 C-225.306875 120.914375 -225.86375 121.14125 -226.4375 121.375 C-229.4110989 123.0627183 -231.35213007 125.23925465 -233.75 127.6875 C-234.86161918 128.79073972 -235.97499585 129.89221057 -237.08984375 130.9921875 C-238.28910243 132.18225143 -239.48832049 133.37235629 -240.6875 134.5625 C-241.28240234 135.14902344 -241.87730469 135.73554688 -242.49023438 136.33984375 C-248.46033956 142.21472817 -248.46033956 142.21472817 -253.75 148.6875 C-253.75 149.3475 -253.75 150.0075 -253.75 150.6875 C-254.41 150.6875 -255.07 150.6875 -255.75 150.6875 C-264.90162952 160.31197884 -264.90162952 160.31197884 -269.75 171.6875 C-270.41 171.6875 -271.07 171.6875 -271.75 171.6875 C-271.75 172.6775 -271.75 173.6675 -271.75 174.6875 C-272.41 174.6875 -273.07 174.6875 -273.75 174.6875 C-275.44774156 176.96818291 -277.01966414 179.24238914 -278.5625 181.625 C-279.01028809 182.30780029 -279.45807617 182.99060059 -279.91943359 183.6940918 C-285.89239224 191.65459449 -285.89239224 191.65459449 -288.75 200.6875 C-289.41 200.6875 -290.07 200.6875 -290.75 200.6875 C-291.018125 201.23535156 -291.28625 201.78320312 -291.5625 202.34765625 C-293.80427561 206.88282731 -296.11270309 211.36069408 -298.55712891 215.79052734 C-303.67690194 225.13243472 -307.81124813 234.79727927 -311.75 244.6875 C-312.02054199 245.36393555 -312.29108398 246.04037109 -312.56982422 246.73730469 C-322.50503816 271.7989921 -329.2761354 297.4785524 -333.34765625 324.10107422 C-333.67701277 326.21830904 -334.03726378 328.33071722 -334.40625 330.44140625 C-343.36614876 384.13491723 -335.81176917 452.37049381 -312.09765625 501.78125 C-310.34890523 505.5524696 -308.80730303 509.39662507 -307.25 513.25 C-304.95786624 518.89862782 -302.53655432 524.40444643 -299.6953125 529.8046875 C-298.75 531.6875 -298.75 531.6875 -297.75 534.6875 C-297.09 534.6875 -296.43 534.6875 -295.75 534.6875 C-295.64292725 535.40953613 -295.53585449 536.13157227 -295.42553711 536.87548828 C-294.69065044 539.93455033 -293.58591982 542.00495336 -291.94140625 544.6796875 C-291.36358398 545.62577881 -290.78576172 546.57187012 -290.19042969 547.54663086 C-289.57071289 548.54186768 -288.95099609 549.53710449 -288.3125 550.5625 C-287.68375977 551.58158447 -287.05501953 552.60066895 -286.40722656 553.65063477 C-282.66807749 559.68227231 -278.89036889 565.68958968 -275 571.625 C-274.59467041 572.25067871 -274.18934082 572.87635742 -273.77172852 573.52099609 C-272.81897482 574.94776173 -271.7920821 576.32461164 -270.75 577.6875 C-270.09 577.6875 -269.43 577.6875 -268.75 577.6875 C-268.4921875 578.23921875 -268.234375 578.7909375 -267.96875 579.359375 C-266.57036875 582.03064175 -264.96236695 584.45601909 -263.25 586.9375 C-262.6415625 587.82953125 -262.033125 588.7215625 -261.40625 589.640625 C-260.8596875 590.31609375 -260.313125 590.9915625 -259.75 591.6875 C-259.09 591.6875 -258.43 591.6875 -257.75 591.6875 C-257.646875 592.285625 -257.54375 592.88375 -257.4375 593.5 C-256.63483085 596.05394731 -255.66310142 596.85092264 -253.75 598.6875 C-252.65678979 599.90789061 -251.57411022 601.13776557 -250.5 602.375 C-249.88898438 603.07496094 -249.27796875 603.77492188 -248.6484375 604.49609375 C-247.39688594 605.94078599 -246.15191259 607.3912071 -244.9140625 608.84765625 C-241.73217173 612.56449372 -238.58715047 615.63745732 -234.75 618.6875 C-233.75171091 619.81671224 -232.77396221 620.96427101 -231.8125 622.125 C-229.04956578 625.43766532 -226.2036036 628.0972973 -222.75 630.6875 C-222.09 630.6875 -221.43 630.6875 -220.75 630.6875 C-220.75 631.3475 -220.75 632.0075 -220.75 632.6875 C-220.09 632.6875 -219.43 632.6875 -218.75 632.6875 C-218.255 634.1725 -218.255 634.1725 -217.75 635.6875 C-215.73491642 636.42073796 -215.73491642 636.42073796 -213.75 636.6875 C-213.75 637.3475 -213.75 638.0075 -213.75 638.6875 C-213.09 638.6875 -212.43 638.6875 -211.75 638.6875 C-211.75 639.3475 -211.75 640.0075 -211.75 640.6875 C-210.20156729 642.10424287 -210.20156729 642.10424287 -208.1875 643.5 C-207.46175781 644.02464844 -206.73601562 644.54929687 -205.98828125 645.08984375 C-205.24964844 645.61707031 -204.51101563 646.14429688 -203.75 646.6875 C-203.08355469 647.18378906 -202.41710937 647.68007813 -201.73046875 648.19140625 C-198.57515173 650.79894025 -198.57515173 650.79894025 -194.75 651.6875 C-194.42 652.6775 -194.09 653.6675 -193.75 654.6875 C-190.74152582 655.91270264 -190.74152582 655.91270264 -187.75 656.6875 C-187.75 657.3475 -187.75 658.0075 -187.75 658.6875 C-185.71545146 660.24023547 -185.71545146 660.24023547 -183.0625 661.8125 C-182.05832031 662.43253906 -181.05414063 663.05257812 -180.01953125 663.69140625 C-178.40111328 664.67947266 -178.40111328 664.67947266 -176.75 665.6875 C-175.68136719 666.35652344 -174.61273438 667.02554688 -173.51171875 667.71484375 C-158.2800275 677.21868943 -142.25446487 685.60224993 -125.75 692.6875 C-125.11835937 692.96529297 -124.48671875 693.24308594 -123.8359375 693.52929688 C-112.7239421 698.37798121 -101.38849597 702.1508175 -89.75 705.5 C-89.09422974 705.68872681 -88.43845947 705.87745361 -87.76281738 706.07189941 C-72.08497392 710.6780771 -72.08497392 710.6780771 -56.0625 713.75 C-52.4890268 714.26049617 -49.00250789 714.81693446 -45.5 715.6875 C-41.24711966 716.67672308 -36.95601823 717.23222434 -32.625 717.75 C-31.97499023 717.82927734 -31.32498047 717.90855469 -30.65527344 717.99023438 C-17.52786115 719.48727516 -4.38723104 719.92731569 8.8125 719.9375 C9.61136627 719.93817474 10.41023254 719.93884949 11.23330688 719.93954468 C35.03581256 719.90799084 58.24018071 717.28199794 81.52148438 712.27099609 C83.83853073 711.77549316 86.15794731 711.31185198 88.484375 710.86328125 C98.63676585 708.73956684 108.41816601 705.45108718 118.25 702.1875 C118.97309357 701.94811707 119.69618713 701.70873413 120.44119263 701.46209717 C127.54746874 699.09915818 134.61560453 696.74333269 141.39819336 693.54003906 C143.50291598 692.57106195 145.6436462 691.75166249 147.8125 690.9375 C154.55729392 688.27981825 160.96414531 684.91119195 167.41601562 681.62060547 C170.020352 680.29555573 172.63483742 678.99102048 175.25 677.6875 C175.25 677.0275 175.25 676.3675 175.25 675.6875 C175.98935791 675.57140381 176.72871582 675.45530762 177.49047852 675.33569336 C180.26695759 674.68351677 182.01342548 673.83899175 184.40234375 672.31640625 C185.17191406 671.82946289 185.94148437 671.34251953 186.734375 670.84082031 C187.54390625 670.31584961 188.3534375 669.79087891 189.1875 669.25 C190.02925781 668.71084961 190.87101563 668.17169922 191.73828125 667.61621094 C199.08502577 662.87376453 206.20437626 657.86298904 213.25 652.6875 C215.29147115 651.2080635 217.3331244 649.72887824 219.375 648.25 C221.0021721 647.06547806 222.627422 645.87830724 224.25 644.6875 C225.01054688 644.16027344 225.77109375 643.63304687 226.5546875 643.08984375 C227.11414063 642.62707031 227.67359375 642.16429687 228.25 641.6875 C228.25 641.0275 228.25 640.3675 228.25 639.6875 C228.971875 639.460625 229.69375 639.23375 230.4375 639 C233.82728187 637.41810179 235.63259784 635.35816325 238.25 632.6875 C241.1569053 630.07089294 244.08504032 627.48013951 247.01953125 624.89453125 C247.75558594 624.16621094 248.49164062 623.43789063 249.25 622.6875 C249.25 622.0275 249.25 621.3675 249.25 620.6875 C250.24 620.3575 251.23 620.0275 252.25 619.6875 C252.25 619.0275 252.25 618.3675 252.25 617.6875 C252.82234375 617.44 253.3946875 617.1925 253.984375 616.9375 C256.60010611 615.49433801 258.39773456 613.80533778 260.5 611.6875 C261.20640625 610.98625 261.9128125 610.285 262.640625 609.5625 C264.46710399 607.84639232 264.46710399 607.84639232 264.25 605.6875 C264.91 605.6875 265.57 605.6875 266.25 605.6875 C269.88633539 602.20751493 269.88633539 602.20751493 271.25 597.6875 C271.91 597.6875 272.57 597.6875 273.25 597.6875 C273.476875 597.130625 273.70375 596.57375 273.9375 596 C275.25 593.6875 275.25 593.6875 277.49609375 591.4921875 C280.56978711 588.3618161 283.07357495 585.05617579 285.625 581.5 C286.10106689 580.84161133 286.57713379 580.18322266 287.06762695 579.50488281 C288.02041078 578.18467719 288.97106168 576.86292927 289.91943359 575.53955078 C291.10979388 573.88265662 292.31377419 572.23556724 293.51953125 570.58984375 C294.15246094 569.71457031 294.78539062 568.83929687 295.4375 567.9375 C295.98792969 567.17953125 296.53835938 566.4215625 297.10546875 565.640625 C298.50279332 563.63340688 298.50279332 563.63340688 298.25 560.6875 C298.91 560.6875 299.57 560.6875 300.25 560.6875 C301.68551348 558.5899178 302.97934618 556.50838718 304.25 554.3125 C304.83624146 553.31549072 304.83624146 553.31549072 305.43432617 552.29833984 C306.71825836 550.10145131 307.9865791 547.89624479 309.25 545.6875 C309.69037598 544.91792969 310.13075195 544.14835938 310.58447266 543.35546875 C311.91874127 541.01236288 313.24308805 538.66400068 314.5625 536.3125 C315.17448242 535.22702881 315.17448242 535.22702881 315.79882812 534.11962891 C318.58910356 529.0923223 320.99398583 523.97398888 323.25 518.6875 C323.64098877 517.78016113 324.03197754 516.87282227 324.43481445 515.93798828 C329.26935721 504.65958703 333.95791226 493.5212208 337.25 481.6875 C337.73933858 480.18398819 338.23877239 478.68371066 338.75 477.1875 C360.66185556 412.03624948 358.68876792 342.29318017 341.125 276.4375 C340.89570801 275.57487549 340.66641602 274.71225098 340.43017578 273.82348633 C339.05584889 268.90117216 337.30247768 264.34698863 335.15795898 259.71020508 C333.98421363 257.09539458 333.13276376 254.413165 332.25 251.6875 C331.06169793 248.52533303 329.81540478 245.38705318 328.5625 242.25 C328.21380859 241.37633789 327.86511719 240.50267578 327.50585938 239.60253906 C324.36798649 231.82594813 320.90766782 224.23143987 317.25 216.6875 C316.59 216.6875 315.93 216.6875 315.25 216.6875 C315.14300781 216.15382813 315.03601563 215.62015625 314.92578125 215.0703125 C311.78741919 204.00441159 304.44156045 194.16993498 298.01953125 184.81640625 C296.28797939 182.28468748 294.67895896 179.74657494 293.1953125 177.0625 C291.14143641 173.49914871 288.8511383 170.34786547 286.3125 167.125 C285.89548828 166.58681641 285.47847656 166.04863281 285.04882812 165.49414062 C282.19295362 161.82608542 279.23459541 158.25190535 276.25 154.6875 C274.81103484 152.91785703 273.37351011 151.14704173 271.9375 149.375 C266.33725988 142.52612065 260.59492124 135.86093688 254.25 129.6875 C253.5075 128.93855469 252.765 128.18960938 252 127.41796875 C245.06567606 120.53289427 237.99177404 113.67425026 230.0234375 107.9921875 C227.50901226 106.14236805 225.20611728 104.07506221 222.890625 101.984375 C221.29577004 100.61708654 221.29577004 100.61708654 219.359375 99.828125 C217.25 98.6875 217.25 98.6875 215.0078125 96.42578125 C211.65282705 93.09455632 208.02038615 90.53223518 204.125 87.875 C203.05185547 87.12186523 203.05185547 87.12186523 201.95703125 86.35351562 C201.26738281 85.87978516 200.57773437 85.40605469 199.8671875 84.91796875 C198.93302002 84.27444458 198.93302002 84.27444458 197.97998047 83.61791992 C196.13703177 82.45066876 196.13703177 82.45066876 193.25 82.6875 C193.25 82.0275 193.25 81.3675 193.25 80.6875 C192.61835937 80.3471875 191.98671875 80.006875 191.3359375 79.65625 C183.05310119 75.16871909 183.05310119 75.16871909 179.31640625 72.9296875 C152.99812754 57.22414789 123.8653663 46.21936885 94.25 38.6875 C92.88439941 38.33196045 92.88439941 38.33196045 91.49121094 37.96923828 C64.50741414 31.01736272 36.73980331 28.45876389 8.9375 28.5 C7.61383423 28.50190338 7.61383423 28.50190338 6.26342773 28.50384521 C-25.88734722 28.59169283 -56.89430219 32.43671847 -87.64697266 42.04980469 Z " fill="#FFFFFF" transform="translate(665.75,128.3125)"/>
<path d="M0 0 C0.83176758 0.18788086 1.66353516 0.37576172 2.52050781 0.56933594 C8.07245129 1.85690944 13.54172579 3.36220988 19 5 C19.97952637 5.29326172 20.95905273 5.58652344 21.96826172 5.88867188 C82.35096468 24.29701622 139.962883 60.8205522 179 111 C180.43609702 112.70951291 181.87365018 114.41780341 183.3125 116.125 C222.11478082 163.7521051 245.09676157 223.23836413 252 284 C252.14356934 285.22867798 252.14356934 285.22867798 252.29003906 286.48217773 C256.78859145 331.34274184 251.67169322 377.13390394 238 420 C237.74669922 420.80099121 237.49339844 421.60198242 237.23242188 422.42724609 C225.39644372 459.30714544 206.55659808 494.03193123 182 524 C181.58508301 524.50966309 181.17016602 525.01932617 180.74267578 525.54443359 C168.64701133 540.34516972 155.53761995 554.5746838 141 567 C140.11183594 567.78890625 139.22367188 568.5778125 138.30859375 569.390625 C75.72676642 624.44412076 -10.89741804 651.48166005 -93.53881836 646.484375 C-158.90266284 642.05824178 -222.3240513 619.66652677 -274 579 C-274.94230469 578.27039063 -275.88460937 577.54078125 -276.85546875 576.7890625 C-282.81043486 572.11741467 -288.4297592 567.12076892 -294 562 C-295.09110131 561.00255546 -296.18224947 560.00516217 -297.2734375 559.0078125 C-321.5022772 536.81048652 -341.45824013 511.37930867 -358 483 C-358.45761719 482.21786133 -358.91523438 481.43572266 -359.38671875 480.62988281 C-384.89905153 436.66220006 -400.95003952 383.58105249 -401.203125 332.59375 C-401.21013931 331.63897263 -401.21715363 330.68419525 -401.22438049 329.70048523 C-401.24178728 326.63360821 -401.24823367 323.56692462 -401.25 320.5 C-401.25067474 319.44954498 -401.25134949 318.39908997 -401.25204468 317.31680298 C-401.23541948 301.01277041 -400.66438234 285.11741523 -398 269 C-397.83371094 267.95295898 -397.66742188 266.90591797 -397.49609375 265.82714844 C-387.81419505 206.31933033 -361.43580308 149.52719851 -321.29931641 104.46240234 C-320.15003783 103.16887009 -319.01710303 101.86085693 -317.88671875 100.55078125 C-306.96842404 88.06364419 -295.12583319 76.15288807 -282 66 C-280.87489057 65.07751851 -279.75268332 64.15149029 -278.6328125 63.22265625 C-258.4507447 46.57021208 -235.71567093 33.00908143 -212 22 C-211.24380371 21.64873047 -210.48760742 21.29746094 -209.70849609 20.93554688 C-144.3900243 -9.01033831 -69.92771841 -15.87613711 0 0 Z M-290.2734375 91.2734375 C-291.96341959 92.96341959 -293.71867384 94.48107713 -295.5625 96 C-298.71164974 98.64670113 -301.33832356 101.55015999 -303.99609375 104.68359375 C-305.91371302 106.90025696 -307.8968982 109.0428123 -309.90283203 111.17944336 C-325.76713002 128.15100011 -338.65592874 147.78780339 -350 168 C-350.37044434 168.64517578 -350.74088867 169.29035156 -351.12255859 169.95507812 C-371.08867806 204.83639041 -382.50564575 245.21878002 -387 285 C-387.0942627 285.74636719 -387.18852539 286.49273437 -387.28564453 287.26171875 C-390.23175743 313.78200521 -389.4893294 342.72685033 -385 369 C-384.80664062 370.14033691 -384.61328125 371.28067383 -384.4140625 372.45556641 C-371.52600286 445.67684971 -331.97863982 518.52169069 -272 564 C-270.71760508 565.00896317 -269.43645769 566.01951305 -268.15625 567.03125 C-253.62799204 578.43078536 -238.31054149 588.34689334 -222 597 C-221.1248877 597.4655127 -220.24977539 597.93102539 -219.34814453 598.41064453 C-177.03300451 620.71962222 -130.7415901 632.44915854 -83 634 C-82.30036133 634.02336426 -81.60072266 634.04672852 -80.87988281 634.07080078 C0.15121375 636.35688435 80.362349 605.64534537 139.48828125 550.3515625 C150.6020321 539.81305756 161.72231947 529.22120166 171 517 C171.74507812 516.071875 172.49015625 515.14375 173.2578125 514.1875 C185.40657751 498.87458719 196.06203194 482.37824606 205 465 C205.47147461 464.08831055 205.94294922 463.17662109 206.42871094 462.23730469 C229.11845652 417.905941 240.50578584 369.64532349 240.3125 319.9375 C240.31067719 318.95720825 240.30885437 317.9769165 240.30697632 316.96691895 C240.25762755 301.13866408 239.60685041 285.64364571 237 270 C236.74259033 268.44176514 236.74259033 268.44176514 236.47998047 266.85205078 C226.15278898 206.52242546 198.07531082 145.35689522 153.50390625 102.50390625 C151.91190589 100.91190589 150.49407324 99.23697553 149.0625 97.5 C146.38437858 94.32280608 143.45704275 91.66588637 140.2890625 88.984375 C138.66496607 87.57645523 137.07966722 86.12321609 135.5234375 84.640625 C66.56331698 18.98282011 -35.89864583 -6.12114167 -290.2734375 91.2734375 Z " fill="#FFFFFF" transform="translate(749,183)"/>
<path d="M0 0 C4.76076497 -0.45315815 7.72447669 -0.6696425 11.5546875 2.37109375 C12.67932107 3.37354166 13.7861055 4.39634139 14.875 5.4375 C15.99634904 6.45818248 17.1186994 7.47776627 18.2421875 8.49609375 C19.15226563 9.32238281 20.06234375 10.14867187 21 11 C21.66 11.33 22.32 11.66 23 12 C23 12.66 23 13.32 23 14 C23.56074219 14.25136719 24.12148438 14.50273437 24.69921875 14.76171875 C33.12185571 19.29478482 40.39232638 27.05919107 47.58666992 33.33666992 C51.52962832 36.76443253 55.54146574 40.04276722 59.703125 43.203125 C63.24177533 45.97145689 66.64359506 48.9000253 70.06298828 51.81298828 C73.51124969 54.74787085 76.98697242 57.64246445 80.5 60.5 C84.53983295 63.78823612 88.53087671 67.12726442 92.5 70.5 C97.37363056 74.64047386 102.29467351 78.71598235 107.25390625 82.75390625 C110.18474631 85.15110829 113.09401638 87.57273697 116 90 C120.70285246 93.92712422 125.43458116 97.81639804 130.18359375 101.6875 C132.22668214 103.36504276 134.26012986 105.05094192 136.28515625 106.75 C137.105 107.43739258 137.105 107.43739258 137.94140625 108.13867188 C139.4845008 109.43449947 141.02550984 110.73280933 142.56640625 112.03125 C144.82311036 114.00108092 144.82311036 114.00108092 147 115 C147 115.66 147 116.32 147 117 C147.54140625 117.23460937 148.0828125 117.46921875 148.640625 117.7109375 C151.65591544 119.3583644 154.11184012 121.42653344 156.75 123.625 C157.73484375 124.44226563 158.7196875 125.25953125 159.734375 126.1015625 C160.85585938 127.04128906 160.85585938 127.04128906 162 128 C161.49514108 132.68064115 159.60697565 135.18527268 156.6875 138.8125 C155.78370219 139.94675957 154.88143104 141.08223683 153.98046875 142.21875 C153.50013184 142.82203125 153.01979492 143.4253125 152.52490234 144.046875 C150.89074453 146.13993656 149.31027226 148.26614247 147.73828125 150.40625 C146.92967651 151.5048938 146.92967651 151.5048938 146.10473633 152.62573242 C145.04435105 154.07071507 143.98811342 155.51875164 142.9362793 156.9699707 C141.67144494 158.68257872 140.34136112 160.34664508 139 162 C138.34 162 137.68 162 137 162 C136.814375 162.66 136.62875 163.32 136.4375 164 C135.14246492 166.70268191 134.09971234 168.14560154 132.125 170.3125 C128.51081735 174.28810092 125.31804507 178.49920276 122.125 182.8125 C118.02664197 188.33728145 113.82116446 193.72133234 109.421875 199.01171875 C105.73705154 203.55831544 102.21426675 208.22720142 98.69165039 212.90014648 C95.69290598 216.8599734 92.60049786 220.68855756 89.34155273 224.43701172 C87.0064561 227.15753741 84.87333341 230.02890443 82.7109375 232.88671875 C80.93502165 235.08025864 79.02737102 237.03902759 77 239 C73.48582667 231.68694022 71.05131562 224.17064723 68.68710327 216.43313599 C67.47901751 212.48479086 66.24952278 208.54312908 65.01953125 204.6015625 C64.76605423 203.78883377 64.51257721 202.97610504 64.25141907 202.13874817 C61.83246174 194.41159176 59.27357729 186.73499234 56.6875 179.0625 C50.65420174 161.12807652 44.82275487 143.12859337 39 125.125 C38.75865326 124.37891731 38.51730652 123.63283463 38.26864624 122.86414337 C32.27250448 104.32599448 26.31189384 85.77769457 20.4815979 67.18658447 C17.13111003 56.5045961 13.66052573 45.86917307 10.09863281 35.25537109 C7.67597179 28.03575128 5.27771727 20.80931483 2.9375 13.5625 C2.63803467 12.64984375 2.33856934 11.7371875 2.0300293 10.796875 C1.76101807 9.95769531 1.49200684 9.11851562 1.21484375 8.25390625 C0.86087524 7.16057983 0.86087524 7.16057983 0.49975586 6.04516602 C0 4 0 4 0 0 Z " fill="#FFFFFF" transform="translate(567,277)"/>
<path d="M0 0 C3 1 3 1 4.32763672 3.23950195 C4.77381348 4.22909912 5.21999023 5.21869629 5.6796875 6.23828125 C6.18935059 7.35356201 6.69901367 8.46884277 7.22412109 9.61791992 C7.77451673 10.84940073 8.32480666 12.08092879 8.875 13.3125 C9.45414634 14.58814398 10.03440536 15.86328333 10.61572266 17.13793945 C11.82228622 19.78569338 13.02401847 22.43556341 14.22265625 25.08691406 C16.37722191 29.84291609 18.58532654 34.57355691 20.79492188 39.30419922 C26.69292875 51.93315151 32.48951957 64.6072968 38.23999023 77.30395508 C38.86701055 78.68832023 39.49404514 80.07267892 40.12109375 81.45703125 C40.43364609 82.14714798 40.74619843 82.83726471 41.06822205 83.54829407 C43.10098553 88.03163362 45.14880796 92.50782011 47.20654297 96.97975159 C48.6142664 100.03957053 50.01795797 103.10123167 51.42144775 106.16299438 C52.0948647 107.62906276 52.77025743 109.0942253 53.44769287 110.55844116 C54.38559168 112.58614211 55.31656103 114.61689088 56.24609375 116.6484375 C56.77904053 117.80520996 57.3119873 118.96198242 57.86108398 120.15380859 C59 123 59 123 59 126 C47.514222 125.24983108 36.12816187 123.67705608 24.71875 122.19921875 C22.53855642 121.91858941 20.35833948 121.6381415 18.17810059 121.35786438 C13.61216543 120.77030199 9.04647401 120.18089062 4.48095703 119.59008789 C-1.28510321 118.84402582 -7.05167937 118.10204411 -12.81842041 117.36126518 C-25.64033932 115.7136759 -38.45987971 114.04868142 -51.27630615 112.35887909 C-53.03278276 112.12744239 -54.78932886 111.89653222 -56.54595947 111.6662674 C-61.4181134 111.02757454 -66.28783414 110.37362905 -71.15625 109.70703125 C-72.28591187 109.55868332 -73.41557373 109.41033539 -74.57946777 109.25749207 C-76.06863708 109.04846001 -76.06863708 109.04846001 -77.58789062 108.83520508 C-78.42791626 108.72066483 -79.26794189 108.60612457 -80.13342285 108.4881134 C-81.05737854 108.24649727 -81.05737854 108.24649727 -82 108 C-82.33 107.34 -82.66 106.68 -83 106 C-82.36835937 105.19820312 -81.73671875 104.39640625 -81.0859375 103.5703125 C-75.72042983 96.75306952 -70.37969899 89.91749471 -65.0625 83.0625 C-60.18327387 76.77465208 -55.24699819 70.53725684 -50.26025391 64.33447266 C-46.68630816 59.88049209 -43.1853928 55.37570473 -39.71557617 50.84033203 C-35.33134889 45.11310158 -30.86859222 39.44858792 -26.40429688 33.78369141 C-24.98101709 31.97588854 -23.56040208 30.1660235 -22.140625 28.35546875 C-18.01296902 23.09274283 -13.87933988 17.83690738 -9.6875 12.625 C-6.36343235 8.48533637 -3.15082467 4.27270921 0 0 Z " fill="#FFFFFF" transform="translate(732,413)"/>
<path d="M0 0 C13.50604342 1.32852908 26.95113759 2.99205589 40.40084839 4.79992676 C46.21048347 5.58065024 52.02127056 6.35270587 57.83203125 7.125 C59.01253555 7.28204407 60.19303986 7.43908813 61.40931702 7.60089111 C75.28042838 9.44216544 89.16142547 11.20514272 103.04394531 12.95800781 C115.70701697 14.56015863 128.35609264 16.2530619 141 18 C141 18.99 141 19.98 141 21 C139.46557617 22.25170898 139.46557617 22.25170898 137.29296875 23.49609375 C136.08688965 24.20052612 136.08688965 24.20052612 134.85644531 24.91918945 C133.97569336 25.42023193 133.09494141 25.92127441 132.1875 26.4375 C130.3309013 27.52150451 128.4754578 28.60748968 126.62109375 29.6953125 C125.20352783 30.52337402 125.20352783 30.52337402 123.75732422 31.36816406 C119.70225541 33.76802947 115.72304293 36.27984551 111.75 38.8125 C110.17593349 39.81273962 108.60171082 40.81273353 107.02734375 41.8125 C106.21765137 42.32683594 105.40795898 42.84117187 104.57373047 43.37109375 C99.8326202 46.37172814 95.0720061 49.34116342 90.3125 52.3125 C89.30203613 52.94333496 88.29157227 53.57416992 87.25048828 54.22412109 C85.19095302 55.50982178 83.13138256 56.79546607 81.07177734 58.08105469 C78.06326206 59.96048007 75.05669021 61.84297196 72.05078125 63.7265625 C59.49594442 71.59093382 46.89967693 79.3850882 34.27734375 87.140625 C28.47044788 90.70889981 22.6704889 94.28823275 16.875 97.875 C16.02728027 98.39884277 15.17956055 98.92268555 14.30615234 99.46240234 C10.28499107 101.95056958 6.274918 104.4539327 2.28515625 106.9921875 C1.54861816 107.45898926 0.81208008 107.92579102 0.05322266 108.40673828 C-1.31080843 109.27275479 -2.67204287 110.14319978 -4.02978516 111.01904297 C-7.00859133 112.90810055 -9.55817827 114.26363191 -13 115 C-12.34326017 105.48285947 -11.38652671 96.01877886 -10.29296875 86.54296875 C-10.12445767 85.06881009 -9.95611149 83.59463256 -9.78791809 82.12043762 C-9.43556651 79.03674022 -9.08157667 75.95323689 -8.72631836 72.86987305 C-8.28330504 69.02418931 -7.84382075 65.17811311 -7.40550041 61.33189201 C-5.07214424 40.87038989 -2.59975735 20.42937838 0 0 Z " fill="#FFFFFF" transform="translate(645,526)"/>
<path d="M0 0 C0.66 0 1.32 0 2 0 C2.20793776 7.85265567 1.39331973 15.47568009 0.47119141 23.26538086 C0.30652052 24.68883883 0.14229228 26.11234806 -0.02153015 27.53590393 C-0.46521744 31.37946213 -0.91535747 35.22223869 -1.36693144 39.06487727 C-1.8403549 43.10102638 -2.30853081 47.1377847 -2.77749634 51.17445374 C-3.56579772 57.95258732 -4.35829856 64.73021994 -5.15332031 71.50756836 C-6.07000917 79.32253642 -6.980084 87.13825305 -7.88659608 94.95440763 C-8.76162201 102.49775372 -9.64133131 110.04054664 -10.5231514 117.58310127 C-10.89701879 120.78162062 -11.26927715 123.98032101 -11.6402092 127.17918205 C-12.07801589 130.95288822 -12.51995144 134.72608942 -12.9649601 138.49895287 C-13.12679915 139.87655523 -13.28727098 141.25431907 -13.44620705 142.63225937 C-14.31649275 150.16911693 -15.34923055 157.59142132 -17 165 C-18.10396118 165.33040283 -18.10396118 165.33040283 -19.23022461 165.66748047 C-28.48851525 168.43933844 -37.74502285 171.21709935 -47 174 C-47.76056702 174.22868774 -48.52113403 174.45737549 -49.30474854 174.69299316 C-53.88528926 176.07070619 -58.46507511 177.45089132 -63.04397583 178.83404541 C-64.51406068 179.27783463 -65.98433667 179.72099115 -67.45480347 180.16351318 C-69.51727163 180.78436013 -71.57903156 181.4075056 -73.640625 182.03125 C-74.82172852 182.38767578 -76.00283203 182.74410156 -77.21972656 183.11132812 C-79.91986937 183.89590769 -79.91986937 183.89590769 -82 185 C-83.37548156 185.08308638 -84.75485796 185.10736016 -86.1328125 185.09765625 C-86.93847656 185.09443359 -87.74414062 185.09121094 -88.57421875 185.08789062 C-89.41597656 185.07951172 -90.25773438 185.07113281 -91.125 185.0625 C-91.97449219 185.05798828 -92.82398438 185.05347656 -93.69921875 185.04882812 C-95.79950909 185.03702874 -97.8997633 185.01909306 -100 185 C-99.53973801 179.02439523 -97.70043623 175.00378163 -94.6875 169.875 C-94.24889648 169.10728271 -93.81029297 168.33956543 -93.35839844 167.54858398 C-92.41290752 165.89629388 -91.46237505 164.24688045 -90.50732422 162.60009766 C-88.42505646 159.00823636 -86.36902286 155.40156942 -84.31079102 151.79589844 C-83.27210559 149.97685855 -82.23223307 148.15849597 -81.19116211 146.34082031 C-77.08408987 139.1682811 -73.09416968 131.94493806 -69.21875 124.64453125 C-64.34298466 115.46032208 -59.33821909 106.35520211 -54.26904297 97.27636719 C-53.04144803 95.0743481 -51.81856231 92.86979611 -50.59765625 90.6640625 C-45.33260571 81.15528274 -40.0085962 71.68125728 -34.64135742 62.22973633 C-30.06436353 54.15727154 -25.63095091 46.01068936 -21.2109375 37.8515625 C-14.31512458 25.13213678 -7.23250577 12.53091702 0 0 Z " fill="#FFFFFF" transform="translate(635,542)"/>
<path d="M0 0 C-0.56100662 4.75412823 -1.51715133 8.95012989 -3.15234375 13.4453125 C-3.59392822 14.67209717 -4.0355127 15.89888184 -4.49047852 17.1628418 C-4.72598419 17.80764496 -4.96148987 18.45244812 -5.20413208 19.11679077 C-6.46964628 22.58219636 -7.71330664 26.05546913 -8.9609375 29.52734375 C-9.21672073 30.23705826 -9.47250397 30.94677277 -9.73603821 31.67799377 C-12.24783093 38.65756043 -14.66125913 45.66911612 -17.0625 52.6875 C-20.82001815 63.64649036 -24.67290195 74.56706822 -28.60180664 85.46557617 C-28.98844482 86.5404126 -29.37508301 87.61524902 -29.7734375 88.72265625 C-30.14694336 89.75664551 -30.52044922 90.79063477 -30.90527344 91.85595703 C-32.38692082 96.11123247 -33.70361213 100.4154948 -34.99462891 104.73217773 C-35.4922876 105.85474976 -35.4922876 105.85474976 -36 107 C-36.99 107.33 -37.98 107.66 -39 108 C-46.360479 92.70057616 -53.39385486 77.25530311 -60.38296509 61.78372192 C-62.15783404 57.85565529 -63.9444301 53.93328918 -65.7421875 50.015625 C-66.47425216 48.40638364 -67.20605458 46.79702292 -67.9375 45.1875 C-68.26113525 44.49003662 -68.58477051 43.79257324 -68.91821289 43.07397461 C-70.42870659 39.72290206 -71 37.76316451 -71 34 C-61.34690577 28.67783588 -51.52333243 23.80186066 -41.56445312 19.07788086 C-35.82749872 16.35547476 -30.11189611 13.60060436 -24.4375 10.75 C-23.49463135 10.27723633 -23.49463135 10.27723633 -22.53271484 9.79492188 C-19.3524901 8.19604741 -16.18124444 6.58071665 -13.015625 4.953125 C-12.37181885 4.62473633 -11.7280127 4.29634766 -11.06469727 3.95800781 C-9.30506794 3.05999956 -7.54888934 2.15523869 -5.79296875 1.25 C-3 0 -3 0 0 0 Z " fill="#FFFFFF" transform="translate(834,425)"/>
<path d="M0 0 C0.66 0.33 1.32 0.66 2 1 C2.80996704 3.75512695 2.80996704 3.75512695 3.60400391 7.48828125 C3.75059952 8.16647415 3.89719513 8.84466705 4.04823303 9.54341125 C4.53303933 11.7980141 5.00516583 14.05505823 5.4765625 16.3125 C5.80952198 17.88145082 6.14297404 19.45029718 6.47689819 21.01904297 C7.17674178 24.31671413 7.87029204 27.61563219 8.55957031 30.91552734 C9.43973178 35.12660896 10.3355857 39.33416256 11.23635292 43.5408783 C11.92926989 46.78590249 12.61346271 50.03272023 13.29514694 53.28012085 C13.62175214 54.83068896 13.9510562 56.3806913 14.28319168 57.93008423 C15.93707444 65.66742781 17.45970664 73.03622566 17 81 C11.37847424 78.30214303 7.37904577 74.37904577 3 70 C2.175 69.34 1.35 68.68 0.5 68 C-2.21381427 65.82894858 -4.57150869 63.48631254 -7 61 C-8.20538764 59.76794449 -9.41386261 58.53890383 -10.625 57.3125 C-11.19476562 56.73113281 -11.76453125 56.14976562 -12.3515625 55.55078125 C-14.12382974 53.79748102 -14.12382974 53.79748102 -17 52 C-16.44092022 45.53446744 -14.8321973 39.94494755 -12.65625 33.84765625 C-12.32709595 32.90691757 -11.99794189 31.96617889 -11.65881348 30.99693298 C-10.96656307 29.02324602 -10.27049564 27.05089409 -9.57080078 25.07983398 C-8.49567259 22.05030609 -7.43243016 19.0168057 -6.37109375 15.98242188 C-5.69599584 14.06225961 -5.0202382 12.14232915 -4.34375 10.22265625 C-4.02394165 9.31234146 -3.7041333 8.40202667 -3.37463379 7.46412659 C-3.07762573 6.62913132 -2.78061768 5.79413605 -2.47460938 4.93383789 C-2.2133728 4.19629776 -1.95213623 3.45875763 -1.6829834 2.6988678 C-1 1 -1 1 0 0 Z " fill="#FFFFFF" transform="translate(839,431)"/>
<path d="M0 0 C3 1 3 1 4.76171875 4.24707031 C5.41425993 5.68598882 6.05542143 7.13010113 6.6875 8.578125 C7.03127686 9.34171326 7.37505371 10.10530151 7.72924805 10.89202881 C8.82949264 13.34035403 9.9152926 15.79475664 11 18.25 C12.08722084 20.68974667 13.17742899 23.12810639 14.27075195 25.56512451 C14.95049909 27.08252817 15.62630605 28.60170484 16.29760742 30.12286377 C17.65795982 33.17783111 18.99314741 35.98922472 20.79296875 38.81933594 C21.19128906 39.53895508 21.58960938 40.25857422 22 41 C21.67 41.99 21.34 42.98 21 44 C14.27537749 33.79396529 9.04339204 23.11431628 4 12 C3.61908203 11.18337891 3.23816406 10.36675781 2.84570312 9.52539062 C2.47896484 8.72810547 2.11222656 7.93082031 1.734375 7.109375 C1.40147461 6.39233398 1.06857422 5.67529297 0.72558594 4.93652344 C0 3 0 3 0 0 Z " fill="#FFFFFF" transform="translate(359,629)"/>
<path d="M0 0 C5.61 0 11.22 0 17 0 C17 0.66 17 1.32 17 2 C11.39 2 5.78 2 0 2 C0 1.34 0 0.68 0 0 Z " fill="#FFFFFF" transform="translate(656,162)"/>
<path d="M0 0 C-0.33 0.99 -0.66 1.98 -1 3 C-2.98 3.33 -4.96 3.66 -7 4 C-7 3.34 -7 2.68 -7 2 C-4.35261084 0.5393715 -3.10551666 0 0 0 Z " fill="#FFFFFF" transform="translate(524,198)"/>
<path d="M0 0 C0.99 0.33 1.98 0.66 3 1 C2.67 1.99 2.34 2.98 2 4 C1.34 2.68 0.68 1.36 0 0 Z " fill="#FFFFFF" transform="translate(384,679)"/>
<path d="M0 0 C1.485 0.99 1.485 0.99 3 2 C3 2.66 3 3.32 3 4 C2.34 4 1.68 4 1 4 C0.67 2.68 0.34 1.36 0 0 Z " fill="#FFFFFF" transform="translate(381,673)"/>
<path d="M0 0 C0.66 0 1.32 0 2 0 C2 0.66 2 1.32 2 2 C1.34 2 0.68 2 0 2 C0 1.34 0 0.68 0 0 Z " fill="#FFFFFF" transform="translate(436,259)"/>
<path d="M0 0 C0.99 0.33 1.98 0.66 3 1 C2.01 1 1.02 1 0 1 C0 0.67 0 0.34 0 0 Z " fill="#FFFFFF" transform="translate(819,195)"/>
<path d="M0 0 C2 1 2 1 2 1 Z " fill="#FFFFFF" transform="translate(580,828)"/>
<path d="" fill="#FFFFFF" transform="translate(0,0)"/>
<path d="" fill="#FFFFFF" transform="translate(0,0)"/>
<path d="M0 0 C2 1 2 1 2 1 Z " fill="#FFFFFF" transform="translate(558,821)"/>
<path d="M0 0 C2 1 2 1 2 1 Z " fill="#FFFFFF" transform="translate(549,818)"/>
<path d="M0 0 C2 1 2 1 2 1 Z " fill="#FFFFFF" transform="translate(544,816)"/>
<path d="" fill="#FFFFFF" transform="translate(0,0)"/>
<path d="" fill="#FFFFFF" transform="translate(0,0)"/>
<path d="M0 0 C2 1 2 1 2 1 Z " fill="#FFFFFF" transform="translate(515,202)"/>
<path d="" fill="#FFFFFF" transform="translate(0,0)"/>
<path d="" fill="#FFFFFF" transform="translate(0,0)"/>
<path d="" fill="#FFFFFF" transform="translate(0,0)"/>
<path d="" fill="#FFFFFF" transform="translate(0,0)"/>
<path d="" fill="#FFFFFF" transform="translate(0,0)"/>
</svg>
