<svg xmlns="http://www.w3.org/2000/svg" id="Layer_1" viewBox="0 0 577.8 577.8"><defs><style>.cls-2{fill:#fff}</style></defs><circle cx="288.9" cy="288.9" r="278.8" style="fill:#e62058" transform="rotate(-45 288.9 288.9)"/><path d="m363.4 264.9-132.4-.1a67 67 0 0 0-67 65.2q.2 1.6 1.8 1.8H298a67 67 0 0 0 67-65.1q-.1-1.6-1.8-1.8m67.2-100.4-199.3-.2a67 67 0 0 0-67 65.2q.1 1.7 1.7 1.8l199.4.1a67 67 0 0 0 67-65.2q-.2-1.6-1.8-1.7" class="cls-2"/><circle cx="197.6" cy="398.3" r="33.5" class="cls-2"/></svg>