<svg width="500" height="500" xmlns="http://www.w3.org/2000/svg" fill="transparent" transform="rotate(-10, 0, 0)">
<circle cx="250" cy="250" r="200" stroke-width="10" stroke="white" />
<circle cx="250" cy="250" r="187.5" stroke-width="6" stroke="white" />
<path d="M 450.0,250.0 Q 468.82715856613646,266.39882848934593 447.7661652450257,279.8084532352349 Z" fill="white" />
<path d="M 447.7661652450257,279.8084532352349 Q 463.9389214447634,298.83016273783414 441.11456115722814,308.95103488218086 Z" fill="white" />
<path d="M 441.11456115722814,308.95103488218086 Q 454.27164234174006,330.1707118401742 430.1937735804838,336.77674782351164 Z" fill="white" />
<path d="M 430.1937735804838,336.77674782351164 Q 440.0412722975302,359.720379718118 415.247754863199,362.6640116127244 Z" fill="white" />
<path d="M 415.247754863199,362.6640116127244 Q 421.56569426394276,386.8190756206288 396.6103743659653,386.03454755418386 Z" fill="white" />
<path d="M 396.6103743659653,386.03454755418386 Q 399.2576221242744,410.86145946049146 374.6979603717467,406.366296493606 Z" fill="white" />
<path d="M 374.6979603717467,406.366296493606 Q 373.6153813471458,431.3104641115668 350.0,423.20508075688775 Z" fill="white" />
<path d="M 350.0,423.20508075688775 Q 345.2117772189907,447.7092926009127 323.068204873279,436.1747497288409 Z" fill="white" />
<path d="M 323.068204873279,436.1747497288409 Q 314.681299320489,459.6916221983256 294.5041867912629,444.9855824363647 Z" fill="white" />
<path d="M 294.5041867912629,444.9855824363647 Q 282.7059480777973,466.9897874608029 264.94601871728486,449.440759436236 Z" fill="white" />
<path d="M 264.94601871728486,449.440759436236 Q 250.0,469.440759436236 235.05398128271514,449.440759436236 Z" fill="white" />
<path d="M 235.05398128271514,449.440759436236 Q 217.29405192220267,466.9897874608029 205.49581320873713,444.9855824363647 Z" fill="white" />
<path d="M 205.49581320873713,444.9855824363647 Q 185.31870067951098,459.6916221983256 176.931795126721,436.1747497288409 Z" fill="white" />
<path d="M 176.931795126721,436.1747497288409 Q 154.7882227810093,447.70929260091265 149.99999999999994,423.2050807568877 Z" fill="white" />
<path d="M 149.99999999999994,423.2050807568877 Q 126.38461865285419,431.3104641115668 125.3020396282533,406.366296493606 Z" fill="white" />
<path d="M 125.3020396282533,406.366296493606 Q 100.74237787572562,410.86145946049146 103.38962563403473,386.03454755418386 Z" fill="white" />
<path d="M 103.38962563403473,386.03454755418386 Q 78.43430573605727,386.8190756206288 84.75224513680101,362.6640116127244 Z" fill="white" />
<path d="M 84.75224513680101,362.6640116127244 Q 59.95872770246982,359.720379718118 69.80622641951618,336.77674782351164 Z" fill="white" />
<path d="M 69.80622641951618,336.77674782351164 Q 45.728357658259924,330.1707118401742 58.88543884277183,308.95103488218086 Z" fill="white" />
<path d="M 58.88543884277183,308.95103488218086 Q 36.061078555236584,298.83016273783414 52.23383475497428,279.8084532352349 Z" fill="white" />
<path d="M 52.23383475497428,279.8084532352349 Q 31.17284143386354,266.39882848934593 50.0,250.00000000000003 Z" fill="white" />
<path d="M 50.0,250.00000000000003 Q 31.17284143386354,233.60117151065407 52.23383475497428,220.19154676476512 Z" fill="white" />
<path d="M 52.23383475497428,220.19154676476512 Q 36.061078555236605,201.16983726216583 58.88543884277186,191.04896511781914 Z" fill="white" />
<path d="M 58.88543884277186,191.04896511781914 Q 45.72835765825994,169.82928815982586 69.80622641951618,163.22325217648842 Z" fill="white" />
<path d="M 69.80622641951618,163.22325217648842 Q 59.9587277024698,140.27962028188202 84.75224513680101,137.3359883872756 Z" fill="white" />
<path d="M 84.75224513680101,137.3359883872756 Q 78.4343057360573,113.18092437937116 103.38962563403476,113.96545244581611 Z" fill="white" />
<path d="M 103.38962563403476,113.96545244581611 Q 100.74237787572561,89.13854053950857 125.30203962825325,93.63370350639406 Z" fill="white" />
<path d="M 125.30203962825325,93.63370350639406 Q 126.38461865285421,68.68953588843326 150.00000000000006,76.79491924311225 Z" fill="white" />
<path d="M 150.00000000000006,76.79491924311225 Q 154.78822278100938,52.29070739908731 176.93179512672103,63.82525027115912 Z" fill="white" />
<path d="M 176.93179512672103,63.82525027115912 Q 185.31870067951098,40.30837780167438 205.49581320873708,55.01441756363528 Z" fill="white" />
<path d="M 205.49581320873708,55.01441756363528 Q 217.29405192220267,33.010212539197056 235.05398128271523,50.55924056376398 Z" fill="white" />
<path d="M 235.05398128271523,50.55924056376398 Q 250.00000000000006,30.55924056376398 264.94601871728486,50.55924056376398 Z" fill="white" />
<path d="M 264.94601871728486,50.55924056376398 Q 282.70594807779736,33.010212539197056 294.50418679126284,55.01441756363528 Z" fill="white" />
<path d="M 294.50418679126284,55.01441756363528 Q 314.681299320489,40.30837780167441 323.06820487327906,63.82525027115918 Z" fill="white" />
<path d="M 323.06820487327906,63.82525027115918 Q 345.2117772189907,52.29070739908734 350.0,76.79491924311228 Z" fill="white" />
<path d="M 350.0,76.79491924311228 Q 373.6153813471457,68.68953588843326 374.69796037174666,93.63370350639403 Z" fill="white" />
<path d="M 374.69796037174666,93.63370350639403 Q 399.25762212427435,89.13854053950857 396.6103743659653,113.96545244581617 Z" fill="white" />
<path d="M 396.6103743659653,113.96545244581617 Q 421.56569426394276,113.1809243793712 415.247754863199,137.33598838727562 Z" fill="white" />
<path d="M 415.247754863199,137.33598838727562 Q 440.0412722975302,140.279620281882 430.1937735804838,163.22325217648833 Z" fill="white" />
<path d="M 430.1937735804838,163.22325217648833 Q 454.27164234174006,169.82928815982586 441.1145611572282,191.04896511781922 Z" fill="white" />
<path d="M 441.1145611572282,191.04896511781922 Q 463.9389214447634,201.16983726216588 447.7661652450257,220.19154676476512 Z" fill="white" />
<path d="M 447.7661652450257,220.19154676476512 Q 468.82715856613646,233.60117151065404 450.0,249.99999999999994 Z" fill="white" />
<path d="M 392.8941916244324,322.5 L 392.8941916244324,322.5 L 395.83311788589475,328.45491502812524 L 402.4047567873839,329.40983005625054 L 397.6494742059082,334.04508497187476 L 398.7720441473571,340.59016994374946 L 392.8941916244324,337.5 L 387.01633910150764,340.59016994374946 L 388.13890904295664,334.04508497187476 L 383.38362646148084,329.40983005625054 L 389.95526536297,328.45491502812524 Z" fill="white" transform="rotate(30.0, 392.8941916244324, 332.5)" />
<path d="M 366.6726188957804,356.6726188957803 L 366.6726188957804,356.6726188957803 L 369.61154515724274,362.62753392390556 L 376.1831840587319,363.58244895203086 L 371.4279014772561,368.2177038676551 L 372.5504714187051,374.7627888395298 L 366.6726188957804,371.6726188957803 L 360.79476637285563,374.7627888395298 L 361.91733631430463,368.2177038676551 L 357.16205373282884,363.58244895203086 L 363.733692634318,362.62753392390556 Z" fill="white" transform="rotate(45.0, 366.6726188957804, 366.6726188957803)" />
<path d="M 332.5,382.8941916244324 L 332.5,382.8941916244324 L 335.43892626146237,388.8491066525576 L 342.01056516295154,389.8040216806829 L 337.25528258147574,394.43927659630714 L 338.37785252292474,400.98436156818184 L 332.5,397.8941916244324 L 326.62214747707526,400.98436156818184 L 327.74471741852426,394.43927659630714 L 322.98943483704846,389.8040216806829 L 329.56107373853763,388.8491066525576 Z" fill="white" transform="rotate(60.0, 332.5, 392.8941916244324)" />
<path d="M 292.70514244191594,399.37776133769626 L 292.70514244191594,399.37776133769626 L 295.6440687033783,405.3326763658215 L 302.2157076048675,406.2875913939468 L 297.46042502339174,410.922846309571 L 298.5829949648407,417.4679312814457 L 292.70514244191594,414.37776133769626 L 286.8272899189912,417.4679312814457 L 287.9498598604402,410.922846309571 L 283.1945772789644,406.2875913939468 L 289.76621618045357,405.3326763658215 Z" fill="white" transform="rotate(75.0, 292.70514244191594, 409.37776133769626)" />
<path d="M 250.0,405.0 L 250.0,405.0 L 252.93892626146237,410.95491502812524 L 259.51056516295154,411.90983005625054 L 254.75528258147577,416.54508497187476 L 255.87785252292474,423.09016994374946 L 250.0,420.0 L 244.12214747707526,423.09016994374946 L 245.24471741852423,416.54508497187476 L 240.48943483704846,411.90983005625054 L 247.06107373853763,410.95491502812524 Z" fill="white" transform="rotate(90.0, 250.0, 415.0)" />
<path d="M 207.2948575580841,399.37776133769626 L 207.2948575580841,399.37776133769626 L 210.23378381954646,405.3326763658215 L 216.80542272103563,406.2875913939468 L 212.05014013955986,410.922846309571 L 213.17271008100883,417.4679312814457 L 207.2948575580841,414.37776133769626 L 201.41700503515935,417.4679312814457 L 202.53957497660832,410.922846309571 L 197.78429239513255,406.2875913939468 L 204.35593129662172,405.3326763658215 Z" fill="white" transform="rotate(105.0, 207.2948575580841, 409.37776133769626)" />
<path d="M 167.50000000000006,382.8941916244324 L 167.50000000000006,382.8941916244324 L 170.43892626146243,388.8491066525576 L 177.0105651629516,389.8040216806829 L 172.25528258147583,394.43927659630714 L 173.3778525229248,400.98436156818184 L 167.50000000000006,397.8941916244324 L 161.62214747707532,400.98436156818184 L 162.7447174185243,394.43927659630714 L 157.98943483704852,389.8040216806829 L 164.5610737385377,388.8491066525576 Z" fill="white" transform="rotate(120.0, 167.50000000000006, 392.8941916244324)" />
<path d="M 133.32738110421968,356.6726188957804 L 133.32738110421968,356.6726188957804 L 136.26630736568205,362.6275339239056 L 142.83794626717122,363.5824489520309 L 138.08266368569545,368.21770386765513 L 139.20523362714442,374.76278883952983 L 133.32738110421968,371.6726188957804 L 127.44952858129496,374.76278883952983 L 128.57209852274391,368.21770386765513 L 123.81681594126815,363.5824489520309 L 130.3884548427573,362.6275339239056 Z" fill="white" transform="rotate(135.0, 133.32738110421968, 366.6726188957804)" />
<path d="M 107.10580837556765,322.50000000000006 L 107.10580837556765,322.50000000000006 L 110.04473463703002,328.4549150281253 L 116.61637353851918,329.4098300562506 L 111.86109095704342,334.0450849718748 L 112.98366089849239,340.5901699437495 L 107.10580837556765,337.50000000000006 L 101.22795585264292,340.5901699437495 L 102.35052579409188,334.0450849718748 L 97.59524321261611,329.4098300562506 L 104.16688211410528,328.4549150281253 Z" fill="white" transform="rotate(150.0, 107.10580837556765, 332.50000000000006)" />
<path d="M 107.10580837556759,157.50000000000006 L 107.10580837556759,157.50000000000006 L 110.04473463702996,163.45491502812533 L 116.61637353851913,164.40983005625057 L 111.86109095704336,169.0450849718748 L 112.98366089849233,175.59016994374952 L 107.10580837556759,172.50000000000006 L 101.22795585264286,175.59016994374954 L 102.35052579409182,169.0450849718748 L 97.59524321261605,164.4098300562506 L 104.16688211410522,163.45491502812533 Z" fill="white" transform="rotate(210.0, 107.10580837556759, 167.50000000000006)" />
<path d="M 133.3273811042196,123.32738110421974 L 133.3273811042196,123.32738110421974 L 136.26630736568197,129.282296132345 L 142.83794626717113,130.23721116047025 L 138.08266368569537,134.87246607609447 L 139.20523362714434,141.4175510479692 L 133.3273811042196,138.32738110421974 L 127.44952858129487,141.41755104796923 L 128.57209852274383,134.87246607609447 L 123.81681594126806,130.23721116047028 L 130.38845484275723,129.282296132345 Z" fill="white" transform="rotate(225.0, 133.3273811042196, 133.32738110421974)" />
<path d="M 167.49999999999994,97.10580837556768 L 167.49999999999994,97.10580837556768 L 170.4389262614623,103.06072340369293 L 177.01056516295148,104.0156384318182 L 172.2552825814757,108.6508933474424 L 173.37785252292468,115.19597831931715 L 167.49999999999994,112.10580837556768 L 161.6221474770752,115.19597831931715 L 162.74471741852417,108.65089334744242 L 157.9894348370484,104.0156384318182 L 164.56107373853757,103.06072340369295 Z" fill="white" transform="rotate(240.0, 167.49999999999994, 107.10580837556768)" />
<path d="M 207.29485755808395,80.62223866230377 L 207.29485755808395,80.62223866230377 L 210.23378381954632,86.57715369042903 L 216.80542272103548,87.5320687185543 L 212.05014013955972,92.1673236341785 L 213.1727100810087,98.71240860605324 L 207.29485755808395,95.62223866230377 L 201.4170050351592,98.71240860605324 L 202.53957497660818,92.16732363417852 L 197.7842923951324,87.5320687185543 L 204.35593129662158,86.57715369042904 Z" fill="white" transform="rotate(255.0, 207.29485755808395, 90.62223866230377)" />
<path d="M 249.99999999999997,75.0 L 249.99999999999997,75.0 L 252.93892626146234,80.95491502812526 L 259.5105651629515,81.90983005625053 L 254.75528258147574,86.54508497187473 L 255.8778525229247,93.09016994374947 L 249.99999999999997,90.0 L 244.12214747707523,93.09016994374947 L 245.2447174185242,86.54508497187474 L 240.48943483704844,81.90983005625053 L 247.0610737385376,80.95491502812527 Z" fill="white" transform="rotate(270.0, 249.99999999999997, 85.0)" />
<path d="M 292.7051424419158,80.62223866230372 L 292.7051424419158,80.62223866230372 L 295.6440687033782,86.57715369042897 L 302.21570760486736,87.53206871855424 L 297.4604250233916,92.16732363417844 L 298.58299496484057,98.71240860605319 L 292.7051424419158,95.62223866230372 L 286.8272899189911,98.71240860605319 L 287.9498598604401,92.16732363417846 L 283.1945772789643,87.53206871855424 L 289.76621618045345,86.57715369042899 Z" fill="white" transform="rotate(285.0, 292.7051424419158, 90.62223866230372)" />
<path d="M 332.4999999999999,97.10580837556756 L 332.4999999999999,97.10580837556756 L 335.43892626146226,103.06072340369282 L 342.0105651629514,104.01563843181809 L 337.2552825814756,108.65089334744229 L 338.3778525229246,115.19597831931704 L 332.4999999999999,112.10580837556756 L 326.62214747707515,115.19597831931704 L 327.74471741852415,108.6508933474423 L 322.98943483704835,104.01563843181809 L 329.5610737385375,103.06072340369283 Z" fill="white" transform="rotate(300.0, 332.4999999999999, 107.10580837556756)" />
<path d="M 366.6726188957803,123.32738110421963 L 366.6726188957803,123.32738110421963 L 369.6115451572427,129.2822961323449 L 376.18318405873185,130.23721116047014 L 371.4279014772561,134.87246607609436 L 372.55047141870506,141.41755104796908 L 366.6726188957803,138.32738110421963 L 360.7947663728556,141.4175510479691 L 361.9173363143046,134.87246607609436 L 357.1620537328288,130.23721116047017 L 363.73369263431795,129.2822961323449 Z" fill="white" transform="rotate(315.0, 366.6726188957803, 133.32738110421963)" />
<path d="M 392.8941916244323,157.49999999999994 L 392.8941916244323,157.49999999999994 L 395.8331178858947,163.4549150281252 L 402.40475678738386,164.40983005625046 L 397.64947420590806,169.04508497187467 L 398.77204414735706,175.5901699437494 L 392.8941916244323,172.49999999999994 L 387.0163391015076,175.59016994374943 L 388.1389090429566,169.04508497187467 L 383.3836264614808,164.40983005625048 L 389.95526536296995,163.4549150281252 Z" fill="white" transform="rotate(330.0, 392.8941916244323, 167.49999999999994)" />
<path d="M 389.38603310456733,279.6274159415307 A 142.5,142.5 0 0,1 110.6139668954327,279.6274159415307" fill="transparent" stroke-width="6" stroke="white" />
<path d="M 110.6139668954327,220.37258405846933 A 142.5,142.5 0 0,1 389.38603310456733,220.37258405846922" fill="transparent" stroke-width="6" stroke="white" />
<line x1="65.34854631021099" y1="217.44096668745055" x2="434.65145368978904" y2="217.44096668745055" stroke-width="6" stroke="white" />
<line x1="65.34854631021099" y1="282.55903331254945" x2="434.65145368978904" y2="282.55903331254945" stroke-width="6" stroke="white" />

<g transform="translate(83,226.5) scale(0.6)">
<path stroke="black" fill="white" d="M26.51 4.79L26.51 4.79L26.51 10.40Q23.49 11.23 21.90 12.96Q20.31 14.70 20.31 17.24L20.31 17.24Q20.31 19.68 21.63 21.51Q22.95 23.34 25.93 25L25.93 25Q27.98 26.12 35.21 29.30L35.21 29.30Q39.60 31.20 42.02 32.74Q44.43 34.28 46.58 36.57L46.58 36.57Q52.34 42.63 52.34 50.98L52.34 50.98Q52.34 57.28 49.22 62.50Q46.09 67.72 40.63 70.70L40.63 70.70Q37.70 72.27 34.20 73.17Q30.71 74.07 27.69 74.07L27.69 74.07L27.69 68.51Q31.93 67.48 33.81 65.65Q35.69 63.82 35.69 60.69L35.69 60.69Q35.69 57.42 32.76 54.93L32.76 54.93Q30.81 53.32 25.34 50.93L25.34 50.93Q19.34 48.29 17.11 47.17Q14.89 46.04 12.84 44.53L12.84 44.53Q3.66 37.99 3.66 27.10L3.66 27.10Q3.66 21.53 5.96 16.82Q8.25 12.11 12.35 9.23L12.35 9.23Q18.07 5.22 26.51 4.79ZM30.37 10.40L30.37 10.40L30.37 5.03Q33.30 5.22 35.45 5.79Q37.60 6.35 41.55 8.01L41.55 8.01Q42.53 8.40 43.16 8.40L43.16 8.40Q44.09 8.40 44.53 7.76L44.53 7.76L45.61 6.35Q46.39 5.27 47.51 5.27L47.51 5.27Q48.83 5.27 49.44 6.23Q50.05 7.18 50.05 9.23L50.05 9.23L50.05 25.34Q50.05 26.76 49.24 27.66Q48.44 28.56 47.17 28.56L47.17 28.56Q46.19 28.56 45.36 27.93L45.36 27.93Q44.92 27.54 44.65 26.98Q44.38 26.42 44.14 25.10L44.14 25.10Q43.60 22.71 42.29 20.17Q40.97 17.63 39.21 15.63L39.21 15.63Q35.69 11.67 30.37 10.40ZM23.97 68.51L23.97 68.51L23.97 74.07Q19.97 74.07 15.14 71.78L15.14 71.78Q13.33 70.95 12.65 70.70Q11.96 70.46 11.33 70.46L11.33 70.46Q10.35 70.46 9.86 70.78Q9.38 71.09 8.30 72.36L8.30 72.36Q7.42 73.44 6.40 73.44L6.40 73.44Q3.66 73.44 3.66 69.24L3.66 69.24L3.66 51.46Q3.66 50.10 4.44 49.15Q5.22 48.19 6.40 48.14L6.40 48.14Q7.47 48.10 8.08 48.75Q8.69 49.41 9.13 51.07L9.13 51.07Q10.25 55.27 12.38 58.94Q14.50 62.60 17.33 65.14L17.33 65.14Q20.21 67.77 23.97 68.51Z"></path>
<path stroke="black" fill="white" d="M74.80 6.10L96.48 6.10L96.48 63.48Q96.48 65.38 97.22 66.21L97.22 66.21Q97.61 66.70 97.95 66.82Q98.29 66.94 100.20 67.43L100.20 67.43Q102.54 67.97 102.54 70.12L102.54 70.12Q102.54 71.39 101.27 72.17L101.27 72.17Q100.34 72.75 98.14 72.75L98.14 72.75L96.53 72.75L74.76 72.75L73.14 72.75Q71.00 72.75 69.90 72.09Q68.80 71.44 68.80 70.12L68.80 70.12Q68.80 67.97 71.14 67.43L71.14 67.43Q73.05 66.94 73.39 66.82Q73.73 66.70 74.07 66.21L74.07 66.21Q74.80 65.38 74.80 63.48L74.80 63.48L74.80 6.10ZM100.54 6.10L113.38 6.10L113.38 26.07Q113.38 27.49 112.57 28.37Q111.77 29.25 110.50 29.25L110.50 29.25Q109.28 29.25 108.47 28.44Q107.67 27.64 107.42 26.22L107.42 26.22L106.93 23.24Q106.20 18.70 104.10 15.38L104.10 15.38Q102.78 13.33 100.54 12.01L100.54 12.01L100.54 6.10ZM58.01 26.07L58.01 6.10L70.85 6.10L70.85 12.01Q68.55 13.33 67.29 15.38L67.29 15.38Q65.19 18.70 64.45 23.24L64.45 23.24L63.96 26.22Q63.72 27.64 62.92 28.44Q62.11 29.25 60.89 29.25L60.89 29.25Q59.62 29.25 58.81 28.37Q58.01 27.49 58.01 26.07L58.01 26.07Z"></path>
<path stroke="black" fill="white" d="M137.74 10.89L138.96 6.10L158.64 6.10L172.22 63.48Q172.61 64.99 173.10 66.16L173.10 66.16Q173.54 67.09 175.05 67.68L175.05 67.68Q176.32 68.21 176.81 68.75Q177.29 69.29 177.29 70.21L177.29 70.21Q177.29 72.75 173.49 72.75L173.49 72.75L149.12 72.75Q147.66 72.75 146.78 72.05Q145.90 71.34 145.90 70.17L145.90 70.17Q145.90 69.19 146.29 68.70Q146.68 68.21 148.05 67.48L148.05 67.48Q149.02 66.99 149.41 66.41Q149.80 65.82 149.80 64.94L149.80 64.94Q149.80 64.11 149.66 63.48L149.66 63.48L148.10 56.40L134.47 56.40L135.79 50.59L146.73 50.59L137.74 10.89ZM124.56 58.74L135.60 18.51L138.09 28.61L129.44 60.16Q129.05 61.52 129.05 62.70L129.05 62.70Q129.05 65.77 131.93 67.09L131.93 67.09L133.64 67.87Q135.25 68.60 135.25 70.31L135.25 70.31Q135.25 72.75 131.69 72.75L131.69 72.75L119.29 72.75Q117.48 72.75 116.43 72.00Q115.38 71.24 115.38 69.92L115.38 69.92Q115.38 68.51 117.53 67.58L117.53 67.58Q119.53 66.70 120.48 65.99Q121.44 65.28 122.31 64.06L122.31 64.06Q123.68 62.06 124.56 58.74L124.56 58.74Z"></path>
<path stroke="black" fill="white" d="M210.30 72.75L209.03 72.75L187.26 72.75L185.99 72.75Q184.23 72.75 183.28 72.09Q182.32 71.44 182.32 70.21L182.32 70.21Q182.32 68.21 184.28 67.58L184.28 67.58Q185.89 67.04 186.16 66.92Q186.43 66.80 186.72 66.36L186.72 66.36Q187.30 65.58 187.30 63.87L187.30 63.87L187.30 14.99Q187.30 13.28 186.72 12.50L186.72 12.50Q186.43 12.06 186.16 11.94Q185.89 11.82 184.28 11.28L184.28 11.28Q182.32 10.64 182.32 8.64L182.32 8.64Q182.32 7.42 183.28 6.76Q184.23 6.10 185.99 6.10L185.99 6.10L187.26 6.10L209.03 6.10L210.30 6.10Q212.06 6.10 213.01 6.76Q213.96 7.42 213.96 8.64L213.96 8.64Q213.96 10.64 212.01 11.28L212.01 11.28Q210.40 11.82 210.13 11.94Q209.86 12.06 209.57 12.50L209.57 12.50Q208.98 13.28 208.98 14.99L208.98 14.99L208.98 63.87Q208.98 66.60 210.40 67.09L210.40 67.09L211.91 67.58Q213.77 68.16 213.77 70.21L213.77 70.21Q213.77 72.75 210.30 72.75L210.30 72.75ZM231.74 20.80L228.37 25.44L243.12 64.01Q243.70 65.58 244.34 66.38Q244.97 67.19 246.00 67.63L246.00 67.63Q247.02 68.12 247.31 68.36L247.31 68.36Q248.00 69.04 248.00 70.17L248.00 70.17Q248.00 72.75 244.34 72.75L244.34 72.75L219.78 72.75Q218.02 72.75 217.07 72.02Q216.11 71.29 216.11 69.92L216.11 69.92Q216.11 68.36 217.92 67.48L217.92 67.48Q219.04 66.94 219.43 66.58Q219.82 66.21 219.87 65.58L219.87 65.58Q219.87 65.23 219.48 64.01L219.48 64.01L213.23 45.36Q212.35 42.77 212.35 40.97L212.35 40.97Q212.35 39.26 213.77 37.26L213.77 37.26L225.44 20.80Q227.10 18.51 227.10 16.02L227.10 16.02Q227.10 14.65 226.37 13.48Q225.63 12.30 224.41 11.82L224.41 11.82L222.66 11.08Q221.00 10.40 221.00 8.79L221.00 8.79Q221.00 7.47 222.02 6.64L222.02 6.64Q222.71 6.10 224.27 6.10L224.27 6.10L241.65 6.10Q243.36 6.10 244.31 6.86Q245.26 7.62 245.26 8.98L245.26 8.98Q245.26 11.04 243.02 11.91L243.02 11.91L240.43 12.94Q238.82 13.53 236.33 15.58L236.33 15.58Q234.47 17.14 231.74 20.80L231.74 20.80Z"></path>
<path stroke="black" fill="white" d="M259.62 6.10L281.35 6.10L281.35 72.75L259.62 72.75L258.35 72.75Q256.59 72.75 255.64 72.09Q254.69 71.44 254.69 70.21L254.69 70.21Q254.69 68.21 256.64 67.58L256.64 67.58Q258.25 67.04 258.52 66.92Q258.79 66.80 259.08 66.36L259.08 66.36Q259.67 65.58 259.67 63.87L259.67 63.87L259.67 14.99Q259.67 13.28 259.08 12.50L259.08 12.50Q258.79 12.06 258.52 11.94Q258.25 11.82 256.64 11.28L256.64 11.28Q254.69 10.64 254.69 8.64L254.69 8.64Q254.69 7.42 255.64 6.76Q256.59 6.10 258.35 6.10L258.35 6.10L259.62 6.10ZM285.69 11.82L285.69 6.10L305.37 6.10L305.37 23.39Q305.37 24.90 304.79 25.59Q304.20 26.27 302.93 26.27L302.93 26.27Q301.86 26.27 301.37 25.83Q300.88 25.39 300.44 24.02L300.44 24.02Q298.58 18.36 295.00 15.38Q291.41 12.40 285.69 11.82L285.69 11.82ZM285.45 41.65L285.45 41.65L285.45 35.99Q288.28 34.62 289.65 33.01Q291.02 31.40 291.65 28.71L291.65 28.71Q292.04 26.86 292.68 26.15Q293.31 25.44 294.48 25.44L294.48 25.44Q296.04 25.44 296.63 26.66L296.63 26.66Q296.97 27.29 296.97 29.54L296.97 29.54L296.97 48.14Q296.97 50.44 296.46 51.32Q295.95 52.20 294.58 52.20L294.58 52.20Q293.46 52.20 292.82 51.51Q292.19 50.83 291.80 49.22L291.80 49.22Q290.97 45.85 289.43 44.04Q287.89 42.24 285.45 41.65ZM306.05 72.75L285.74 72.75L285.74 67.48Q288.92 66.99 290.99 66.11Q293.07 65.23 295.17 63.43L295.17 63.43Q297.27 61.62 298.51 59.69Q299.76 57.76 300.88 54.59L300.88 54.59Q301.42 53.03 302.00 52.47Q302.59 51.90 303.61 51.90L303.61 51.90Q304.98 51.90 305.52 52.71Q306.05 53.52 306.05 55.52L306.05 55.52L306.05 72.75Z"></path>
<path stroke="black" fill="white" d="M339.11 4.74L340.23 4.79L340.23 10.69Q337.35 11.13 335.94 13.23Q334.52 15.33 334.52 19.24L334.52 19.24L334.52 59.57L334.52 61.67Q334.52 62.79 334.99 64.04Q335.45 65.28 336.18 66.16L336.18 66.16Q336.96 67.14 337.84 67.55Q338.72 67.97 340.23 68.12L340.23 68.12L340.23 74.07Q330.76 74.07 323.78 69.14L323.78 69.14Q317.63 64.79 314.50 57.45Q311.38 50.10 311.38 40.04L311.38 40.04Q311.38 32.67 313.40 26.29Q315.43 19.92 319.29 15.23L319.29 15.23Q323.19 10.50 328.64 7.62Q334.08 4.74 339.11 4.74L339.11 4.74ZM344.09 10.74L344.09 10.74L344.09 4.83Q346.48 5.22 347.97 5.66Q349.46 6.10 353.37 7.52L353.37 7.52Q355.86 8.40 356.69 8.40L356.69 8.40Q358.11 8.40 358.84 7.13L358.84 7.13L359.47 5.96Q360.06 4.79 361.67 4.79L361.67 4.79Q362.99 4.79 363.70 5.57Q364.40 6.35 364.40 7.86L364.40 7.86L364.40 28.17Q364.40 30.13 363.53 31.01L363.53 31.01Q362.65 31.88 361.52 31.88L361.52 31.88Q360.35 31.88 359.64 31.13Q358.94 30.37 358.50 28.66L358.50 28.66Q357.47 24.80 356.49 22.61L356.49 22.61Q354.39 17.97 351.71 15.09L351.71 15.09Q349.90 13.13 348.10 12.08Q346.29 11.04 344.09 10.74ZM344.24 74.07L344.24 74.07L344.24 68.12Q348.05 67.82 352.25 65.23L352.25 65.23Q354.49 63.82 356.25 61.45Q358.01 59.08 358.89 56.25L358.89 56.25Q359.38 54.69 360.03 54.03Q360.69 53.37 361.77 53.37L361.77 53.37Q362.94 53.37 363.72 54.25Q364.50 55.13 364.50 56.45L364.50 56.45Q364.50 58.64 362.82 61.77Q361.13 64.89 358.50 67.53L358.50 67.53Q355.27 70.75 351.88 72.31Q348.49 73.88 344.24 74.07Z"></path>
<path stroke="black" fill="white" d="M397.51 4.79L397.51 10.06Q395.02 10.94 393.99 12.45Q392.97 13.96 392.97 16.89L392.97 16.89L392.97 60.55Q392.97 64.84 394.14 66.60L394.14 66.60Q395.07 68.07 397.51 68.70L397.51 68.70L397.51 74.07Q386.67 73.19 379.35 65.92L379.35 65.92Q369.82 56.45 369.82 39.50L369.82 39.50Q369.82 31.01 372.34 24.15Q374.85 17.29 379.79 12.50L379.79 12.50Q383.54 8.84 387.89 6.93Q392.24 5.03 397.51 4.79L397.51 4.79ZM401.51 10.06L401.51 10.06L401.51 4.79Q406.79 5.03 411.16 6.93Q415.53 8.84 419.29 12.50L419.29 12.50Q429.25 22.22 429.25 39.50L429.25 39.50Q429.25 56.45 419.73 65.92L419.73 65.92Q412.40 73.24 401.51 74.07L401.51 74.07L401.51 68.70Q402.78 68.41 403.49 67.94Q404.20 67.48 404.79 66.60L404.79 66.60Q406.10 64.60 406.10 60.55L406.10 60.55L406.10 16.89Q406.10 14.31 405.22 12.79L405.22 12.79Q404.64 11.77 403.83 11.18Q403.03 10.60 401.51 10.06Z"></path>
<path stroke="black" fill="white" d="M440.19 6.10L461.91 6.10L461.91 63.48Q461.91 65.38 462.65 66.21L462.65 66.21Q463.04 66.70 463.38 66.82Q463.72 66.94 465.63 67.43L465.63 67.43Q467.97 67.97 467.97 70.12L467.97 70.12Q467.97 71.39 466.70 72.17L466.70 72.17Q465.77 72.75 463.62 72.75L463.62 72.75L461.96 72.75L440.19 72.75L438.92 72.75Q437.16 72.75 436.21 72.09Q435.25 71.44 435.25 70.21L435.25 70.21Q435.25 68.21 437.21 67.58L437.21 67.58Q438.82 67.04 439.09 66.92Q439.36 66.80 439.65 66.36L439.65 66.36Q440.23 65.58 440.23 63.87L440.23 63.87L440.23 14.99Q440.23 13.28 439.65 12.50L439.65 12.50Q439.36 12.06 439.09 11.94Q438.82 11.82 437.21 11.28L437.21 11.28Q435.25 10.64 435.25 8.64L435.25 8.64Q435.25 7.42 436.21 6.76Q437.16 6.10 438.92 6.10L438.92 6.10L440.19 6.10ZM476.90 40.09L476.90 40.09Q481.40 40.77 483.81 41.60Q486.23 42.43 488.18 43.85L488.18 43.85Q490.23 45.36 491.33 47.46Q492.43 49.56 492.43 51.90L492.43 51.90L492.43 62.01Q492.43 63.57 493.46 63.57L493.46 63.57Q493.85 63.57 494.12 63.35Q494.38 63.13 494.87 62.50L494.87 62.50Q496.09 60.84 497.36 60.84L497.36 60.84Q498.19 60.84 499.02 61.72Q499.85 62.60 499.85 63.48L499.85 63.48Q499.85 64.99 498.41 67.16Q496.97 69.34 494.82 71.04L494.82 71.04Q492.82 72.66 490.48 73.36Q488.13 74.07 484.96 74.07L484.96 74.07Q478.52 74.07 474.90 70.39Q471.29 66.70 471.29 60.11L471.29 60.11L471.29 51.90Q471.29 49.17 471.24 48.73L471.24 48.73Q471.00 46.78 469.87 45.36L469.87 45.36Q468.46 43.65 465.82 43.36L465.82 43.36L465.82 38.13Q468.46 37.74 469.58 36.77L469.58 36.77Q470.56 35.89 470.92 34.77Q471.29 33.64 471.29 31.45L471.29 31.45L471.29 18.51Q471.29 15.43 470.09 13.92Q468.90 12.40 465.77 11.52L465.77 11.52L465.77 6.10L467.04 6.10Q472.46 6.10 476.27 6.49L476.27 6.49Q481.93 7.03 486.38 10.21L486.38 10.21Q492.77 14.75 492.77 23.14L492.77 23.14Q492.77 30.03 488.48 34.42L488.48 34.42Q486.67 36.28 484.25 37.45Q481.84 38.62 476.90 40.09Z"></path>
<path stroke="black" fill="white" d="M510.11 6.10L531.84 6.10L531.84 72.75L510.11 72.75L508.84 72.75Q507.08 72.75 506.13 72.09Q505.18 71.44 505.18 70.21L505.18 70.21Q505.18 68.21 507.13 67.58L507.13 67.58Q508.74 67.04 509.01 66.92Q509.28 66.80 509.57 66.36L509.57 66.36Q510.16 65.58 510.16 63.87L510.16 63.87L510.16 14.99Q510.16 13.28 509.57 12.50L509.57 12.50Q509.28 12.06 509.01 11.94Q508.74 11.82 507.13 11.28L507.13 11.28Q505.18 10.64 505.18 8.64L505.18 8.64Q505.18 7.42 506.13 6.76Q507.08 6.10 508.84 6.10L508.84 6.10L510.11 6.10ZM536.18 11.82L536.18 6.10L555.86 6.10L555.86 23.39Q555.86 24.90 555.27 25.59Q554.69 26.27 553.42 26.27L553.42 26.27Q552.34 26.27 551.86 25.83Q551.37 25.39 550.93 24.02L550.93 24.02Q549.07 18.36 545.48 15.38Q541.89 12.40 536.18 11.82L536.18 11.82ZM535.94 41.65L535.94 41.65L535.94 35.99Q538.77 34.62 540.14 33.01Q541.50 31.40 542.14 28.71L542.14 28.71Q542.53 26.86 543.16 26.15Q543.80 25.44 544.97 25.44L544.97 25.44Q546.53 25.44 547.12 26.66L547.12 26.66Q547.46 27.29 547.46 29.54L547.46 29.54L547.46 48.14Q547.46 50.44 546.95 51.32Q546.44 52.20 545.07 52.20L545.07 52.20Q543.95 52.20 543.31 51.51Q542.68 50.83 542.29 49.22L542.29 49.22Q541.46 45.85 539.92 44.04Q538.38 42.24 535.94 41.65ZM556.54 72.75L536.23 72.75L536.23 67.48Q539.40 66.99 541.48 66.11Q543.55 65.23 545.65 63.43L545.65 63.43Q547.75 61.62 549.00 59.69Q550.24 57.76 551.37 54.59L551.37 54.59Q551.90 53.03 552.49 52.47Q553.08 51.90 554.10 51.90L554.10 51.90Q555.47 51.90 556.01 52.71Q556.54 53.52 556.54 55.52L556.54 55.52L556.54 72.75Z"></path>
</g>
</svg>
