<?xml version="1.0" encoding="UTF-8"?>
<svg version="1.1" xmlns="http://www.w3.org/2000/svg" width="1350" height="1080">
<path d="M0 0 C8.06391071 5.02587923 12.80988701 16.27262771 17.12890625 24.3984375 C21.90951363 33.333477 27.07302932 42.06394259 32.35864258 50.70800781 C34.50484024 54.24315697 36.52750919 57.8275057 38.49609375 61.46484375 C41.86911348 67.69150635 45.42924603 73.8025732 48.9921875 79.921875 C73.62873448 122.54600397 73.62873448 122.54600397 67.765625 146.63671875 C65.84097327 153.22247065 62.91743723 159.17910257 59.203125 164.9296875 C57.63079764 167.37284232 56.24173238 169.86263951 54.8671875 172.421875 C52.4339916 176.9280274 49.94665947 181.39974446 47.4296875 185.859375 C44.13416248 191.70004212 40.86676928 197.55552802 37.6171875 203.421875 C33.9327304 210.06996352 30.19188655 216.68250852 26.40625 223.2734375 C24.99306711 225.74810618 23.60865729 228.23382824 22.2421875 230.734375 C19.54881362 235.63057701 16.63153854 240.39351693 13.71313477 245.15795898 C12.07659906 247.85172263 10.68012679 250.29555712 9.6796875 253.296875 C9.0196875 253.296875 8.3596875 253.296875 7.6796875 253.296875 C7.58042969 253.82796875 7.48117187 254.3590625 7.37890625 254.90625 C4.04439848 266.30691345 -4.23451765 277.40584903 -10.21948242 287.55566406 C-13.53316402 293.18346298 -16.74355944 298.85031651 -19.85058594 304.59472656 C-22.30636525 309.10977065 -24.84674791 313.5765839 -27.3828125 318.046875 C-30.86246621 324.182545 -34.33798483 330.31990871 -37.7734375 336.48046875 C-60.52477196 377.2058168 -60.52477196 377.2058168 -83.73022461 384.34609985 C-89.33532444 385.71128549 -94.92796531 385.5919786 -100.66796875 385.58740234 C-102.49387039 385.59747818 -102.49387039 385.59747818 -104.35665894 385.60775757 C-107.67487526 385.62343505 -110.99284121 385.63010856 -114.31107712 385.63138914 C-116.38831388 385.63281628 -118.46552481 385.63709634 -120.54275513 385.64238358 C-127.80098117 385.66084706 -135.05913406 385.66905832 -142.31738281 385.66748047 C-149.06580627 385.66627821 -155.81391036 385.68740625 -162.562253 385.7189678 C-168.37312214 385.74516927 -174.18388715 385.75584624 -179.99481487 385.75456965 C-183.45809381 385.7540614 -186.92108819 385.75966893 -190.38430786 385.78092575 C-194.2472164 385.80399277 -198.10969017 385.79476354 -201.97265625 385.78271484 C-203.10951874 385.79395386 -204.24638123 385.80519287 -205.41769409 385.81677246 C-212.7197114 385.7589626 -218.38168229 384.79043385 -223.9627533 379.84003258 C-227.29032073 376.36393006 -227.81815994 372.54716481 -228.1328125 367.859375 C-227.755062 356.79836831 -221.4653684 347.24315572 -215.52734375 338.20703125 C-214.02934551 335.83641268 -212.71183634 333.39104332 -211.3828125 330.921875 C-209.44470032 327.32323193 -207.44356576 323.78943257 -205.3203125 320.296875 C-203.29566735 316.96384738 -201.36333034 313.59973849 -199.50390625 310.171875 C-198.9816748 309.21023438 -198.45944336 308.24859375 -197.92138672 307.2578125 C-196.39704096 304.43877235 -194.87572804 301.61812056 -193.35546875 298.796875 C-188.74567501 290.2567702 -184.16302182 281.80638888 -178.81640625 273.703125 C-177.19468583 271.09482271 -175.84842253 268.43479428 -174.5078125 265.671875 C-170.96140289 258.38151041 -166.80598568 251.48370831 -162.65234375 244.52880859 C-157.29646689 235.55457358 -151.9534146 226.58359834 -147.015625 217.37109375 C-144.66918307 213.1161403 -142.20772966 208.93036348 -139.7578125 204.734375 C-136.04289228 198.36407166 -132.43405462 191.98884011 -129.3203125 185.296875 C-128.6603125 185.296875 -128.0003125 185.296875 -127.3203125 185.296875 C-127.22492188 184.58402344 -127.12953125 183.87117187 -127.03125 183.13671875 C-126.20451157 179.83430755 -124.84114624 177.67912772 -122.9453125 174.859375 C-120.46254081 171.08233896 -118.30787842 167.35842275 -116.3203125 163.296875 C-115.39350806 161.72800725 -114.45462612 160.16624894 -113.5078125 158.609375 C-110.87097355 154.25988331 -108.40994637 149.84128768 -105.9921875 145.3671875 C-101.54517681 137.20048095 -96.92279935 129.12832568 -92.34375 121.03515625 C-91.82184082 120.11259033 -91.29993164 119.19002441 -90.76220703 118.23950195 C-89.66445318 116.29910606 -88.56646667 114.35884178 -87.46826172 112.41870117 C-84.58676391 107.32357216 -81.71672999 102.22245237 -78.8671875 97.109375 C-73.15599393 86.86293987 -67.3932908 76.65801656 -61.4453125 66.546875 C-55.37439301 56.22605283 -49.56008422 45.77630619 -43.82470703 35.26660156 C-38.79980973 26.07975891 -33.63395901 17.03168425 -27.7578125 8.359375 C-27.03464844 7.27785156 -26.31148437 6.19632812 -25.56640625 5.08203125 C-19.52709688 -2.40671236 -8.85138107 -2.68223669 0 0 Z " fill="#FFFFFF" transform="translate(684.3203125,276.703125)"/>
<path d="M0 0 C0.71244873 0 1.42489746 0 2.15893555 0 C6.91610064 0.18153407 9.50337797 1.0928842 13.0625 4.1875 C17.82830567 8.19695767 21.93289357 8.375 27.9375 8.375 C29.15046753 8.38466797 29.15046753 8.38466797 30.38793945 8.39453125 C34.462779 8.27383252 37.35520821 7.87301518 40.82421875 5.66796875 C44.97785893 3.26671952 47.69950522 3.14457108 52.375 3.3125 C53.06464844 3.31378906 53.75429688 3.31507813 54.46484375 3.31640625 C58.47451867 3.38540639 61.64056605 3.93193874 65.25 5.6875 C65.25 6.3475 65.25 7.0075 65.25 7.6875 C66.425625 8.05875 66.425625 8.05875 67.625 8.4375 C70.25 9.6875 70.25 9.6875 71.1574707 11.70947266 C72.0549354 13.84838183 72.0549354 13.84838183 74.11010742 14.35693359 C74.85107666 14.43250488 75.5920459 14.50807617 76.35546875 14.5859375 C77.17466797 14.67230469 77.99386719 14.75867188 78.83789062 14.84765625 C79.69576172 14.91855469 80.55363281 14.98945313 81.4375 15.0625 C82.27603516 15.15660156 83.11457031 15.25070313 83.97851562 15.34765625 C89.26350686 15.85098875 93.14550969 15.35227382 98.25 13.6875 C105.68498408 12.86245661 112.11484216 13.14537671 118.25 17.6875 C124.46416235 23.1158247 124.46416235 23.1158247 126.25 26.6875 C135.11765812 31.33984846 143.26594742 32.21649417 153.14379883 31.59033203 C160.09228674 31.25551536 164.93595445 32.88527616 170.2734375 37.3984375 C172.63432881 40.30519963 174.15032141 42.37673733 175.3125 46 C175.621875 46.886875 175.93125 47.77375 176.25 48.6875 C177.89115769 49.41470263 179.5633712 50.07308522 181.25 50.6875 C182.81607748 51.55608079 184.37852787 52.43122981 185.9375 53.3125 C190.49964402 55.64081315 193.63656615 55.88680087 198.6640625 55.6171875 C204.8027682 55.78410095 210.46633985 58.24539179 215.1875 62.0625 C223.25 72.32386364 223.25 72.32386364 223.25 78.6875 C224.095625 78.89375 224.94125 79.1 225.8125 79.3125 C229.08581715 80.62182686 229.94943545 81.28741993 232.25 83.6875 C235.68409651 86.86976276 238.52089164 87.18439178 243.125 87.625 C251.74085593 88.53241461 255.96937027 92.06154082 261.625 98.3125 C263.7351425 102.69510366 264.51477881 107.08188313 265.34375 111.859375 C265.94639391 114.77744744 265.94639391 114.77744744 268.140625 115.890625 C268.83671875 116.15359375 269.5328125 116.4165625 270.25 116.6875 C271.953125 118.125 271.953125 118.125 273.5 119.6875 C274.02078125 120.203125 274.5415625 120.71875 275.078125 121.25 C276.25 122.6875 276.25 122.6875 276.25 124.6875 C277.36375 124.72875 278.4775 124.77 279.625 124.8125 C285.92682513 125.61841725 291.5805012 128.85621339 295.92578125 133.46484375 C298.67950308 137.17708822 301.22508078 141.04107874 301.26953125 145.76171875 C301.4169449 154.08388919 305.3395327 160.96457055 311.25 166.6875 C314.38579938 168.68197458 317.39368217 170.17123258 320.84375 171.5390625 C321.6378125 171.91804687 322.431875 172.29703125 323.25 172.6875 C323.58 173.6775 323.91 174.6675 324.25 175.6875 C324.91 175.6875 325.57 175.6875 326.25 175.6875 C326.25 176.3475 326.25 177.0075 326.25 177.6875 C326.91 177.6875 327.57 177.6875 328.25 177.6875 C330.771588 182.83021237 331.52349367 186.42944446 331.5 192.25 C331.78425259 200.89087405 334.05276182 207.66748944 339.25 214.6875 C341.75050902 216.67793586 344.15640644 218.11009304 347.01171875 219.53125 C351.67950157 221.94253048 353.64731288 225.8862586 355.25 230.6875 C355.48046875 233.80859375 355.48046875 233.80859375 355.4375 237.125 C355.43105469 238.21683594 355.42460938 239.30867187 355.41796875 240.43359375 C355.25 243.6875 355.25 243.6875 354.5859375 246.61328125 C354.14683937 250.63153969 355.29557781 253.7378217 356.6875 257.4375 C359.25 264.52005968 359.25 264.52005968 359.25 266.6875 C359.83523438 266.94015625 360.42046875 267.1928125 361.0234375 267.453125 C365.78774352 270.09438939 369.28119509 274.74989018 371.6875 279.5625 C372.75087132 285.47011843 373.18254591 291.05120477 370.6875 296.625 C368.5082795 301.67915459 369.49392299 306.37904354 370.25 311.6875 C370.3428125 313.54375 370.3428125 313.54375 370.4375 315.4375 C371.40869986 319.32229946 373.02954456 321.05996068 375.68359375 323.95703125 C380.81947346 329.63083352 381.93659709 334.11883305 381.72265625 341.671875 C381.23093341 344.80914802 380.39571153 346.56809973 378.75 349.25 C375.9216339 354.21984329 375.689476 358.71544548 375.625 364.3125 C375.60244141 365.11244385 375.57988281 365.9123877 375.55664062 366.73657227 C375.62415119 372.18636233 376.90682466 375.54827929 380.08056641 379.97412109 C383.69196032 385.26530324 382.86902181 392.6026473 382.25 398.6875 C380.97616129 402.01907816 379.36956787 404.82608337 377.25 407.6875 C376.59 407.6875 375.93 407.6875 375.25 407.6875 C374.7148501 410.20603031 374.19670571 412.72620748 373.6875 415.25 C373.53603516 415.95447266 373.38457031 416.65894531 373.22851562 417.38476562 C371.94906067 423.84154995 372.53252692 429.15315717 374.9375 435.3125 C376.87919994 441.65925056 376.26411504 447.41004418 374.25 453.6875 C371.94553316 457.6146721 369.23278995 461.09243383 365.671875 463.95703125 C363.43081181 466.68447904 362.77025798 469.88874234 361.9375 473.25 C361.66715942 474.32918701 361.66715942 474.32918701 361.39135742 475.43017578 C360.23683219 480.5251831 360.29267744 484.31971902 361.71484375 489.38671875 C362.9620455 494.7487759 362.15303421 500.46584744 359.6875 505.375 C356.4896661 510.34159916 351.54768013 513.83659101 347 517.5 C341.81955032 523.9755621 340.05638112 532.39645969 340.375 540.5 C340.39067265 546.89444316 339.91394049 551.70511145 335.55078125 556.58984375 C332.31566996 559.59614559 329.37218391 561.73517519 325.25 563.3125 C319.01053822 566.22260471 315.92013564 572.65712121 313.25 578.6875 C312.45956877 582.30583325 312.01727513 585.81981642 311.6640625 589.50390625 C311.07591179 594.02600839 309.73879001 596.88111528 307.25 600.6875 C305.1171875 601.890625 305.1171875 601.890625 303.25 602.6875 C303.25 603.3475 303.25 604.0075 303.25 604.6875 C299.33106961 606.78438223 295.77996251 608.55718135 291.4375 609.625 C287.48586167 610.94221278 287.16362702 612.10984949 285.25 615.6875 C284.26 616.3475 283.27 617.0075 282.25 617.6875 C278.08388314 620.90398729 278.02993577 625.54433399 277.0859375 630.453125 C275.39600303 636.99174995 270.88328984 642.06609939 265.25 645.6875 C261.40048844 647.49807535 258.01320209 648.63298557 253.75 648.9375 C249.256786 649.90033157 247.18053441 652.03627092 243.94921875 655.19140625 C242.25 656.6875 242.25 656.6875 240.25 656.6875 C240.25 657.3475 240.25 658.0075 240.25 658.6875 C239.59 658.6875 238.93 658.6875 238.25 658.6875 C238.07984375 659.33976563 237.9096875 659.99203125 237.734375 660.6640625 C235.2151866 669.74922066 231.80105878 675.45922468 223.49609375 680.2890625 C219.91480269 681.8319051 217.5585528 681.92434135 213.6875 681.875 C205.42179585 682.29618238 199.47596264 685.27082054 193.25 690.6875 C191.4986729 693.66368014 191.4986729 693.66368014 190.25 696.6875 C186.77401442 702.53085117 182.87776354 706.47824549 176.25 708.6875 C174.26457034 708.62733546 172.27910082 708.56335641 170.29492188 708.47070312 C161.28115319 708.10477548 154.93186891 709.34656555 146.875 713.375 C144.25 714.6875 144.25 714.6875 142.25 714.6875 C142.085 715.368125 141.92 716.04875 141.75 716.75 C139.04898297 722.03949169 133.80023275 726.49795864 128.25 728.6875 C122.4230574 729.65475687 116.61858779 730.35348231 110.9375 728.5 C104.22901761 726.59947309 96.62716026 729.47067762 90.25 731.6875 C89.92 732.3475 89.59 733.0075 89.25 733.6875 C88.59 733.6875 87.93 733.6875 87.25 733.6875 C86.59 735.0075 85.93 736.3275 85.25 737.6875 C84.26 737.6875 83.27 737.6875 82.25 737.6875 C81.92 738.6775 81.59 739.6675 81.25 740.6875 C75.96142039 743.33178981 70.02671613 743.39634951 64.25 742.6875 C62.13671875 741.75390625 62.13671875 741.75390625 60.125 740.625 C53.52374868 737.30054311 45.30269344 738.07637033 38.25 739.6875 C35.43755019 740.98724834 33.29024628 742.34339153 30.9140625 744.3125 C27.16341537 747.41162627 22.6153052 746.94082942 18 747 C17.26136719 747.02900391 16.52273438 747.05800781 15.76171875 747.08789062 C10.08471357 747.15297093 6.96164657 745.84617848 2.25 742.6875 C-1.59955117 740.12113255 -4.84363715 740.30524756 -9.3125 740.3125 C-10.12807373 740.31121094 -10.94364746 740.30992187 -11.78393555 740.30859375 C-17.31158646 740.40552177 -21.32803194 741.36513202 -26.32421875 743.78125 C-31.97264447 745.89145091 -38.55420384 745.65264029 -44.28515625 743.921875 C-48.23065198 742.11740145 -50.01830703 740.74802145 -51.75 736.6875 C-52.41 736.6875 -53.07 736.6875 -53.75 736.6875 C-54.08 736.0275 -54.41 735.3675 -54.75 734.6875 C-57.35635527 734.02833503 -57.35635527 734.02833503 -60.4375 733.625 C-61.47261719 733.46902344 -62.50773437 733.31304688 -63.57421875 733.15234375 C-64.62222656 732.99894531 -65.67023438 732.84554687 -66.75 732.6875 C-67.80832031 732.46191406 -68.86664062 732.23632812 -69.95703125 732.00390625 C-72.9573133 731.35999415 -72.9573133 731.35999415 -75.75 733.6875 C-83.41432638 736.01002315 -91.6788426 735.36577022 -98.75 731.6875 C-102.07400468 729.52303184 -103.82852499 727.55547867 -105.75 724.1875 C-108.86701254 719.47150051 -113.76270482 718.76045728 -118.984375 717.4140625 C-121.75 716.6875 -121.75 716.6875 -122.75 715.6875 C-124.41904717 716.00870152 -126.08521643 716.3448857 -127.75 716.6875 C-135.71422881 717.31679787 -143.01379803 717.41073536 -149.75 712.6875 C-153.19657279 709.46306959 -155.98910977 706.08246542 -158.25 701.9375 C-160.01513422 699.28979867 -162.03117623 698.12689308 -164.8359375 696.6796875 C-166.75 695.6875 -166.75 695.6875 -168.9921875 694.09375 C-172.50960172 692.30016768 -175.64632803 692.33017324 -179.5 692.3125 C-186.31918345 692.11399637 -191.17970251 690.88069617 -196.75 686.6875 C-196.75 686.0275 -196.75 685.3675 -196.75 684.6875 C-197.389375 684.460625 -198.02875 684.23375 -198.6875 684 C-200.75 682.6875 -200.75 682.6875 -201.5 680.0625 C-201.5825 679.27875 -201.665 678.495 -201.75 677.6875 C-202.41 677.6875 -203.07 677.6875 -203.75 677.6875 C-203.94335938 676.63175781 -204.13671875 675.57601562 -204.3359375 674.48828125 C-205.60660984 670.03868703 -208.54660547 668.16958262 -212.375 665.875 C-214.54223375 664.52390807 -216.64754389 663.14145204 -218.75 661.6875 C-218.75 661.0275 -218.75 660.3675 -218.75 659.6875 C-219.719375 659.914375 -220.68875 660.14125 -221.6875 660.375 C-227.85782674 661.23684726 -232.96068623 658.89184581 -238 655.5 C-242.43021015 650.96910325 -245.62030389 646.76704738 -246.375 640.375 C-247.66079761 633.56853009 -253.25369212 628.54297172 -258.75 624.6875 C-262.05210797 623.12253805 -265.32914985 621.93195005 -268.79296875 620.77734375 C-273.93937118 618.88058513 -277.34463907 616.20850129 -280.01953125 611.41015625 C-282.21429424 606.62510761 -283.88942872 602.30808153 -283.8125 597 C-283.80347656 596.19175781 -283.79445313 595.38351562 -283.78515625 594.55078125 C-283.77355469 593.93589844 -283.76195312 593.32101562 -283.75 592.6875 C-284.41 592.6875 -285.07 592.6875 -285.75 592.6875 C-287.5608283 590.25633757 -289.16308538 587.71835804 -290.80078125 585.16796875 C-292.92119993 582.46964037 -294.7421417 581.28801176 -297.75 579.6875 C-310.98691817 571.3167676 -310.98691817 571.3167676 -313.75 562.6875 C-314.05078125 558.92578125 -314.05078125 558.92578125 -314.0625 555 C-314.36698399 546.37128433 -316.41209554 538.74653917 -322.9375 532.640625 C-324.45462857 531.48227683 -325.99759207 530.3568544 -327.56640625 529.26953125 C-332.16679742 525.93651082 -336.44182541 521.31265075 -337.75 515.6875 C-338.05448603 510.94739321 -337.91812266 506.54212351 -337 501.875 C-336.10010148 495.94053406 -338.80457813 490.19952862 -340.75 484.6875 C-341.08 483.6975 -341.41 482.7075 -341.75 481.6875 C-343.48013599 480.01033521 -343.48013599 480.01033521 -345.5625 478.375 C-350.57205354 474.06570663 -353.71415069 470.51594152 -354.625 463.8125 C-354.98508076 458.39492128 -354.20292272 453.59334544 -351.75 448.6875 C-351.27802899 440.0346981 -351.67550263 431.77772437 -357.25 424.8125 C-358.16265625 423.79542969 -358.16265625 423.79542969 -359.09375 422.7578125 C-364.00845058 416.61443678 -363.46123427 409.18027029 -362.75 401.6875 C-361.75324156 398.45453566 -360.47288477 395.59486805 -358.75 392.6875 C-358.09 392.6875 -357.43 392.6875 -356.75 392.6875 C-356.97847897 380.03722759 -356.97847897 380.03722759 -361.875 368.75 C-365.24040879 363.03394309 -365.14772891 355.05113117 -363.75 348.6875 C-361.94434146 345.27236312 -359.83140182 342.2768446 -357.609375 339.12109375 C-355.33826366 334.92717175 -354.81443815 331.51890815 -354.5625 326.8125 C-354.52068604 326.11068604 -354.47887207 325.40887207 -354.43579102 324.68579102 C-354.33456537 319.64906631 -355.77555619 316.23485893 -357.75 311.6875 C-358.11328125 307.86328125 -358.11328125 307.86328125 -358.0625 304 C-358.05863281 302.71738281 -358.05476563 301.43476563 -358.05078125 300.11328125 C-357.77802507 297.00669464 -357.39669449 295.27891164 -355.75 292.6875 C-355.09 292.6875 -354.43 292.6875 -353.75 292.6875 C-353.46125 292.089375 -353.1725 291.49125 -352.875 290.875 C-351.75 288.6875 -351.75 288.6875 -349.75 285.6875 C-349.09 285.6875 -348.43 285.6875 -347.75 285.6875 C-347.75 285.0275 -347.75 284.3675 -347.75 283.6875 C-347.09 283.6875 -346.43 283.6875 -345.75 283.6875 C-343.09960562 273.42141184 -343.09960562 273.42141184 -343.40625 262.9609375 C-344.6549774 254.70230859 -344.60726388 246.74402503 -339.75 239.6875 C-336.23462699 235.86237076 -332.98820653 232.62289402 -327.75 231.6875 C-327.6675 231.0275 -327.585 230.3675 -327.5 229.6875 C-326.81981437 226.9667575 -326.09285427 225.53141241 -324.6875 223.1875 C-322.21621107 218.49205104 -322.62019058 214.29393713 -322.80859375 209.09765625 C-322.71636807 203.73012155 -321.29734347 198.79925969 -319.75 193.6875 C-319.09 193.6875 -318.43 193.6875 -317.75 193.6875 C-317.54375 193.130625 -317.3375 192.57375 -317.125 192 C-314.4938835 187.57494044 -311.10115189 185.12969517 -306.3125 183.5625 C-300.8206633 181.50764796 -298.51977111 175.49156628 -295.75 170.6875 C-295.42 170.3575 -295.09 170.0275 -294.75 169.6875 C-294.61577676 167.87697768 -294.51836511 166.063689 -294.4375 164.25 C-293.99110361 158.32639079 -292.87105599 152.82109898 -289.75 147.6875 C-288.76 147.3575 -287.77 147.0275 -286.75 146.6875 C-286.42 145.6975 -286.09 144.7075 -285.75 143.6875 C-284.18359375 142.625 -284.18359375 142.625 -282.1875 141.6875 C-281.46820313 141.34332031 -280.74890625 140.99914062 -280.0078125 140.64453125 C-277.88104773 139.74304791 -275.76668015 139.05804442 -273.5625 138.375 C-269.68312593 136.99330513 -268.04059635 134.98562153 -265.953125 131.50390625 C-264.75 129.6875 -264.75 129.6875 -262.6953125 127.82421875 C-260.31222536 125.20665115 -259.99291311 123.39423129 -259.375 119.9375 C-257.65481378 112.38523857 -254.48959095 107.34741526 -248.125 102.875 C-243.0382316 99.9528139 -237.42513021 98.93182485 -231.75 97.6875 C-230.76 97.3575 -229.77 97.0275 -228.75 96.6875 C-228.42 95.6975 -228.09 94.7075 -227.75 93.6875 C-222.37857143 89.6875 -222.37857143 89.6875 -219.75 89.6875 C-219.71003906 89.08164063 -219.67007813 88.47578125 -219.62890625 87.8515625 C-218.62722312 79.81336451 -214.83695804 74.90352537 -208.75 69.6875 C-204.82023208 67.36086919 -201.73311332 66.30820883 -197.1875 66.0625 C-187.95088476 65.51223356 -182.66816489 62.64935505 -175.5 56.875 C-173.78973585 54.73716981 -172.77397022 52.75583557 -171.5625 50.3125 C-168.59263021 44.98782222 -165.61854244 41.6978823 -159.75 39.6875 C-155.65214178 39.21661068 -151.53937187 39.21246006 -147.41894531 39.14282227 C-138.44063522 38.88194118 -130.36621871 36.89213278 -123.515625 30.65234375 C-121.82795338 28.72306103 -120.29534773 26.73050208 -118.75 24.6875 C-113.32518948 19.8934814 -109.93429381 18.41607283 -102.625 18.5 C-100.76488281 18.50966797 -100.76488281 18.50966797 -98.8671875 18.51953125 C-95.75 18.6875 -95.75 18.6875 -93.75 19.6875 C-85.88558928 20.33212383 -79.02575098 18.72972876 -71.75 15.6875 C-68.81026719 13.33331624 -68.81026719 13.33331624 -66.75 10.6875 C-60.06026865 5.87089343 -54.88767142 4.84678693 -46.75 5.6875 C-44.33203125 6.6171875 -44.33203125 6.6171875 -42 7.75 C-34.86987309 10.95058412 -26.55868628 10.27057601 -19.22265625 7.85546875 C-16.1963364 6.39749124 -13.69026456 4.64169429 -11.01953125 2.59375 C-7.2556639 0.39928493 -4.25346608 -0.04064954 0 0 Z M-87.64697266 42.04980469 C-90.59384895 42.94337804 -93.57944632 43.67480766 -96.5625 44.4375 C-107.31141601 47.50496711 -117.50626519 52.266015 -127.75 56.6875 C-129.43482304 57.40381707 -131.11971358 58.11997541 -132.8046875 58.8359375 C-141.04366472 62.3759275 -148.87754947 66.26503783 -156.59765625 70.828125 C-159.40666075 72.48498515 -162.24291839 74.03795163 -165.125 75.5625 C-176.9957866 82.0136344 -188.08435618 89.40801374 -198.75 97.6875 C-200.12298446 98.71104256 -201.49777504 99.7321704 -202.875 100.75 C-206.02074117 103.11926076 -209.14490969 105.51518165 -212.25 107.9375 C-213.1059375 108.60265625 -213.961875 109.2678125 -214.84375 109.953125 C-215.78734375 110.81164062 -215.78734375 110.81164062 -216.75 111.6875 C-216.75 112.3475 -216.75 113.0075 -216.75 113.6875 C-217.61625 114.0896875 -217.61625 114.0896875 -218.5 114.5 C-220.80550043 115.71679189 -222.77056192 116.99083879 -224.75 118.6875 C-224.75 119.3475 -224.75 120.0075 -224.75 120.6875 C-225.306875 120.914375 -225.86375 121.14125 -226.4375 121.375 C-229.4110989 123.0627183 -231.35213007 125.23925465 -233.75 127.6875 C-234.86161918 128.79073972 -235.97499585 129.89221057 -237.08984375 130.9921875 C-238.28910243 132.18225143 -239.48832049 133.37235629 -240.6875 134.5625 C-241.28240234 135.14902344 -241.87730469 135.73554688 -242.49023438 136.33984375 C-248.46033956 142.21472817 -248.46033956 142.21472817 -253.75 148.6875 C-253.75 149.3475 -253.75 150.0075 -253.75 150.6875 C-254.41 150.6875 -255.07 150.6875 -255.75 150.6875 C-264.90162952 160.31197884 -264.90162952 160.31197884 -269.75 171.6875 C-270.41 171.6875 -271.07 171.6875 -271.75 171.6875 C-271.75 172.6775 -271.75 173.6675 -271.75 174.6875 C-272.41 174.6875 -273.07 174.6875 -273.75 174.6875 C-275.44774156 176.96818291 -277.01966414 179.24238914 -278.5625 181.625 C-279.01028809 182.30780029 -279.45807617 182.99060059 -279.91943359 183.6940918 C-285.89239224 191.65459449 -285.89239224 191.65459449 -288.75 200.6875 C-289.41 200.6875 -290.07 200.6875 -290.75 200.6875 C-291.018125 201.23535156 -291.28625 201.78320312 -291.5625 202.34765625 C-293.4390386 206.14394322 -295.31306378 209.91873957 -297.40625 213.6015625 C-309.56536506 235.1891439 -318.20533242 258.86056832 -324.75 282.6875 C-324.99685547 283.56905762 -325.24371094 284.45061523 -325.49804688 285.35888672 C-329.03588232 298.12106459 -331.34671859 311.01750948 -333.34765625 324.10107422 C-333.67701277 326.21830904 -334.03726378 328.33071722 -334.40625 330.44140625 C-343.36614876 384.13491723 -335.81176917 452.37049381 -312.09765625 501.78125 C-310.34890523 505.5524696 -308.80730303 509.39662507 -307.25 513.25 C-304.95786624 518.89862782 -302.53655432 524.40444643 -299.6953125 529.8046875 C-298.75 531.6875 -298.75 531.6875 -297.75 534.6875 C-297.09 534.6875 -296.43 534.6875 -295.75 534.6875 C-295.64292725 535.40953613 -295.53585449 536.13157227 -295.42553711 536.87548828 C-294.69065044 539.93455033 -293.58591982 542.00495336 -291.94140625 544.6796875 C-291.36358398 545.62577881 -290.78576172 546.57187012 -290.19042969 547.54663086 C-289.57071289 548.54186768 -288.95099609 549.53710449 -288.3125 550.5625 C-287.68375977 551.58158447 -287.05501953 552.60066895 -286.40722656 553.65063477 C-282.66807749 559.68227231 -278.89036889 565.68958968 -275 571.625 C-274.59467041 572.25067871 -274.18934082 572.87635742 -273.77172852 573.52099609 C-272.81897482 574.94776173 -271.7920821 576.32461164 -270.75 577.6875 C-270.09 577.6875 -269.43 577.6875 -268.75 577.6875 C-268.4921875 578.23921875 -268.234375 578.7909375 -267.96875 579.359375 C-266.57036875 582.03064175 -264.96236695 584.45601909 -263.25 586.9375 C-262.6415625 587.82953125 -262.033125 588.7215625 -261.40625 589.640625 C-260.8596875 590.31609375 -260.313125 590.9915625 -259.75 591.6875 C-259.09 591.6875 -258.43 591.6875 -257.75 591.6875 C-257.646875 592.285625 -257.54375 592.88375 -257.4375 593.5 C-256.63483085 596.05394731 -255.66310142 596.85092264 -253.75 598.6875 C-252.65678979 599.90789061 -251.57411022 601.13776557 -250.5 602.375 C-249.88898438 603.07496094 -249.27796875 603.77492188 -248.6484375 604.49609375 C-247.39688594 605.94078599 -246.15191259 607.3912071 -244.9140625 608.84765625 C-241.73217173 612.56449372 -238.58715047 615.63745732 -234.75 618.6875 C-233.75171091 619.81671224 -232.77396221 620.96427101 -231.8125 622.125 C-229.04956578 625.43766532 -226.2036036 628.0972973 -222.75 630.6875 C-222.09 630.6875 -221.43 630.6875 -220.75 630.6875 C-220.75 631.3475 -220.75 632.0075 -220.75 632.6875 C-220.09 632.6875 -219.43 632.6875 -218.75 632.6875 C-218.255 634.1725 -218.255 634.1725 -217.75 635.6875 C-215.73491642 636.42073796 -215.73491642 636.42073796 -213.75 636.6875 C-213.75 637.3475 -213.75 638.0075 -213.75 638.6875 C-213.09 638.6875 -212.43 638.6875 -211.75 638.6875 C-211.75 639.3475 -211.75 640.0075 -211.75 640.6875 C-210.20156729 642.10424287 -210.20156729 642.10424287 -208.1875 643.5 C-207.46175781 644.02464844 -206.73601562 644.54929687 -205.98828125 645.08984375 C-205.24964844 645.61707031 -204.51101563 646.14429688 -203.75 646.6875 C-203.08355469 647.18378906 -202.41710937 647.68007813 -201.73046875 648.19140625 C-198.57515173 650.79894025 -198.57515173 650.79894025 -194.75 651.6875 C-194.42 652.6775 -194.09 653.6675 -193.75 654.6875 C-190.74152582 655.91270264 -190.74152582 655.91270264 -187.75 656.6875 C-187.75 657.3475 -187.75 658.0075 -187.75 658.6875 C-185.71545146 660.24023547 -185.71545146 660.24023547 -183.0625 661.8125 C-182.05832031 662.43253906 -181.05414063 663.05257812 -180.01953125 663.69140625 C-178.40111328 664.67947266 -178.40111328 664.67947266 -176.75 665.6875 C-175.68136719 666.35652344 -174.61273438 667.02554688 -173.51171875 667.71484375 C-158.2800275 677.21868943 -142.25446487 685.60224993 -125.75 692.6875 C-125.11835937 692.96529297 -124.48671875 693.24308594 -123.8359375 693.52929688 C-112.7239421 698.37798121 -101.38849597 702.1508175 -89.75 705.5 C-89.09422974 705.68872681 -88.43845947 705.87745361 -87.76281738 706.07189941 C-72.08497392 710.6780771 -72.08497392 710.6780771 -56.0625 713.75 C-52.4890268 714.26049617 -49.00250789 714.81693446 -45.5 715.6875 C-41.24711966 716.67672308 -36.95601823 717.23222434 -32.625 717.75 C-31.97499023 717.82927734 -31.32498047 717.90855469 -30.65527344 717.99023438 C-17.52786115 719.48727516 -4.38723104 719.92731569 8.8125 719.9375 C9.61136627 719.93817474 10.41023254 719.93884949 11.23330688 719.93954468 C35.03581256 719.90799084 58.24018071 717.28199794 81.52148438 712.27099609 C83.83853073 711.77549316 86.15794731 711.31185198 88.484375 710.86328125 C98.63676585 708.73956684 108.41816601 705.45108718 118.25 702.1875 C118.97309357 701.94811707 119.69618713 701.70873413 120.44119263 701.46209717 C127.54746874 699.09915818 134.61560453 696.74333269 141.39819336 693.54003906 C143.50291598 692.57106195 145.6436462 691.75166249 147.8125 690.9375 C154.55729392 688.27981825 160.96414531 684.91119195 167.41601562 681.62060547 C170.020352 680.29555573 172.63483742 678.99102048 175.25 677.6875 C175.25 677.0275 175.25 676.3675 175.25 675.6875 C175.98935791 675.57140381 176.72871582 675.45530762 177.49047852 675.33569336 C180.26695759 674.68351677 182.01342548 673.83899175 184.40234375 672.31640625 C185.17191406 671.82946289 185.94148437 671.34251953 186.734375 670.84082031 C187.54390625 670.31584961 188.3534375 669.79087891 189.1875 669.25 C190.02925781 668.71084961 190.87101563 668.17169922 191.73828125 667.61621094 C199.08502577 662.87376453 206.20437626 657.86298904 213.25 652.6875 C215.29147115 651.2080635 217.3331244 649.72887824 219.375 648.25 C221.0021721 647.06547806 222.627422 645.87830724 224.25 644.6875 C225.01054688 644.16027344 225.77109375 643.63304687 226.5546875 643.08984375 C227.11414063 642.62707031 227.67359375 642.16429687 228.25 641.6875 C228.25 641.0275 228.25 640.3675 228.25 639.6875 C228.971875 639.460625 229.69375 639.23375 230.4375 639 C233.82728187 637.41810179 235.63259784 635.35816325 238.25 632.6875 C241.1569053 630.07089294 244.08504032 627.48013951 247.01953125 624.89453125 C247.75558594 624.16621094 248.49164062 623.43789063 249.25 622.6875 C249.25 622.0275 249.25 621.3675 249.25 620.6875 C250.24 620.3575 251.23 620.0275 252.25 619.6875 C252.25 619.0275 252.25 618.3675 252.25 617.6875 C252.82234375 617.44 253.3946875 617.1925 253.984375 616.9375 C256.60010611 615.49433801 258.39773456 613.80533778 260.5 611.6875 C261.20640625 610.98625 261.9128125 610.285 262.640625 609.5625 C264.46710399 607.84639232 264.46710399 607.84639232 264.25 605.6875 C264.91 605.6875 265.57 605.6875 266.25 605.6875 C269.88633539 602.20751493 269.88633539 602.20751493 271.25 597.6875 C271.91 597.6875 272.57 597.6875 273.25 597.6875 C273.476875 597.130625 273.70375 596.57375 273.9375 596 C275.25 593.6875 275.25 593.6875 277.49609375 591.4921875 C280.56978711 588.3618161 283.07357495 585.05617579 285.625 581.5 C286.10106689 580.84161133 286.57713379 580.18322266 287.06762695 579.50488281 C288.02041078 578.18467719 288.97106168 576.86292927 289.91943359 575.53955078 C291.10979388 573.88265662 292.31377419 572.23556724 293.51953125 570.58984375 C294.15246094 569.71457031 294.78539062 568.83929687 295.4375 567.9375 C295.98792969 567.17953125 296.53835938 566.4215625 297.10546875 565.640625 C298.50279332 563.63340688 298.50279332 563.63340688 298.25 560.6875 C298.91 560.6875 299.57 560.6875 300.25 560.6875 C301.68551348 558.5899178 302.97934618 556.50838718 304.25 554.3125 C304.83624146 553.31549072 304.83624146 553.31549072 305.43432617 552.29833984 C306.71825836 550.10145131 307.9865791 547.89624479 309.25 545.6875 C309.69037598 544.91792969 310.13075195 544.14835938 310.58447266 543.35546875 C311.91874127 541.01236288 313.24308805 538.66400068 314.5625 536.3125 C315.17448242 535.22702881 315.17448242 535.22702881 315.79882812 534.11962891 C318.58910356 529.0923223 320.99398583 523.97398888 323.25 518.6875 C323.64098877 517.78016113 324.03197754 516.87282227 324.43481445 515.93798828 C329.26935721 504.65958703 333.95791226 493.5212208 337.25 481.6875 C337.73933858 480.18398819 338.23877239 478.68371066 338.75 477.1875 C360.66185556 412.03624948 358.68876792 342.29318017 341.125 276.4375 C340.89570801 275.57487549 340.66641602 274.71225098 340.43017578 273.82348633 C339.05584889 268.90117216 337.30247768 264.34698863 335.15795898 259.71020508 C333.98421363 257.09539458 333.13276376 254.413165 332.25 251.6875 C331.06169793 248.52533303 329.81540478 245.38705318 328.5625 242.25 C328.21380859 241.37633789 327.86511719 240.50267578 327.50585938 239.60253906 C324.36798649 231.82594813 320.90766782 224.23143987 317.25 216.6875 C316.59 216.6875 315.93 216.6875 315.25 216.6875 C315.14300781 216.15382813 315.03601563 215.62015625 314.92578125 215.0703125 C311.78741919 204.00441159 304.44156045 194.16993498 298.01953125 184.81640625 C296.28797939 182.28468748 294.67895896 179.74657494 293.1953125 177.0625 C291.14143641 173.49914871 288.8511383 170.34786547 286.3125 167.125 C285.89548828 166.58681641 285.47847656 166.04863281 285.04882812 165.49414062 C282.19295362 161.82608542 279.23459541 158.25190535 276.25 154.6875 C274.81103484 152.91785703 273.37351011 151.14704173 271.9375 149.375 C266.33725988 142.52612065 260.59492124 135.86093688 254.25 129.6875 C253.5075 128.93855469 252.765 128.18960938 252 127.41796875 C245.06567606 120.53289427 237.99177404 113.67425026 230.0234375 107.9921875 C227.50901226 106.14236805 225.20611728 104.07506221 222.890625 101.984375 C221.29577004 100.61708654 221.29577004 100.61708654 219.359375 99.828125 C217.25 98.6875 217.25 98.6875 215.0078125 96.42578125 C211.65282705 93.09455632 208.02038615 90.53223518 204.125 87.875 C203.05185547 87.12186523 203.05185547 87.12186523 201.95703125 86.35351562 C201.26738281 85.87978516 200.57773437 85.40605469 199.8671875 84.91796875 C198.93302002 84.27444458 198.93302002 84.27444458 197.97998047 83.61791992 C196.13703177 82.45066876 196.13703177 82.45066876 193.25 82.6875 C193.25 82.0275 193.25 81.3675 193.25 80.6875 C192.61835937 80.3471875 191.98671875 80.006875 191.3359375 79.65625 C183.05310119 75.16871909 183.05310119 75.16871909 179.31640625 72.9296875 C152.99812754 57.22414789 123.8653663 46.21936885 94.25 38.6875 C92.88439941 38.33196045 92.88439941 38.33196045 91.49121094 37.96923828 C64.50741414 31.01736272 36.73980331 28.45876389 8.9375 28.5 C7.61383423 28.50190338 7.61383423 28.50190338 6.26342773 28.50384521 C-25.88734722 28.59169283 -56.89430219 32.43671847 -87.64697266 42.04980469 Z " fill="#FFFFFF" transform="translate(665.75,128.3125)"/>
<path d="M0 0 C1.04752441 0.63494385 1.04752441 0.63494385 2.11621094 1.28271484 C19.45822863 11.80888176 35.77652113 23.58733605 51 37 C51.79792969 37.68707031 52.59585938 38.37414062 53.41796875 39.08203125 C64.69575033 48.96189686 75.73636153 59.60493745 84.984375 71.4296875 C87.13773377 74.17563725 89.40695755 76.79648471 91.6875 79.4375 C127.81143796 122.97576473 150.16856965 177.41588955 159 233 C159.16516113 234.03237793 159.33032227 235.06475586 159.50048828 236.12841797 C166.95235355 285.33230601 162.07619525 336.7302417 147 384 C146.74669922 384.80099121 146.49339844 385.60198242 146.23242188 386.42724609 C134.39644372 423.30714544 115.55659808 458.03193123 91 488 C90.58508301 488.50966309 90.17016602 489.01932617 89.74267578 489.54443359 C77.64701133 504.34516972 64.53761995 518.5746838 50 531 C49.11183594 531.78890625 48.22367188 532.5778125 47.30859375 533.390625 C-15.27323358 588.44412076 -101.89741804 615.48166005 -184.53881836 610.484375 C-249.90266284 606.05824178 -313.3240513 583.66652677 -365 543 C-365.94230469 542.27039063 -366.88460937 541.54078125 -367.85546875 540.7890625 C-373.81043486 536.11741467 -379.4297592 531.12076892 -385 526 C-386.09110131 525.00255546 -387.18224947 524.00516217 -388.2734375 523.0078125 C-412.5022772 500.81048652 -432.45824013 475.37930867 -449 447 C-449.45761719 446.21786133 -449.91523438 445.43572266 -450.38671875 444.62988281 C-475.89905153 400.66220006 -491.95003952 347.58105249 -492.203125 296.59375 C-492.21013931 295.63897263 -492.21715363 294.68419525 -492.22438049 293.70048523 C-492.24178728 290.63360821 -492.24823367 287.56692462 -492.25 284.5 C-492.25067474 283.44954498 -492.25134949 282.39908997 -492.25204468 281.31680298 C-492.23542215 265.01538687 -491.67561881 249.11375111 -489 233 C-488.82839355 231.93700684 -488.65678711 230.87401367 -488.47998047 229.77880859 C-479.00496605 172.58155894 -454.71030322 119.77177356 -418 75 C-417.54141602 74.43700195 -417.08283203 73.87400391 -416.61035156 73.29394531 C-409.49445763 64.62620702 -401.77759523 56.57356291 -393.875 48.625 C-392.96903076 47.70976562 -392.06306152 46.79453125 -391.12963867 45.8515625 C-385.0590992 39.8090181 -378.70599958 34.32228251 -372 29 C-370.60996891 27.86284427 -369.22058817 26.72489284 -367.83203125 25.5859375 C-287.8412419 -38.82146104 -178.2030836 -59.03432628 0 0 Z M-381.2734375 55.2734375 C-382.96341959 56.96341959 -384.71867384 58.48107713 -386.5625 60 C-389.7168322 62.65105673 -392.34697849 65.55943462 -395.0078125 68.69921875 C-397.30574074 71.35310058 -399.71535573 73.88467397 -402.125 76.4375 C-417.56905906 93.09085549 -429.80835448 112.32796463 -441 132 C-441.51361084 132.88727783 -441.51361084 132.88727783 -442.03759766 133.79248047 C-462.31995024 168.98150492 -472.82245312 208.99840726 -478 249 C-478.10602539 249.80518066 -478.21205078 250.61036133 -478.32128906 251.43994141 C-481.2571018 277.88856264 -480.47658735 306.80142131 -476 333 C-475.80664062 334.14033691 -475.61328125 335.28067383 -475.4140625 336.45556641 C-462.52600286 409.67684971 -422.97863982 482.52169069 -363 528 C-361.71760508 529.00896317 -360.43645769 530.01951305 -359.15625 531.03125 C-344.62799204 542.43078536 -329.31054149 552.34689334 -313 561 C-312.1248877 561.4655127 -311.24977539 561.93102539 -310.34814453 562.41064453 C-268.03300451 584.71962222 -221.7415901 596.44915854 -174 598 C-173.30036133 598.02336426 -172.60072266 598.04672852 -171.87988281 598.07080078 C-90.84878625 600.35688435 -10.637651 569.64534537 48.48828125 514.3515625 C59.6020321 503.81305756 70.72231947 493.22120166 80 481 C80.74507812 480.071875 81.49015625 479.14375 82.2578125 478.1875 C94.40657751 462.87458719 105.06203194 446.37824606 114 429 C114.47147461 428.08831055 114.94294922 427.17662109 115.42871094 426.23730469 C138.23120141 381.68565935 149.50611235 333.30783179 149.3125 283.375 C149.31034485 282.36809113 149.3081897 281.36118225 149.30596924 280.32376099 C149.25244579 264.69475983 148.73075309 249.4251974 146 234 C145.80132324 232.85934082 145.60264648 231.71868164 145.39794922 230.54345703 C139.74799575 199.05184371 130.05811448 168.22142446 115.00634766 139.90673828 C113.93373963 137.87445572 112.89338525 135.82754342 111.85546875 133.77734375 C100.08893674 110.74266361 84.27819743 89.82844082 66.69921875 70.921875 C64.19512409 68.21121971 61.75073155 65.4572639 59.3125 62.6875 C56.12472049 59.13926485 52.83299889 55.94497568 49.18359375 52.87890625 C47.59615252 51.51296845 46.05160295 50.09669314 44.53515625 48.65234375 C-24.42130772 -17.01587369 -126.89580707 -42.12161128 -381.2734375 55.2734375 Z " fill="#FFFFFF" transform="translate(840,219)"/>
<path d="M0 0 C9.6359777 4.61630559 15.29613697 18.40506144 20.4140625 27.2734375 C22.57788552 31.01864605 24.82790413 34.69734394 27.1171875 38.3671875 C29.97740908 42.98228606 32.62667736 47.6615055 35.19140625 52.4453125 C37.64710095 56.91021195 40.24942806 61.28526532 42.84326172 65.67089844 C46.04909169 71.09358896 49.2175238 76.53669869 52.3671875 81.9921875 C55.86560782 88.04719297 59.38174302 94.09105862 62.9296875 100.1171875 C63.53502319 101.14658447 63.53502319 101.14658447 64.15258789 102.19677734 C66.29330804 105.83347908 68.44517543 109.463156 70.609375 113.0859375 C71.06046631 113.84438965 71.51155762 114.6028418 71.97631836 115.38427734 C72.83295018 116.82422489 73.69289602 118.26220856 74.55688477 119.69775391 C79.72736387 128.40604171 81.8273155 135.28589529 80.8671875 145.4921875 C79.26545731 150.29737806 77.06068859 152.69652011 72.8671875 155.4921875 C68.96914037 157.37024596 65.85273733 157.74489228 61.54251099 157.75288391 C60.26680237 157.75996872 58.99109375 157.76705353 57.67672729 157.77435303 C56.27032435 157.77205939 54.86392175 157.76954971 53.45751953 157.7668457 C51.97061914 157.77119479 50.483721 157.7763786 48.99682617 157.78233337 C44.96369772 157.79571436 40.93066304 157.79630299 36.89751673 157.79377007 C33.52781289 157.79269963 30.15812797 157.79758569 26.78842819 157.8023755 C18.83663953 157.81346784 10.88489812 157.8139098 2.93310547 157.80786133 C-5.2631358 157.80182264 -13.45920535 157.81413047 -21.65541732 157.8354314 C-28.69846784 157.85306064 -35.74146377 157.85904662 -42.78453553 157.85579365 C-46.98832056 157.85398256 -51.19198313 157.85659947 -55.39574814 157.87050819 C-59.35042455 157.88310327 -63.30483382 157.88112668 -67.25950623 157.86809731 C-68.70787268 157.86573552 -70.15625803 157.86845196 -71.60460281 157.87672043 C-85.36043793 157.94956577 -85.36043793 157.94956577 -91.1328125 154.4921875 C-95.81369459 149.81130541 -97.75530671 145.76390432 -98.5078125 139.2421875 C-97.7128967 131.29302949 -93.85250013 124.72564787 -89.6953125 118.04296875 C-88.12719408 115.48301542 -86.68165411 112.88480658 -85.2578125 110.2421875 C-80.27596433 101.02185593 -75.04694886 91.944759 -69.625 82.9765625 C-67.42712999 79.31728153 -65.28282981 75.62730498 -63.13671875 71.9375 C-61.37647896 68.91112282 -59.61254859 65.88694623 -57.84765625 62.86328125 C-55.43662693 58.73136499 -53.03178486 54.5959584 -50.6328125 50.45703125 C-49.46614583 48.44791667 -48.29947917 46.43880208 -47.1328125 44.4296875 C-46.5553125 43.43130859 -45.9778125 42.43292969 -45.3828125 41.40429688 C-41.94414998 35.49025788 -38.38985799 29.67704388 -34.66821289 23.93652344 C-33.20219457 21.60264279 -31.86684689 19.2359637 -30.5703125 16.8046875 C-23.55304671 3.96654222 -15.49607972 -3.68954279 0 0 Z " fill="#FFFFFF" transform="translate(812.1328125,504.5078125)"/>
<path d="M0 0 C3 1 3 1 4.76171875 4.24707031 C5.41425993 5.68598882 6.05542143 7.13010113 6.6875 8.578125 C7.03127686 9.34171326 7.37505371 10.10530151 7.72924805 10.89202881 C8.82949264 13.34035403 9.9152926 15.79475664 11 18.25 C12.08722084 20.68974667 13.17742899 23.12810639 14.27075195 25.56512451 C14.95049909 27.08252817 15.62630605 28.60170484 16.29760742 30.12286377 C17.65795982 33.17783111 18.99314741 35.98922472 20.79296875 38.81933594 C21.19128906 39.53895508 21.58960938 40.25857422 22 41 C21.67 41.99 21.34 42.98 21 44 C14.27537749 33.79396529 9.04339204 23.11431628 4 12 C3.61908203 11.18337891 3.23816406 10.36675781 2.84570312 9.52539062 C2.47896484 8.72810547 2.11222656 7.93082031 1.734375 7.109375 C1.40147461 6.39233398 1.06857422 5.67529297 0.72558594 4.93652344 C0 3 0 3 0 0 Z " fill="#FFFFFF" transform="translate(359,629)"/>
<path d="M0 0 C5.61 0 11.22 0 17 0 C17 0.66 17 1.32 17 2 C11.39 2 5.78 2 0 2 C0 1.34 0 0.68 0 0 Z " fill="#FFFFFF" transform="translate(656,162)"/>
<path d="M0 0 C-0.33 0.99 -0.66 1.98 -1 3 C-2.98 3.33 -4.96 3.66 -7 4 C-7 3.34 -7 2.68 -7 2 C-4.35261084 0.5393715 -3.10551666 0 0 0 Z " fill="#FFFFFF" transform="translate(524,198)"/>
<path d="M0 0 C0.99 0.33 1.98 0.66 3 1 C2.67 1.99 2.34 2.98 2 4 C1.34 2.68 0.68 1.36 0 0 Z " fill="#FFFFFF" transform="translate(384,679)"/>
<path d="M0 0 C1.485 0.99 1.485 0.99 3 2 C3 2.66 3 3.32 3 4 C2.34 4 1.68 4 1 4 C0.67 2.68 0.34 1.36 0 0 Z " fill="#FFFFFF" transform="translate(381,673)"/>
<path d="M0 0 C0.66 0 1.32 0 2 0 C2 0.66 2 1.32 2 2 C1.34 2 0.68 2 0 2 C0 1.34 0 0.68 0 0 Z " fill="#FFFFFF" transform="translate(436,259)"/>
<path d="M0 0 C0.99 0.33 1.98 0.66 3 1 C2.01 1 1.02 1 0 1 C0 0.67 0 0.34 0 0 Z " fill="#FFFFFF" transform="translate(819,195)"/>
<path d="M0 0 C2 1 2 1 2 1 Z " fill="#FFFFFF" transform="translate(580,828)"/>
<path d="" fill="#FFFFFF" transform="translate(0,0)"/>
<path d="" fill="#FFFFFF" transform="translate(0,0)"/>
<path d="M0 0 C2 1 2 1 2 1 Z " fill="#FFFFFF" transform="translate(558,821)"/>
<path d="M0 0 C2 1 2 1 2 1 Z " fill="#FFFFFF" transform="translate(549,818)"/>
<path d="M0 0 C2 1 2 1 2 1 Z " fill="#FFFFFF" transform="translate(544,816)"/>
<path d="" fill="#FFFFFF" transform="translate(0,0)"/>
<path d="" fill="#FFFFFF" transform="translate(0,0)"/>
<path d="M0 0 C2 1 2 1 2 1 Z " fill="#FFFFFF" transform="translate(515,202)"/>
<path d="" fill="#FFFFFF" transform="translate(0,0)"/>
<path d="" fill="#FFFFFF" transform="translate(0,0)"/>
<path d="" fill="#FFFFFF" transform="translate(0,0)"/>
<path d="" fill="#FFFFFF" transform="translate(0,0)"/>
<path d="" fill="#FFFFFF" transform="translate(0,0)"/>
</svg>
