<svg xmlns="http://www.w3.org/2000/svg" viewBox="0 0 480 300" preserveAspectRatio="xMidYMid slice">
  <rect width="480" height="300" fill="#0a0a0a"/>
  <circle cx="240" cy="150" r="110" fill="none" stroke="rgba(255,255,255,0.06)" stroke-width="1"/>
  <polyline points="240,40 344.6,184 175.3,239 175.3,61 344.6,116 240,260 135.4,116 304.7,61 304.7,239 135.4,184 240,40"
    fill="none" stroke="rgba(255,255,255,0.2)" stroke-width="1.2" stroke-linejoin="round"/>
  <g fill="rgba(255,255,255,0.65)">
    <circle cx="240" cy="40" r="4"/>
    <circle cx="304.7" cy="61" r="4"/>
    <circle cx="344.6" cy="116" r="4"/>
    <circle cx="344.6" cy="184" r="4"/>
    <circle cx="304.7" cy="239" r="4"/>
    <circle cx="240" cy="260" r="4"/>
    <circle cx="175.3" cy="239" r="4"/>
    <circle cx="135.4" cy="184" r="4"/>
    <circle cx="135.4" cy="116" r="4"/>
    <circle cx="175.3" cy="61" r="4"/>
  </g>
  <g transform="translate(195,105) scale(0.703)" fill="#FF394A">
    <path d="M45 104.68H20a5.3 5.3 0 0 1-4.62-7.9l44.08-78.19a5.3 5.3 0 0 1 9.23 0L81.9 41.91a5.3 5.3 0 0 1 0 5.31l-32.31 54.85a5.29 5.29 0 0 1-4.59 2.61zm28.48-7.92 14.85-26.49a5.31 5.31 0 0 1 9.24 0l15 26.48a5.31 5.31 0 0 1-4.61 7.93H78.11a5.31 5.31 0 0 1-4.63-7.92z"/>
  </g>
</svg>
