<?xml version="1.0" encoding="UTF-8"?>
<svg version="1.1" xmlns="http://www.w3.org/2000/svg" width="1350" height="1080">
<path d="M0 0 C0.71244873 0 1.42489746 0 2.15893555 0 C6.91610064 0.18153407 9.50337797 1.0928842 13.0625 4.1875 C17.82830567 8.19695767 21.93289357 8.375 27.9375 8.375 C29.15046753 8.38466797 29.15046753 8.38466797 30.38793945 8.39453125 C34.462779 8.27383252 37.35520821 7.87301518 40.82421875 5.66796875 C44.97785893 3.26671952 47.69950522 3.14457108 52.375 3.3125 C53.06464844 3.31378906 53.75429688 3.31507813 54.46484375 3.31640625 C58.47451867 3.38540639 61.64056605 3.93193874 65.25 5.6875 C65.25 6.3475 65.25 7.0075 65.25 7.6875 C66.425625 8.05875 66.425625 8.05875 67.625 8.4375 C70.25 9.6875 70.25 9.6875 71.1574707 11.70947266 C72.0549354 13.84838183 72.0549354 13.84838183 74.11010742 14.35693359 C74.85107666 14.43250488 75.5920459 14.50807617 76.35546875 14.5859375 C77.17466797 14.67230469 77.99386719 14.75867188 78.83789062 14.84765625 C79.69576172 14.91855469 80.55363281 14.98945313 81.4375 15.0625 C82.27603516 15.15660156 83.11457031 15.25070313 83.97851562 15.34765625 C89.26350686 15.85098875 93.14550969 15.35227382 98.25 13.6875 C105.68498408 12.86245661 112.11484216 13.14537671 118.25 17.6875 C124.46416235 23.1158247 124.46416235 23.1158247 126.25 26.6875 C135.11765812 31.33984846 143.26594742 32.21649417 153.14379883 31.59033203 C160.09228674 31.25551536 164.93595445 32.88527616 170.2734375 37.3984375 C172.63432881 40.30519963 174.15032141 42.37673733 175.3125 46 C175.621875 46.886875 175.93125 47.77375 176.25 48.6875 C177.89115769 49.41470263 179.5633712 50.07308522 181.25 50.6875 C182.81607748 51.55608079 184.37852787 52.43122981 185.9375 53.3125 C190.49964402 55.64081315 193.63656615 55.88680087 198.6640625 55.6171875 C204.8027682 55.78410095 210.46633985 58.24539179 215.1875 62.0625 C223.25 72.32386364 223.25 72.32386364 223.25 78.6875 C224.095625 78.89375 224.94125 79.1 225.8125 79.3125 C229.08581715 80.62182686 229.94943545 81.28741993 232.25 83.6875 C235.68409651 86.86976276 238.52089164 87.18439178 243.125 87.625 C251.74085593 88.53241461 255.96937027 92.06154082 261.625 98.3125 C263.7351425 102.69510366 264.51477881 107.08188313 265.34375 111.859375 C265.94639391 114.77744744 265.94639391 114.77744744 268.140625 115.890625 C268.83671875 116.15359375 269.5328125 116.4165625 270.25 116.6875 C271.953125 118.125 271.953125 118.125 273.5 119.6875 C274.02078125 120.203125 274.5415625 120.71875 275.078125 121.25 C276.25 122.6875 276.25 122.6875 276.25 124.6875 C277.36375 124.72875 278.4775 124.77 279.625 124.8125 C285.92682513 125.61841725 291.5805012 128.85621339 295.92578125 133.46484375 C298.67950308 137.17708822 301.22508078 141.04107874 301.26953125 145.76171875 C301.4169449 154.08388919 305.3395327 160.96457055 311.25 166.6875 C314.38579938 168.68197458 317.39368217 170.17123258 320.84375 171.5390625 C321.6378125 171.91804687 322.431875 172.29703125 323.25 172.6875 C323.58 173.6775 323.91 174.6675 324.25 175.6875 C324.91 175.6875 325.57 175.6875 326.25 175.6875 C326.25 176.3475 326.25 177.0075 326.25 177.6875 C326.91 177.6875 327.57 177.6875 328.25 177.6875 C330.771588 182.83021237 331.52349367 186.42944446 331.5 192.25 C331.78425259 200.89087405 334.05276182 207.66748944 339.25 214.6875 C341.75050902 216.67793586 344.15640644 218.11009304 347.01171875 219.53125 C351.67950157 221.94253048 353.64731288 225.8862586 355.25 230.6875 C355.48046875 233.80859375 355.48046875 233.80859375 355.4375 237.125 C355.43105469 238.21683594 355.42460938 239.30867187 355.41796875 240.43359375 C355.25 243.6875 355.25 243.6875 354.5859375 246.61328125 C354.14683937 250.63153969 355.29557781 253.7378217 356.6875 257.4375 C359.25 264.52005968 359.25 264.52005968 359.25 266.6875 C359.83523438 266.94015625 360.42046875 267.1928125 361.0234375 267.453125 C365.78774352 270.09438939 369.28119509 274.74989018 371.6875 279.5625 C372.75087132 285.47011843 373.18254591 291.05120477 370.6875 296.625 C368.5082795 301.67915459 369.49392299 306.37904354 370.25 311.6875 C370.3428125 313.54375 370.3428125 313.54375 370.4375 315.4375 C371.40869986 319.32229946 373.02954456 321.05996068 375.68359375 323.95703125 C380.81947346 329.63083352 381.93659709 334.11883305 381.72265625 341.671875 C381.23093341 344.80914802 380.39571153 346.56809973 378.75 349.25 C375.9216339 354.21984329 375.689476 358.71544548 375.625 364.3125 C375.60244141 365.11244385 375.57988281 365.9123877 375.55664062 366.73657227 C375.62415119 372.18636233 376.90682466 375.54827929 380.08056641 379.97412109 C383.69196032 385.26530324 382.86902181 392.6026473 382.25 398.6875 C380.97616129 402.01907816 379.36956787 404.82608337 377.25 407.6875 C376.59 407.6875 375.93 407.6875 375.25 407.6875 C374.7148501 410.20603031 374.19670571 412.72620748 373.6875 415.25 C373.53603516 415.95447266 373.38457031 416.65894531 373.22851562 417.38476562 C371.94906067 423.84154995 372.53252692 429.15315717 374.9375 435.3125 C376.87919994 441.65925056 376.26411504 447.41004418 374.25 453.6875 C371.94553316 457.6146721 369.23278995 461.09243383 365.671875 463.95703125 C363.43081181 466.68447904 362.77025798 469.88874234 361.9375 473.25 C361.66715942 474.32918701 361.66715942 474.32918701 361.39135742 475.43017578 C360.23683219 480.5251831 360.29267744 484.31971902 361.71484375 489.38671875 C362.9620455 494.7487759 362.15303421 500.46584744 359.6875 505.375 C356.4896661 510.34159916 351.54768013 513.83659101 347 517.5 C341.81955032 523.9755621 340.05638112 532.39645969 340.375 540.5 C340.39067265 546.89444316 339.91394049 551.70511145 335.55078125 556.58984375 C332.31566996 559.59614559 329.37218391 561.73517519 325.25 563.3125 C319.01053822 566.22260471 315.92013564 572.65712121 313.25 578.6875 C312.45956877 582.30583325 312.01727513 585.81981642 311.6640625 589.50390625 C311.07591179 594.02600839 309.73879001 596.88111528 307.25 600.6875 C305.1171875 601.890625 305.1171875 601.890625 303.25 602.6875 C303.25 603.3475 303.25 604.0075 303.25 604.6875 C299.33106961 606.78438223 295.77996251 608.55718135 291.4375 609.625 C287.48586167 610.94221278 287.16362702 612.10984949 285.25 615.6875 C284.26 616.3475 283.27 617.0075 282.25 617.6875 C278.08388314 620.90398729 278.02993577 625.54433399 277.0859375 630.453125 C275.39600303 636.99174995 270.88328984 642.06609939 265.25 645.6875 C261.40048844 647.49807535 258.01320209 648.63298557 253.75 648.9375 C249.256786 649.90033157 247.18053441 652.03627092 243.94921875 655.19140625 C242.25 656.6875 242.25 656.6875 240.25 656.6875 C240.25 657.3475 240.25 658.0075 240.25 658.6875 C239.59 658.6875 238.93 658.6875 238.25 658.6875 C238.07984375 659.33976563 237.9096875 659.99203125 237.734375 660.6640625 C235.2151866 669.74922066 231.80105878 675.45922468 223.49609375 680.2890625 C219.91480269 681.8319051 217.5585528 681.92434135 213.6875 681.875 C205.42179585 682.29618238 199.47596264 685.27082054 193.25 690.6875 C191.4986729 693.66368014 191.4986729 693.66368014 190.25 696.6875 C186.77401442 702.53085117 182.87776354 706.47824549 176.25 708.6875 C174.26457034 708.62733546 172.27910082 708.56335641 170.29492188 708.47070312 C161.28115319 708.10477548 154.93186891 709.34656555 146.875 713.375 C144.25 714.6875 144.25 714.6875 142.25 714.6875 C142.085 715.368125 141.92 716.04875 141.75 716.75 C139.04898297 722.03949169 133.80023275 726.49795864 128.25 728.6875 C122.4230574 729.65475687 116.61858779 730.35348231 110.9375 728.5 C104.22901761 726.59947309 96.62716026 729.47067762 90.25 731.6875 C89.92 732.3475 89.59 733.0075 89.25 733.6875 C88.59 733.6875 87.93 733.6875 87.25 733.6875 C86.59 735.0075 85.93 736.3275 85.25 737.6875 C84.26 737.6875 83.27 737.6875 82.25 737.6875 C81.92 738.6775 81.59 739.6675 81.25 740.6875 C75.96142039 743.33178981 70.02671613 743.39634951 64.25 742.6875 C62.13671875 741.75390625 62.13671875 741.75390625 60.125 740.625 C53.52374868 737.30054311 45.30269344 738.07637033 38.25 739.6875 C35.43755019 740.98724834 33.29024628 742.34339153 30.9140625 744.3125 C27.16341537 747.41162627 22.6153052 746.94082942 18 747 C17.26136719 747.02900391 16.52273438 747.05800781 15.76171875 747.08789062 C10.08471357 747.15297093 6.96164657 745.84617848 2.25 742.6875 C-1.59955117 740.12113255 -4.84363715 740.30524756 -9.3125 740.3125 C-10.12807373 740.31121094 -10.94364746 740.30992187 -11.78393555 740.30859375 C-17.31158646 740.40552177 -21.32803194 741.36513202 -26.32421875 743.78125 C-31.97264447 745.89145091 -38.55420384 745.65264029 -44.28515625 743.921875 C-48.23065198 742.11740145 -50.01830703 740.74802145 -51.75 736.6875 C-52.41 736.6875 -53.07 736.6875 -53.75 736.6875 C-54.08 736.0275 -54.41 735.3675 -54.75 734.6875 C-57.35635527 734.02833503 -57.35635527 734.02833503 -60.4375 733.625 C-61.47261719 733.46902344 -62.50773437 733.31304688 -63.57421875 733.15234375 C-64.62222656 732.99894531 -65.67023438 732.84554687 -66.75 732.6875 C-67.80832031 732.46191406 -68.86664062 732.23632812 -69.95703125 732.00390625 C-72.9573133 731.35999415 -72.9573133 731.35999415 -75.75 733.6875 C-83.41432638 736.01002315 -91.6788426 735.36577022 -98.75 731.6875 C-102.07400468 729.52303184 -103.82852499 727.55547867 -105.75 724.1875 C-108.86701254 719.47150051 -113.76270482 718.76045728 -118.984375 717.4140625 C-121.75 716.6875 -121.75 716.6875 -122.75 715.6875 C-124.41904717 716.00870152 -126.08521643 716.3448857 -127.75 716.6875 C-135.71422881 717.31679787 -143.01379803 717.41073536 -149.75 712.6875 C-153.19657279 709.46306959 -155.98910977 706.08246542 -158.25 701.9375 C-160.01513422 699.28979867 -162.03117623 698.12689308 -164.8359375 696.6796875 C-166.75 695.6875 -166.75 695.6875 -168.9921875 694.09375 C-172.50960172 692.30016768 -175.64632803 692.33017324 -179.5 692.3125 C-186.31918345 692.11399637 -191.17970251 690.88069617 -196.75 686.6875 C-196.75 686.0275 -196.75 685.3675 -196.75 684.6875 C-197.389375 684.460625 -198.02875 684.23375 -198.6875 684 C-200.75 682.6875 -200.75 682.6875 -201.5 680.0625 C-201.5825 679.27875 -201.665 678.495 -201.75 677.6875 C-202.41 677.6875 -203.07 677.6875 -203.75 677.6875 C-203.94335938 676.63175781 -204.13671875 675.57601562 -204.3359375 674.48828125 C-205.60660984 670.03868703 -208.54660547 668.16958262 -212.375 665.875 C-214.54223375 664.52390807 -216.64754389 663.14145204 -218.75 661.6875 C-218.75 661.0275 -218.75 660.3675 -218.75 659.6875 C-219.719375 659.914375 -220.68875 660.14125 -221.6875 660.375 C-227.85782674 661.23684726 -232.96068623 658.89184581 -238 655.5 C-242.43021015 650.96910325 -245.62030389 646.76704738 -246.375 640.375 C-247.66079761 633.56853009 -253.25369212 628.54297172 -258.75 624.6875 C-262.05210797 623.12253805 -265.32914985 621.93195005 -268.79296875 620.77734375 C-273.93937118 618.88058513 -277.34463907 616.20850129 -280.01953125 611.41015625 C-282.21429424 606.62510761 -283.88942872 602.30808153 -283.8125 597 C-283.80347656 596.19175781 -283.79445313 595.38351562 -283.78515625 594.55078125 C-283.77355469 593.93589844 -283.76195312 593.32101562 -283.75 592.6875 C-284.41 592.6875 -285.07 592.6875 -285.75 592.6875 C-287.5608283 590.25633757 -289.16308538 587.71835804 -290.80078125 585.16796875 C-292.92119993 582.46964037 -294.7421417 581.28801176 -297.75 579.6875 C-310.98691817 571.3167676 -310.98691817 571.3167676 -313.75 562.6875 C-314.05078125 558.92578125 -314.05078125 558.92578125 -314.0625 555 C-314.36698399 546.37128433 -316.41209554 538.74653917 -322.9375 532.640625 C-324.45462857 531.48227683 -325.99759207 530.3568544 -327.56640625 529.26953125 C-332.16679742 525.93651082 -336.44182541 521.31265075 -337.75 515.6875 C-338.05448603 510.94739321 -337.91812266 506.54212351 -337 501.875 C-336.10010148 495.94053406 -338.80457813 490.19952862 -340.75 484.6875 C-341.08 483.6975 -341.41 482.7075 -341.75 481.6875 C-343.48013599 480.01033521 -343.48013599 480.01033521 -345.5625 478.375 C-350.57205354 474.06570663 -353.71415069 470.51594152 -354.625 463.8125 C-354.98508076 458.39492128 -354.20292272 453.59334544 -351.75 448.6875 C-351.27802899 440.0346981 -351.67550263 431.77772437 -357.25 424.8125 C-358.16265625 423.79542969 -358.16265625 423.79542969 -359.09375 422.7578125 C-364.00845058 416.61443678 -363.46123427 409.18027029 -362.75 401.6875 C-361.75324156 398.45453566 -360.47288477 395.59486805 -358.75 392.6875 C-358.09 392.6875 -357.43 392.6875 -356.75 392.6875 C-356.97847897 380.03722759 -356.97847897 380.03722759 -361.875 368.75 C-365.24040879 363.03394309 -365.14772891 355.05113117 -363.75 348.6875 C-361.94434146 345.27236312 -359.83140182 342.2768446 -357.609375 339.12109375 C-355.33826366 334.92717175 -354.81443815 331.51890815 -354.5625 326.8125 C-354.52068604 326.11068604 -354.47887207 325.40887207 -354.43579102 324.68579102 C-354.33456537 319.64906631 -355.77555619 316.23485893 -357.75 311.6875 C-358.11328125 307.86328125 -358.11328125 307.86328125 -358.0625 304 C-358.05863281 302.71738281 -358.05476563 301.43476563 -358.05078125 300.11328125 C-357.77802507 297.00669464 -357.39669449 295.27891164 -355.75 292.6875 C-355.09 292.6875 -354.43 292.6875 -353.75 292.6875 C-353.46125 292.089375 -353.1725 291.49125 -352.875 290.875 C-351.75 288.6875 -351.75 288.6875 -349.75 285.6875 C-349.09 285.6875 -348.43 285.6875 -347.75 285.6875 C-347.75 285.0275 -347.75 284.3675 -347.75 283.6875 C-347.09 283.6875 -346.43 283.6875 -345.75 283.6875 C-343.09960562 273.42141184 -343.09960562 273.42141184 -343.40625 262.9609375 C-344.6549774 254.70230859 -344.60726388 246.74402503 -339.75 239.6875 C-336.23462699 235.86237076 -332.98820653 232.62289402 -327.75 231.6875 C-327.6675 231.0275 -327.585 230.3675 -327.5 229.6875 C-326.81981437 226.9667575 -326.09285427 225.53141241 -324.6875 223.1875 C-322.21621107 218.49205104 -322.62019058 214.29393713 -322.80859375 209.09765625 C-322.71636807 203.73012155 -321.29734347 198.79925969 -319.75 193.6875 C-319.09 193.6875 -318.43 193.6875 -317.75 193.6875 C-317.54375 193.130625 -317.3375 192.57375 -317.125 192 C-314.4938835 187.57494044 -311.10115189 185.12969517 -306.3125 183.5625 C-300.8206633 181.50764796 -298.51977111 175.49156628 -295.75 170.6875 C-295.42 170.3575 -295.09 170.0275 -294.75 169.6875 C-294.61577676 167.87697768 -294.51836511 166.063689 -294.4375 164.25 C-293.99110361 158.32639079 -292.87105599 152.82109898 -289.75 147.6875 C-288.76 147.3575 -287.77 147.0275 -286.75 146.6875 C-286.42 145.6975 -286.09 144.7075 -285.75 143.6875 C-284.18359375 142.625 -284.18359375 142.625 -282.1875 141.6875 C-281.46820313 141.34332031 -280.74890625 140.99914062 -280.0078125 140.64453125 C-277.88104773 139.74304791 -275.76668015 139.05804442 -273.5625 138.375 C-269.68312593 136.99330513 -268.04059635 134.98562153 -265.953125 131.50390625 C-264.75 129.6875 -264.75 129.6875 -262.6953125 127.82421875 C-260.31222536 125.20665115 -259.99291311 123.39423129 -259.375 119.9375 C-257.65481378 112.38523857 -254.48959095 107.34741526 -248.125 102.875 C-243.0382316 99.9528139 -237.42513021 98.93182485 -231.75 97.6875 C-230.76 97.3575 -229.77 97.0275 -228.75 96.6875 C-228.42 95.6975 -228.09 94.7075 -227.75 93.6875 C-222.37857143 89.6875 -222.37857143 89.6875 -219.75 89.6875 C-219.71003906 89.08164063 -219.67007813 88.47578125 -219.62890625 87.8515625 C-218.62722312 79.81336451 -214.83695804 74.90352537 -208.75 69.6875 C-204.82023208 67.36086919 -201.73311332 66.30820883 -197.1875 66.0625 C-187.95088476 65.51223356 -182.66816489 62.64935505 -175.5 56.875 C-173.78973585 54.73716981 -172.77397022 52.75583557 -171.5625 50.3125 C-168.59263021 44.98782222 -165.61854244 41.6978823 -159.75 39.6875 C-155.65214178 39.21661068 -151.53937187 39.21246006 -147.41894531 39.14282227 C-138.44063522 38.88194118 -130.36621871 36.89213278 -123.515625 30.65234375 C-121.82795338 28.72306103 -120.29534773 26.73050208 -118.75 24.6875 C-113.32518948 19.8934814 -109.93429381 18.41607283 -102.625 18.5 C-100.76488281 18.50966797 -100.76488281 18.50966797 -98.8671875 18.51953125 C-95.75 18.6875 -95.75 18.6875 -93.75 19.6875 C-85.88558928 20.33212383 -79.02575098 18.72972876 -71.75 15.6875 C-68.81026719 13.33331624 -68.81026719 13.33331624 -66.75 10.6875 C-60.06026865 5.87089343 -54.88767142 4.84678693 -46.75 5.6875 C-44.33203125 6.6171875 -44.33203125 6.6171875 -42 7.75 C-34.86987309 10.95058412 -26.55868628 10.27057601 -19.22265625 7.85546875 C-16.1963364 6.39749124 -13.69026456 4.64169429 -11.01953125 2.59375 C-7.2556639 0.39928493 -4.25346608 -0.04064954 0 0 Z M-87.64697266 42.04980469 C-90.59384895 42.94337804 -93.57944632 43.67480766 -96.5625 44.4375 C-107.31141601 47.50496711 -117.50626519 52.266015 -127.75 56.6875 C-129.43482304 57.40381707 -131.11971358 58.11997541 -132.8046875 58.8359375 C-141.04366472 62.3759275 -148.87754947 66.26503783 -156.59765625 70.828125 C-159.40666075 72.48498515 -162.24291839 74.03795163 -165.125 75.5625 C-176.9957866 82.0136344 -188.08435618 89.40801374 -198.75 97.6875 C-200.12298446 98.71104256 -201.49777504 99.7321704 -202.875 100.75 C-206.02074117 103.11926076 -209.14490969 105.51518165 -212.25 107.9375 C-213.1059375 108.60265625 -213.961875 109.2678125 -214.84375 109.953125 C-215.78734375 110.81164062 -215.78734375 110.81164062 -216.75 111.6875 C-216.75 112.3475 -216.75 113.0075 -216.75 113.6875 C-217.61625 114.0896875 -217.61625 114.0896875 -218.5 114.5 C-220.80550043 115.71679189 -222.77056192 116.99083879 -224.75 118.6875 C-224.75 119.3475 -224.75 120.0075 -224.75 120.6875 C-225.306875 120.914375 -225.86375 121.14125 -226.4375 121.375 C-229.4110989 123.0627183 -231.35213007 125.23925465 -233.75 127.6875 C-234.86161918 128.79073972 -235.97499585 129.89221057 -237.08984375 130.9921875 C-238.28910243 132.18225143 -239.48832049 133.37235629 -240.6875 134.5625 C-241.28240234 135.14902344 -241.87730469 135.73554688 -242.49023438 136.33984375 C-248.46033956 142.21472817 -248.46033956 142.21472817 -253.75 148.6875 C-253.75 149.3475 -253.75 150.0075 -253.75 150.6875 C-254.41 150.6875 -255.07 150.6875 -255.75 150.6875 C-264.90162952 160.31197884 -264.90162952 160.31197884 -269.75 171.6875 C-270.41 171.6875 -271.07 171.6875 -271.75 171.6875 C-271.75 172.6775 -271.75 173.6675 -271.75 174.6875 C-272.41 174.6875 -273.07 174.6875 -273.75 174.6875 C-275.44774156 176.96818291 -277.01966414 179.24238914 -278.5625 181.625 C-279.01028809 182.30780029 -279.45807617 182.99060059 -279.91943359 183.6940918 C-285.89239224 191.65459449 -285.89239224 191.65459449 -288.75 200.6875 C-289.41 200.6875 -290.07 200.6875 -290.75 200.6875 C-291.018125 201.23535156 -291.28625 201.78320312 -291.5625 202.34765625 C-293.4390386 206.14394322 -295.31306378 209.91873957 -297.40625 213.6015625 C-310.32640402 236.54031053 -318.84203682 261.38887964 -325.75 286.6875 C-326.18220579 288.21747218 -326.61448343 289.74742406 -327.046875 291.27734375 C-329.93559631 302.04338585 -331.62117989 313.03262022 -333.33154297 324.03662109 C-333.66992051 326.18020529 -334.03580032 328.31943676 -334.41015625 330.45703125 C-343.34933077 384.1582945 -335.81499802 452.36376617 -312.09765625 501.78125 C-310.34890523 505.5524696 -308.80730303 509.39662507 -307.25 513.25 C-304.95786624 518.89862782 -302.53655432 524.40444643 -299.6953125 529.8046875 C-298.75 531.6875 -298.75 531.6875 -297.75 534.6875 C-297.09 534.6875 -296.43 534.6875 -295.75 534.6875 C-295.64292725 535.40953613 -295.53585449 536.13157227 -295.42553711 536.87548828 C-294.69065044 539.93455033 -293.58591982 542.00495336 -291.94140625 544.6796875 C-291.36358398 545.62577881 -290.78576172 546.57187012 -290.19042969 547.54663086 C-289.57071289 548.54186768 -288.95099609 549.53710449 -288.3125 550.5625 C-287.68375977 551.58158447 -287.05501953 552.60066895 -286.40722656 553.65063477 C-282.66807749 559.68227231 -278.89036889 565.68958968 -275 571.625 C-274.59467041 572.25067871 -274.18934082 572.87635742 -273.77172852 573.52099609 C-272.81897482 574.94776173 -271.7920821 576.32461164 -270.75 577.6875 C-270.09 577.6875 -269.43 577.6875 -268.75 577.6875 C-268.4921875 578.23921875 -268.234375 578.7909375 -267.96875 579.359375 C-266.57036875 582.03064175 -264.96236695 584.45601909 -263.25 586.9375 C-262.6415625 587.82953125 -262.033125 588.7215625 -261.40625 589.640625 C-260.8596875 590.31609375 -260.313125 590.9915625 -259.75 591.6875 C-259.09 591.6875 -258.43 591.6875 -257.75 591.6875 C-257.646875 592.285625 -257.54375 592.88375 -257.4375 593.5 C-256.63483085 596.05394731 -255.66310142 596.85092264 -253.75 598.6875 C-252.65678979 599.90789061 -251.57411022 601.13776557 -250.5 602.375 C-249.88898438 603.07496094 -249.27796875 603.77492188 -248.6484375 604.49609375 C-247.39688594 605.94078599 -246.15191259 607.3912071 -244.9140625 608.84765625 C-241.73217173 612.56449372 -238.58715047 615.63745732 -234.75 618.6875 C-233.75171091 619.81671224 -232.77396221 620.96427101 -231.8125 622.125 C-229.04956578 625.43766532 -226.2036036 628.0972973 -222.75 630.6875 C-222.09 630.6875 -221.43 630.6875 -220.75 630.6875 C-220.75 631.3475 -220.75 632.0075 -220.75 632.6875 C-220.09 632.6875 -219.43 632.6875 -218.75 632.6875 C-218.255 634.1725 -218.255 634.1725 -217.75 635.6875 C-215.73491642 636.42073796 -215.73491642 636.42073796 -213.75 636.6875 C-213.75 637.3475 -213.75 638.0075 -213.75 638.6875 C-213.09 638.6875 -212.43 638.6875 -211.75 638.6875 C-211.75 639.3475 -211.75 640.0075 -211.75 640.6875 C-210.20156729 642.10424287 -210.20156729 642.10424287 -208.1875 643.5 C-207.46175781 644.02464844 -206.73601562 644.54929687 -205.98828125 645.08984375 C-205.24964844 645.61707031 -204.51101563 646.14429688 -203.75 646.6875 C-203.08355469 647.18378906 -202.41710937 647.68007813 -201.73046875 648.19140625 C-198.57515173 650.79894025 -198.57515173 650.79894025 -194.75 651.6875 C-194.42 652.6775 -194.09 653.6675 -193.75 654.6875 C-190.74152582 655.91270264 -190.74152582 655.91270264 -187.75 656.6875 C-187.75 657.3475 -187.75 658.0075 -187.75 658.6875 C-185.71545146 660.24023547 -185.71545146 660.24023547 -183.0625 661.8125 C-182.05832031 662.43253906 -181.05414063 663.05257812 -180.01953125 663.69140625 C-178.40111328 664.67947266 -178.40111328 664.67947266 -176.75 665.6875 C-175.68136719 666.35652344 -174.61273438 667.02554688 -173.51171875 667.71484375 C-158.2800275 677.21868943 -142.25446487 685.60224993 -125.75 692.6875 C-125.11835937 692.96529297 -124.48671875 693.24308594 -123.8359375 693.52929688 C-112.7239421 698.37798121 -101.38849597 702.1508175 -89.75 705.5 C-89.09422974 705.68872681 -88.43845947 705.87745361 -87.76281738 706.07189941 C-72.08497392 710.6780771 -72.08497392 710.6780771 -56.0625 713.75 C-52.4890268 714.26049617 -49.00250789 714.81693446 -45.5 715.6875 C-41.24711966 716.67672308 -36.95601823 717.23222434 -32.625 717.75 C-31.97499023 717.82927734 -31.32498047 717.90855469 -30.65527344 717.99023438 C-17.52786115 719.48727516 -4.38723104 719.92731569 8.8125 719.9375 C9.61136627 719.93817474 10.41023254 719.93884949 11.23330688 719.93954468 C35.03581256 719.90799084 58.24018071 717.28199794 81.52148438 712.27099609 C83.83853073 711.77549316 86.15794731 711.31185198 88.484375 710.86328125 C98.63676585 708.73956684 108.41816601 705.45108718 118.25 702.1875 C118.97309357 701.94811707 119.69618713 701.70873413 120.44119263 701.46209717 C127.54746874 699.09915818 134.61560453 696.74333269 141.39819336 693.54003906 C143.50291598 692.57106195 145.6436462 691.75166249 147.8125 690.9375 C154.55729392 688.27981825 160.96414531 684.91119195 167.41601562 681.62060547 C170.020352 680.29555573 172.63483742 678.99102048 175.25 677.6875 C175.25 677.0275 175.25 676.3675 175.25 675.6875 C175.98935791 675.57140381 176.72871582 675.45530762 177.49047852 675.33569336 C180.26695759 674.68351677 182.01342548 673.83899175 184.40234375 672.31640625 C185.17191406 671.82946289 185.94148437 671.34251953 186.734375 670.84082031 C187.54390625 670.31584961 188.3534375 669.79087891 189.1875 669.25 C190.02925781 668.71084961 190.87101563 668.17169922 191.73828125 667.61621094 C199.08502577 662.87376453 206.20437626 657.86298904 213.25 652.6875 C215.29147115 651.2080635 217.3331244 649.72887824 219.375 648.25 C221.0021721 647.06547806 222.627422 645.87830724 224.25 644.6875 C225.01054688 644.16027344 225.77109375 643.63304687 226.5546875 643.08984375 C227.11414063 642.62707031 227.67359375 642.16429687 228.25 641.6875 C228.25 641.0275 228.25 640.3675 228.25 639.6875 C228.971875 639.460625 229.69375 639.23375 230.4375 639 C233.82728187 637.41810179 235.63259784 635.35816325 238.25 632.6875 C241.1569053 630.07089294 244.08504032 627.48013951 247.01953125 624.89453125 C247.75558594 624.16621094 248.49164062 623.43789063 249.25 622.6875 C249.25 622.0275 249.25 621.3675 249.25 620.6875 C250.24 620.3575 251.23 620.0275 252.25 619.6875 C252.25 619.0275 252.25 618.3675 252.25 617.6875 C252.82234375 617.44 253.3946875 617.1925 253.984375 616.9375 C256.60010611 615.49433801 258.39773456 613.80533778 260.5 611.6875 C261.20640625 610.98625 261.9128125 610.285 262.640625 609.5625 C264.46710399 607.84639232 264.46710399 607.84639232 264.25 605.6875 C264.91 605.6875 265.57 605.6875 266.25 605.6875 C269.88633539 602.20751493 269.88633539 602.20751493 271.25 597.6875 C271.91 597.6875 272.57 597.6875 273.25 597.6875 C273.476875 597.130625 273.70375 596.57375 273.9375 596 C275.25 593.6875 275.25 593.6875 277.49609375 591.4921875 C280.56978711 588.3618161 283.07357495 585.05617579 285.625 581.5 C286.10106689 580.84161133 286.57713379 580.18322266 287.06762695 579.50488281 C288.02041078 578.18467719 288.97106168 576.86292927 289.91943359 575.53955078 C291.10979388 573.88265662 292.31377419 572.23556724 293.51953125 570.58984375 C294.15246094 569.71457031 294.78539062 568.83929687 295.4375 567.9375 C295.98792969 567.17953125 296.53835938 566.4215625 297.10546875 565.640625 C298.50279332 563.63340688 298.50279332 563.63340688 298.25 560.6875 C298.91 560.6875 299.57 560.6875 300.25 560.6875 C301.68551348 558.5899178 302.97934618 556.50838718 304.25 554.3125 C304.83624146 553.31549072 304.83624146 553.31549072 305.43432617 552.29833984 C306.71825836 550.10145131 307.9865791 547.89624479 309.25 545.6875 C309.69037598 544.91792969 310.13075195 544.14835938 310.58447266 543.35546875 C311.91874127 541.01236288 313.24308805 538.66400068 314.5625 536.3125 C315.17448242 535.22702881 315.17448242 535.22702881 315.79882812 534.11962891 C318.58910356 529.0923223 320.99398583 523.97398888 323.25 518.6875 C323.64098877 517.78016113 324.03197754 516.87282227 324.43481445 515.93798828 C329.26935721 504.65958703 333.95791226 493.5212208 337.25 481.6875 C337.73933858 480.18398819 338.23877239 478.68371066 338.75 477.1875 C360.66185556 412.03624948 358.68876792 342.29318017 341.125 276.4375 C340.89570801 275.57487549 340.66641602 274.71225098 340.43017578 273.82348633 C339.05584889 268.90117216 337.30247768 264.34698863 335.15795898 259.71020508 C333.98421363 257.09539458 333.13276376 254.413165 332.25 251.6875 C331.06169793 248.52533303 329.81540478 245.38705318 328.5625 242.25 C328.21380859 241.37633789 327.86511719 240.50267578 327.50585938 239.60253906 C324.36798649 231.82594813 320.90766782 224.23143987 317.25 216.6875 C316.59 216.6875 315.93 216.6875 315.25 216.6875 C315.14300781 216.15382813 315.03601563 215.62015625 314.92578125 215.0703125 C311.78741919 204.00441159 304.44156045 194.16993498 298.01953125 184.81640625 C296.28797939 182.28468748 294.67895896 179.74657494 293.1953125 177.0625 C291.14143641 173.49914871 288.8511383 170.34786547 286.3125 167.125 C285.89548828 166.58681641 285.47847656 166.04863281 285.04882812 165.49414062 C282.19295362 161.82608542 279.23459541 158.25190535 276.25 154.6875 C274.81103484 152.91785703 273.37351011 151.14704173 271.9375 149.375 C266.33725988 142.52612065 260.59492124 135.86093688 254.25 129.6875 C253.5075 128.93855469 252.765 128.18960938 252 127.41796875 C245.06567606 120.53289427 237.99177404 113.67425026 230.0234375 107.9921875 C227.50901226 106.14236805 225.20611728 104.07506221 222.890625 101.984375 C221.29577004 100.61708654 221.29577004 100.61708654 219.359375 99.828125 C217.25 98.6875 217.25 98.6875 215.0078125 96.42578125 C211.65282705 93.09455632 208.02038615 90.53223518 204.125 87.875 C203.05185547 87.12186523 203.05185547 87.12186523 201.95703125 86.35351562 C201.26738281 85.87978516 200.57773437 85.40605469 199.8671875 84.91796875 C198.93302002 84.27444458 198.93302002 84.27444458 197.97998047 83.61791992 C196.13703177 82.45066876 196.13703177 82.45066876 193.25 82.6875 C193.25 82.0275 193.25 81.3675 193.25 80.6875 C192.61835937 80.3471875 191.98671875 80.006875 191.3359375 79.65625 C183.05310119 75.16871909 183.05310119 75.16871909 179.31640625 72.9296875 C152.99812754 57.22414789 123.8653663 46.21936885 94.25 38.6875 C92.88439941 38.33196045 92.88439941 38.33196045 91.49121094 37.96923828 C64.50741414 31.01736272 36.73980331 28.45876389 8.9375 28.5 C7.61383423 28.50190338 7.61383423 28.50190338 6.26342773 28.50384521 C-25.88734722 28.59169283 -56.89430219 32.43671847 -87.64697266 42.04980469 Z " fill="#FFFFFF" transform="translate(665.75,128.3125)"/>
<path d="M0 0 C1.86266559 -0.00256327 1.86266559 -0.00256327 3.76296079 -0.00517833 C7.18372937 -0.00788901 10.60426572 -0.00169213 14.02500606 0.00837779 C17.72356944 0.01705588 21.42212631 0.01408906 25.12069702 0.01257324 C31.52009383 0.01152714 37.9194497 0.01777498 44.31883621 0.02904892 C53.57114368 0.04533826 62.82343145 0.05051543 72.07575171 0.0530249 C87.08887294 0.05739662 102.10197238 0.07069152 117.11508179 0.08963013 C131.69450777 0.10800247 146.27392781 0.12215234 160.85336304 0.13064575 C162.20253118 0.13143392 162.20253118 0.13143392 163.57895525 0.13223802 C168.09143839 0.13484819 172.60392156 0.13737558 177.11640477 0.13986182 C214.52174088 0.16057804 251.92705221 0.19578931 289.33236694 0.24050903 C289.37319418 3.08310507 289.40278041 5.92510233 289.42611694 8.76785278 C289.44496948 9.960578 289.44496948 9.960578 289.46420288 11.17739868 C289.57400843 29.0711285 280.60465521 48.5073691 269.33236694 62.24050903 C268.67236694 62.24050903 268.01236694 62.24050903 267.33236694 62.24050903 C267.00236694 63.23050903 266.67236694 64.22050903 266.33236694 65.24050903 C265.67236694 65.24050903 265.01236694 65.24050903 264.33236694 65.24050903 C264.12096069 65.79222778 263.90955444 66.34394653 263.69174194 66.91238403 C255.07483732 81.67007126 233.86078403 89.74162184 218.33236694 94.24050903 C217.22220183 94.57883412 216.11203672 94.91715921 214.96823025 95.26573658 C209.31883666 96.6595966 203.70025425 96.51361191 197.91197205 96.48774719 C196.6726094 96.49016161 195.43324675 96.49257602 194.15632766 96.4950636 C190.73297566 96.49971089 187.30984933 96.4954305 183.88651812 96.48729932 C180.18857815 96.48070114 176.49065103 96.48567527 172.79270935 96.48918152 C165.55703361 96.49421453 158.3214037 96.488594 151.08573366 96.47933122 C142.66314654 96.4689369 134.24056927 96.46901765 125.81797694 96.4695038 C110.79712917 96.47000403 95.77630273 96.46085154 80.75546265 96.44631958 C66.16919568 96.43221531 51.58294746 96.42514958 36.99667358 96.42581177 C36.09726811 96.42585172 35.19786264 96.42589168 34.27120245 96.42593285 C32.92445496 96.42599338 32.92445496 96.42599338 31.55050045 96.42605513 C14.95123011 96.42674408 -1.64803225 96.42086238 -18.24730001 96.41190192 C-24.1239524 96.40888082 -30.00060332 96.40782182 -35.87725639 96.40736961 C-43.02934873 96.40668908 -50.18142759 96.4022464 -57.33351421 96.39303681 C-60.98525391 96.38840564 -64.63697633 96.38537817 -68.28871918 96.38663101 C-72.23786768 96.38792027 -76.18698112 96.38150501 -80.13612366 96.3742218 C-81.30282024 96.3757704 -82.46951683 96.37731901 -83.67156786 96.37891454 C-85.24513224 96.37407787 -85.24513224 96.37407787 -86.8504858 96.36914349 C-87.76317382 96.36843906 -88.67586183 96.36773464 -89.61620706 96.36700886 C-91.66763306 96.24050903 -91.66763306 96.24050903 -92.66763306 95.24050903 C-94.51213467 75.13241768 -86.26161259 57.38248975 -76.66763306 40.24050903 C-76.00763306 40.24050903 -75.34763306 40.24050903 -74.66763306 40.24050903 C-74.48200806 39.58050903 -74.29638306 38.92050903 -74.10513306 38.24050903 C-72.05954531 33.97145635 -69.09578662 30.49887197 -65.66763306 27.24050903 C-65.00763306 27.24050903 -64.34763306 27.24050903 -63.66763306 27.24050903 C-63.66763306 26.58050903 -63.66763306 25.92050903 -63.66763306 25.24050903 C-63.00763306 25.24050903 -62.34763306 25.24050903 -61.66763306 25.24050903 C-61.42786743 24.64882935 -61.18810181 24.05714966 -60.94107056 23.44754028 C-58.45256778 19.13464437 -53.77272892 16.88306062 -49.66763306 14.24050903 C-48.74337524 13.63593872 -47.81911743 13.03136841 -46.86685181 12.40847778 C-32.46445687 3.46301192 -16.82768155 -0.08554803 0 0 Z " fill="#FFFFFF" transform="translate(589.6676330566406,322.7594909667969)"/>
<path d="M0 0 C1.04502776 0.86241408 2.09542895 1.71836249 3.15136719 2.56738281 C11.73623587 9.47289119 19.58951787 17.10602155 27.39404297 24.86767578 C28.12625565 25.59198792 28.12625565 25.59198792 28.8732605 26.33093262 C35.57098658 32.97270455 41.7511998 39.88621794 47.58154297 47.30517578 C48.45105591 48.40164429 48.45105591 48.40164429 49.33813477 49.52026367 C61.02421048 64.36244573 71.33432382 79.83618578 80.58154297 96.30517578 C81.02111328 97.08570313 81.46068359 97.86623047 81.91357422 98.67041016 C123.28298988 172.88499589 131.68372143 263.99969743 108.64404297 345.36767578 C107.66249942 348.69320394 106.63511456 352.00181751 105.58154297 355.30517578 C105.32824219 356.10616699 105.07494141 356.9071582 104.81396484 357.73242188 C92.97798669 394.61232122 74.13814105 429.33710701 49.58154297 459.30517578 C49.16662598 459.81483887 48.75170898 460.32450195 48.32421875 460.84960938 C36.2285543 475.6503455 23.11916292 489.87985958 8.58154297 502.30517578 C7.69337891 503.09408203 6.80521484 503.88298828 5.89013672 504.69580078 C-56.69169061 559.74929654 -143.31587508 586.78683584 -225.95727539 581.78955078 C-291.32111987 577.36341756 -354.74250834 554.97170255 -406.41845703 514.30517578 C-407.36076172 513.57556641 -408.30306641 512.84595703 -409.27392578 512.09423828 C-415.22889189 507.42259045 -420.84821623 502.4259447 -426.41845703 497.30517578 C-427.50955834 496.30773124 -428.6007065 495.31033795 -429.69189453 494.31298828 C-453.92073423 472.1156623 -473.87669716 446.68448445 -490.41845703 418.30517578 C-490.87607422 417.52303711 -491.33369141 416.74089844 -491.80517578 415.93505859 C-514.39759181 376.99952928 -526.9587163 333.82391653 -532.41845703 289.30517578 C-532.52303223 288.4947583 -532.62760742 287.68434082 -532.73535156 286.84936523 C-533.85744647 276.74348546 -533.66245949 266.52201536 -533.66845703 256.36767578 C-533.66913177 255.34250854 -533.66980652 254.31734131 -533.67050171 253.2611084 C-533.65328005 236.75986124 -533.01836427 220.63136494 -530.41845703 204.30517578 C-530.25216797 203.24105469 -530.08587891 202.17693359 -529.91455078 201.08056641 C-520.29471118 141.61570604 -493.8087299 84.78125349 -453.71777344 39.76757812 C-452.56849486 38.47404587 -451.43556006 37.16603272 -450.30517578 35.85595703 C-439.39719426 23.38061506 -427.56511835 11.4120347 -414.41845703 1.30517578 C-413.45037109 0.50853516 -412.48228516 -0.28810547 -411.48486328 -1.10888672 C-364.89570922 -39.30094991 -306.30282954 -63.99761915 -246.41845703 -70.69482422 C-245.11207275 -70.84709473 -245.11207275 -70.84709473 -243.77929688 -71.00244141 C-157.00655327 -80.75149677 -67.52369396 -55.79296992 0 0 Z M-422.69189453 26.57861328 C-424.38187662 28.26859537 -426.13713087 29.78625291 -427.98095703 31.30517578 C-431.13528923 33.95623251 -433.76543552 36.8646104 -436.42626953 40.00439453 C-438.72419777 42.65827636 -441.13381276 45.18984975 -443.54345703 47.74267578 C-458.98751609 64.39603127 -471.22681151 83.63314041 -482.41845703 103.30517578 C-482.93206787 104.19245361 -482.93206787 104.19245361 -483.45605469 105.09765625 C-503.73790242 140.2858048 -514.34730732 180.27956126 -519.41845703 220.30517578 C-519.52303223 221.10455566 -519.62760742 221.90393555 -519.73535156 222.72753906 C-522.67476894 249.18229547 -521.89617011 278.10000891 -517.41845703 304.30517578 C-517.22509766 305.4455127 -517.03173828 306.58584961 -516.83251953 307.76074219 C-503.94445989 380.98202549 -464.39709685 453.82686647 -404.41845703 499.30517578 C-403.13606211 500.31413895 -401.85491472 501.32468883 -400.57470703 502.33642578 C-386.04644907 513.73596114 -370.72899852 523.65206912 -354.41845703 532.30517578 C-353.54334473 532.77068848 -352.66823242 533.23620117 -351.76660156 533.71582031 C-309.45146154 556.024798 -263.16004713 567.75433432 -215.41845703 569.30517578 C-214.71881836 569.32854004 -214.01917969 569.3519043 -213.29833984 569.37597656 C-132.26724328 571.66206013 -52.05610803 540.95052115 7.06982422 485.65673828 C18.18357506 475.11823334 29.30386244 464.52637744 38.58154297 452.30517578 C39.32662109 451.37705078 40.07169922 450.44892578 40.83935547 449.49267578 C52.98812048 434.17976297 63.64357491 417.68342184 72.58154297 400.30517578 C73.05301758 399.39348633 73.52449219 398.48179687 74.01025391 397.54248047 C96.69862552 353.21380126 108.09201173 304.94871398 107.89404297 255.24267578 C107.89188782 254.26105469 107.88973267 253.27943359 107.88751221 252.26806641 C107.74455636 211.51986579 100.03243452 172.04758459 84.58154297 134.30517578 C84.11409668 133.15952148 84.11409668 133.15952148 83.63720703 131.99072266 C69.92361235 98.81688408 49.67961234 68.46853407 25.28076172 42.22705078 C22.77666706 39.51639549 20.33227452 36.76243968 17.89404297 33.99267578 C14.70626345 30.44444063 11.41454186 27.25015146 7.76513672 24.18408203 C6.17769549 22.81814423 4.63314592 21.40186892 3.11669922 19.95751953 C-65.83976475 -45.71069791 -168.3142641 -70.8164355 -422.69189453 26.57861328 Z " fill="#FFFFFF" transform="translate(881.41845703125,247.69482421875)"/>
<path d="M0 0 C2.02174365 0.00084787 4.04348821 0.00036802 6.06523132 -0.00132751 C11.51265816 -0.00218266 16.95988384 0.01536468 22.40726423 0.03639436 C28.11538115 0.0552419 33.82350349 0.05691794 39.53164673 0.06047058 C50.32246984 0.06976742 61.11320097 0.09434906 71.90398371 0.12451905 C84.19668546 0.15813681 96.48939177 0.17456757 108.7821281 0.18960536 C134.0522313 0.22090085 159.32225306 0.27361513 184.59228516 0.34057617 C184.61123776 2.58126603 184.62475941 4.82200226 184.63598633 7.06274414 C184.64409836 8.31054657 184.65221039 9.558349 184.66056824 10.84396362 C184.24420743 32.16480017 171.17512542 54.60802461 156.77978516 69.52807617 C135.20989159 90.24695724 109.83006323 96.67519758 80.70288086 96.58349609 C78.71261025 96.58457068 76.72233994 96.58651199 74.73207092 96.58924866 C69.36095352 96.59406841 63.98992005 96.58647989 58.6188128 96.57629561 C52.99255492 96.56747915 47.36629939 96.56927318 41.74003601 96.56965637 C32.30608727 96.56872209 22.87217085 96.56006544 13.43823242 96.54638672 C2.51918203 96.53061358 -8.39983313 96.52539046 -19.31889409 96.52612227 C-29.82571254 96.52673141 -40.33251949 96.52163968 -50.83933449 96.51333046 C-55.31262107 96.50979322 -59.78590359 96.50796661 -64.25919151 96.50743675 C-69.51315295 96.50643614 -74.76708454 96.50036279 -80.02103615 96.49027061 C-81.95408063 96.48733805 -83.88712855 96.48612176 -85.82017517 96.48669815 C-88.44665192 96.48718518 -91.0730437 96.48156981 -93.69950867 96.47428894 C-94.47438194 96.47583754 -95.24925522 96.47738614 -96.04760951 96.47898167 C-101.29353495 96.45475607 -101.29353495 96.45475607 -102.40771484 95.34057617 C-104.59369897 73.51657074 -94.46761943 51.29365058 -81.04199219 34.6472168 C-59.79824859 9.34516999 -32.24551483 -0.19099579 0 0 Z " fill="#FFFFFF" transform="translate(599.40771484375,464.659423828125)"/>
<path d="M0 0 C2.59527396 2.49861571 4.836615 5.12341116 7 8 C7.721875 8.928125 8.44375 9.85625 9.1875 10.8125 C16.08881138 22.94928898 17.91858132 36.72548555 14.75 50.3125 C12.45362372 58.44060395 8.8046279 65.76417117 3 72 C2.34 72 1.68 72 1 72 C1 72.66 1 73.32 1 74 C-2.77798623 77.53048809 -6.91011762 79.5877522 -11.5625 81.6875 C-12.22185547 81.99494141 -12.88121094 82.30238281 -13.56054688 82.61914062 C-24.60455967 87.69161685 -37.9825146 87.80511158 -49.5 84 C-55.96324449 81.34179134 -61.86474703 77.76631247 -67 73 C-67.33 72.01 -67.66 71.02 -68 70 C-68.66 70 -69.32 70 -70 70 C-80.42066487 56.73033563 -82.55524242 43.42363221 -81 27 C-80.21151518 22.92227376 -78.9881091 19.63405106 -77 16 C-76.27103516 14.62328125 -76.27103516 14.62328125 -75.52734375 13.21875 C-68.81521967 1.66691471 -58.87655999 -6.67961008 -45.9375 -10.3125 C-29.35478433 -13.33554374 -13.40115164 -10.57082842 0 0 Z " fill="#FFFFFF" transform="translate(578,619)"/>
<path d="M0 0 C3 1 3 1 4.76171875 4.24707031 C5.41425993 5.68598882 6.05542143 7.13010113 6.6875 8.578125 C7.03127686 9.34171326 7.37505371 10.10530151 7.72924805 10.89202881 C8.82949264 13.34035403 9.9152926 15.79475664 11 18.25 C12.08722084 20.68974667 13.17742899 23.12810639 14.27075195 25.56512451 C14.95049909 27.08252817 15.62630605 28.60170484 16.29760742 30.12286377 C17.65795982 33.17783111 18.99314741 35.98922472 20.79296875 38.81933594 C21.19128906 39.53895508 21.58960938 40.25857422 22 41 C21.67 41.99 21.34 42.98 21 44 C14.27537749 33.79396529 9.04339204 23.11431628 4 12 C3.61908203 11.18337891 3.23816406 10.36675781 2.84570312 9.52539062 C2.47896484 8.72810547 2.11222656 7.93082031 1.734375 7.109375 C1.40147461 6.39233398 1.06857422 5.67529297 0.72558594 4.93652344 C0 3 0 3 0 0 Z " fill="#FFFFFF" transform="translate(359,629)"/>
<path d="M0 0 C5.61 0 11.22 0 17 0 C17 0.66 17 1.32 17 2 C11.39 2 5.78 2 0 2 C0 1.34 0 0.68 0 0 Z " fill="#FFFFFF" transform="translate(656,162)"/>
<path d="M0 0 C-0.33 0.99 -0.66 1.98 -1 3 C-2.98 3.33 -4.96 3.66 -7 4 C-7 3.34 -7 2.68 -7 2 C-4.35261084 0.5393715 -3.10551666 0 0 0 Z " fill="#FFFFFF" transform="translate(524,198)"/>
<path d="M0 0 C0.99 0.33 1.98 0.66 3 1 C2.67 1.99 2.34 2.98 2 4 C1.34 2.68 0.68 1.36 0 0 Z " fill="#FFFFFF" transform="translate(384,679)"/>
<path d="M0 0 C1.485 0.99 1.485 0.99 3 2 C3 2.66 3 3.32 3 4 C2.34 4 1.68 4 1 4 C0.67 2.68 0.34 1.36 0 0 Z " fill="#FFFFFF" transform="translate(381,673)"/>
<path d="M0 0 C0.66 0 1.32 0 2 0 C2 0.66 2 1.32 2 2 C1.34 2 0.68 2 0 2 C0 1.34 0 0.68 0 0 Z " fill="#FFFFFF" transform="translate(436,259)"/>
<path d="M0 0 C0.99 0.33 1.98 0.66 3 1 C2.01 1 1.02 1 0 1 C0 0.67 0 0.34 0 0 Z " fill="#FFFFFF" transform="translate(819,195)"/>
<path d="M0 0 C2 1 2 1 2 1 Z " fill="#FFFFFF" transform="translate(580,828)"/>
<path d="" fill="#FFFFFF" transform="translate(0,0)"/>
<path d="" fill="#FFFFFF" transform="translate(0,0)"/>
<path d="M0 0 C2 1 2 1 2 1 Z " fill="#FFFFFF" transform="translate(558,821)"/>
<path d="M0 0 C2 1 2 1 2 1 Z " fill="#FFFFFF" transform="translate(549,818)"/>
<path d="M0 0 C2 1 2 1 2 1 Z " fill="#FFFFFF" transform="translate(544,816)"/>
<path d="" fill="#FFFFFF" transform="translate(0,0)"/>
<path d="" fill="#FFFFFF" transform="translate(0,0)"/>
<path d="M0 0 C2 1 2 1 2 1 Z " fill="#FFFFFF" transform="translate(515,202)"/>
<path d="" fill="#FFFFFF" transform="translate(0,0)"/>
<path d="" fill="#FFFFFF" transform="translate(0,0)"/>
<path d="" fill="#FFFFFF" transform="translate(0,0)"/>
<path d="" fill="#FFFFFF" transform="translate(0,0)"/>
<path d="" fill="#FFFFFF" transform="translate(0,0)"/>
</svg>
